<?xml version="1.0" encoding="utf-8"?>
<!-- Generator: Adobe Illustrator 17.0.0, SVG Export Plug-In . SVG Version: 6.00 Build 0)  -->
<!DOCTYPE svg PUBLIC "-//W3C//DTD SVG 1.1//EN" "http://www.w3.org/Graphics/SVG/1.1/DTD/svg11.dtd">
<svg version="1.1" id="Layer_1" xmlns="http://www.w3.org/2000/svg" xmlns:xlink="http://www.w3.org/1999/xlink" x="0px" y="0px"
	 width="200px" height="200px" viewBox="0 0 200 200" enable-background="new 0 0 200 200" xml:space="preserve">
<g>
	<path d="M3.776,135.398c0-8.246,3.905-15.19,11.718-20.832c8.389-5.931,19.455-8.605,33.201-8.029
		c12.729,0.726,24.012,7.235,33.852,19.53c1.011-5.351,3.831-10.087,8.463-14.21c4.629-4.123,9.619-6.185,14.974-6.185
		c-6.944-7.809-10.416-16.631-10.416-26.468c0-8.68,2.634-16.525,7.903-23.541c5.269-7.012,12.236-12.183,20.903-15.512
		l-4.537-14.265l-19.665,12.586l-7.209-11.358l27.342-17.143c1.879-1.303,3.832-1.52,5.859-0.651c2.024,0.726,3.326,2.17,3.906,4.34
		l7.378,23.219c2.027,0,3.842,0,5.435,0c2.319,0,4.927,0.221,7.826,0.658l6.798-22.548c0.716-2.037,2.075-3.492,4.082-4.367
		c2.008-0.722,3.94-0.505,5.805,0.651l29.078,18.445l-7.093,11.179l-21.771-13.556l-4.119,13.66
		c8.1,3.473,14.61,8.646,19.529,15.516c4.917,6.873,7.379,14.431,7.379,22.677c0,11.575-4.632,21.483-13.889,29.729
		c-9.26,8.246-20.473,12.369-33.635,12.369c-4.34,0-8.608-0.505-12.803-1.519c-0.435,2.604-1.085,5.208-1.953,7.812
		c9.836,7.958,19.312,12.081,28.427,12.369c9.257,0.146,17.794-3.76,25.606-11.718l9.548,9.331
		c-10.738,10.85-22.636,16.058-35.696,15.624c-11.468-0.288-23.073-4.917-34.825-13.888c-0.726,1.064-1.672,1.973-2.831,2.732
		l15.122,25.521l-11.427,6.683l-16.058-27.559c-1.594,0.291-3.113,0.434-4.558,0.434c-7.523,0-12.948-2.604-16.274-7.812
		c-2.316,2.749-5.208,5.642-8.681,8.68v31.898H63.234v-22.784c-4.367,2.428-8.734,4.071-13.102,4.926l-16.231,20.866l-10.378-8.216
		l9.113-11.718c-9.405-1.01-16.709-4.194-21.917-9.548C6.089,148.493,3.776,142.488,3.776,135.398z M121.607,78.327
		c2.604,0,4.845-0.939,6.727-2.821c1.879-1.878,2.821-4.193,2.821-6.943c0-2.604-0.942-4.846-2.821-6.728
		c-1.882-1.878-4.123-2.82-6.727-2.82c-2.75,0-5.066,0.942-6.944,2.82c-1.882,1.882-2.821,4.123-2.821,6.728
		c0,2.75,0.939,5.065,2.821,6.943C116.541,77.388,118.857,78.327,121.607,78.327z M148.949,100.679
		c1.878-0.143,3.614-0.577,5.208-1.303c3.472-1.735,5.642-4.699,6.51-8.896h-24.304C137.665,96.701,141.859,100.102,148.949,100.679
		z M174.989,66.826c0-2.604-0.942-4.845-2.821-6.727c-1.882-1.879-4.123-2.821-6.727-2.821c-2.75,0-5.066,0.942-6.944,2.821
		c-1.882,1.882-2.821,4.123-2.821,6.727c0,2.75,0.939,5.065,2.821,6.944c1.878,1.882,4.194,2.82,6.944,2.82
		c2.604,0,4.845-0.938,6.727-2.82C174.047,71.892,174.989,69.576,174.989,66.826z"/>
</g>
</svg>
