<?xml version="1.0" encoding="utf-8"?>
<!-- Generator: Adobe Illustrator 17.0.0, SVG Export Plug-In . SVG Version: 6.00 Build 0)  -->
<!DOCTYPE svg PUBLIC "-//W3C//DTD SVG 1.1//EN" "http://www.w3.org/Graphics/SVG/1.1/DTD/svg11.dtd">
<svg version="1.1" id="Layer_1" xmlns="http://www.w3.org/2000/svg" xmlns:xlink="http://www.w3.org/1999/xlink" x="0px" y="0px"
	 width="200px" height="200px" viewBox="0 0 200 200" enable-background="new 0 0 200 200" xml:space="preserve">
<g>
	<path d="M49.635,7.886h1.735c2.245,0,7.144,1.599,14.695,4.796c4.388,1.157,7.568,1.735,9.542,1.735h1.275
		c4.626,0,12.144-2.023,22.554-6.072h1.275c8.47,0,13.386,6.498,14.746,19.492c0.986,5.409,3.726,10.307,8.216,14.695
		c1.734,0.579,5.782,3.759,12.144,9.542c1.429,2.585,2.144,4.745,2.144,6.48c0,3.164-2.603,8.08-7.808,14.747
		c-1.156,2.347-1.734,4.95-1.734,7.807v1.275c0,4.321,1.31,9.083,3.929,14.288l-0.459,2.602c2.925,0.681,10.29,4.151,22.095,10.41
		l2.602,0.408h5.205c4.218,0,8.249-3.605,12.093-10.818c2.144-1.939,4.167-3.095,6.072-3.47c5.136,0,8.317,2.161,9.542,6.48
		l1.275,6.939h-0.408l0.408,0.868c0,5.341-1.293,11.991-3.878,19.951c-1.667,4.559-5.715,10.325-12.144,17.298
		c-8.131,8.742-16.635,14.083-25.514,16.022c-2.722,0.85-5.478,1.564-8.266,2.143h-3.419c-0.579,0.102-0.867,0.391-0.867,0.868
		c1.122,4.796,1.684,8.555,1.684,11.276c0,5.239-2.875,8.708-8.624,10.409c-4.218,1.156-7.245,1.734-9.082,1.734
		c-8.641,0-14.271-1.309-16.89-3.928c-4.015,3.775-7.194,5.664-9.542,5.664c-1.633,0.271-3.946,0.408-6.939,0.408h-0.408
		c-8.743-0.58-14.083-1.447-16.022-2.604c-0.578,0.307-1.021,0.459-1.326,0.459c-1.429,0-3.164-1.598-5.205-4.795
		c-3.946,0.883-6.685,1.326-8.215,1.326c-6.77,0-12.536-1.734-17.298-5.205c-0.238,0-0.97-1.157-2.194-3.47
		c0-0.272,0.153-0.408,0.459-0.408c0-0.238-0.152-1.105-0.459-2.602c0-2.824,1.445-8.896,4.337-18.216
		c-6.939-6.77-10.409-12.247-10.409-16.431c-2.007-3.333-3.436-10.698-4.286-22.094c0-0.85,0.289-3.588,0.867-8.215h-0.459
		c0.646-4.286,1.36-7.331,2.144-9.134c-9.797-1.769-14.695-4.354-14.695-7.756c-1.157-1.667-1.735-3.554-1.735-5.664
		c0-1.667,2.16-5.697,6.48-12.093c0.306-1.599,0.459-2.755,0.459-3.47c0-2.109-1.734-6.003-5.204-11.685
		c-0.886-3.095-1.327-5.272-1.327-6.531c0-6.701,5.63-12.604,16.89-17.706c4.864-4.15,8.487-11.089,10.868-20.818
		C42.593,10.2,45.62,7.886,49.635,7.886z M17.591,55.085c0,2.653,2.159,7.417,6.479,14.288l0.868,6.072
		c0,2.484-2.024,6.243-6.072,11.277c-0.579,1.804-0.867,3.249-0.867,4.337c0.747,2.313,2.193,3.47,4.337,3.47h8.675
		c10.103,1.497,15.154,3.657,15.154,6.48c5.374,7.212,10.562,10.818,15.562,10.818c0.511,0.885,2.823,1.327,6.939,1.327
		c-0.578-2.619-1.581-5.664-3.01-9.134c0-1.19,1.581-2.058,4.745-2.603c0.884,0,2.619,0.443,5.205,1.327
		c0,1.735-0.715,2.603-2.144,2.603v0.868c0.067,4.082,3.385,10.427,9.95,19.033c4.319,3.198,6.905,4.796,7.756,4.796l2.194,0.408
		c4.422,0,8.317-2.738,11.685-8.215c2.313-5.715,3.47-10.188,3.47-13.42c-0.306-0.476-0.459-1.207-0.459-2.194
		c0-2.619,1.31-4.644,3.929-6.072c2.892-6.395,4.338-11.157,4.338-14.287v-1.276c-0.478-7.211-1.786-10.817-3.93-10.817
		c-6.906-1.564-10.358-4.746-10.358-9.542v-1.275c0-2.585,3.027-5.766,9.083-9.542c3.266-1.156,6.446-1.735,9.542-1.735
		c3.741,1.395,5.612,3.13,5.612,5.205v1.275c0,4.321-2.602,9.083-7.807,14.288c1.735,4.116,2.603,9.031,2.603,14.747
		c0,5-2.449,10.631-7.348,16.89v0.408h0.867c7.483-3.062,11.226-6.089,11.226-9.083v-0.408l-3.011-10.001
		c0-3.674-0.152-6.123-0.459-7.348c0.511-3.776,2.823-8.249,6.939-13.42c2.313-3.231,3.47-5.97,3.47-8.215
		c0-2.721-4.32-6.191-12.96-10.409c-4.898-3.912-8.08-9.389-9.542-16.43c0-8.267-2.739-13.318-8.216-15.155l-2.602-0.459h-1.327
		c-0.987,0-6.327,1.888-16.022,5.664c-3.979,0.579-6.565,0.867-7.756,0.867c-5.103,0-12.909-2.602-23.421-7.807h-3.011
		c-1.53,0-3.266,5.051-5.204,15.155c-2.212,5.511-4.814,9.117-7.807,10.817c-9.628,4.933-15.104,9.27-16.431,13.012
		C18.458,52.891,18.169,54.031,17.591,55.085z M162.198,116.163h-6.072c-3.198-0.543-10.121-3.572-20.768-9.083
		c-4.015-1.156-6.753-1.735-8.215-1.735c-7.042,3.743-11.516,5.613-13.42,5.613c-2.008,8.437-5.902,15.223-11.686,20.359
		l-6.071,3.011c-7.688-0.85-13.029-2.432-16.022-4.746c-2.892-2.415-5.631-6.021-8.215-10.817c-0.579-0.578-3.335-1.021-8.267-1.327
		c-9.151-2.381-15.359-5.256-18.625-8.624c-0.782-0.646-2.653-3.248-5.612-7.807c-0.953-0.578-1.82-0.867-2.603-0.867h-1.734
		c-1.735,5.307-2.603,11.362-2.603,18.165c0.816,11.43,2.125,18.948,3.929,22.554c4.422,7.858,11.055,13.198,19.9,16.022
		l8.215,3.011h1.327c1.53-1.531,3.266-2.688,5.204-3.47c0.272,0.578,0.408,1.021,0.408,1.327c-3.163,3.911-4.745,9.542-4.745,16.89
		c0.748,6.906,3.486,10.359,8.215,10.359c2.857,0.51,6.175,0.951,9.95,1.326c10.308,0,16.227-3.027,17.757-9.083v-5.205
		l-0.408-2.194h0.408c-0.782-2.926-1.497-6.378-2.143-10.358c0.271-3.47,0.85-5.205,1.734-5.205c0.272,0,1.14,1.003,2.603,3.01
		c1.293,0,6.055-1.582,14.287-4.745c0,1.939-4.626,5.119-13.879,9.542c0.885,2.143,1.327,5.307,1.327,9.491v2.602
		c0,1.531-0.153,3.98-0.46,7.348c2.619,1.156,5.8,1.734,9.542,1.734h7.348c7.79-1.734,11.686-4.03,11.686-6.888v-0.459
		c0-2.824-1.582-9.457-4.746-19.9c0.408-1.157,0.834-1.735,1.276-1.735h0.867c2.312,4.15,3.47,6.31,3.47,6.48
		c11.94-1.905,21.176-5.511,27.707-10.817c14.729-13.539,22.095-24.22,22.095-32.044c1.155-1.735,1.734-4.337,1.734-7.807
		c0-4.422-1.446-8.028-4.337-10.818h-0.408c-2.552,0-6.311,4.184-11.277,12.553C167.368,114.718,164.476,116.163,162.198,116.163z
		 M43.562,174.18v0.459c1.395,5.17,6.31,7.755,14.747,7.755c0.646,0,2.363-0.426,5.153-1.275c0-0.375-0.137-1.82-0.408-4.337
		c0.408-7.519,0.833-11.277,1.275-11.277c0-1.225-1.871-1.939-5.612-2.143c-1.77-0.987-5.376-2.279-10.818-3.878
		C45.008,161.321,43.562,166.22,43.562,174.18z M63.054,40.798h0.408c8.675,2.585,13.012,7.79,13.012,15.614
		c-3.606,5.784-8.521,8.675-14.747,8.675c-4.32-0.816-6.479-2.552-6.479-5.205c0-0.884-0.29-2.041-0.868-3.47
		c0-8.062,2.023-13.113,6.072-15.155L63.054,40.798z M74.331,69.832c4.524,0,8.13,2.739,10.817,8.215
		c0.851,2.007,1.276,3.896,1.276,5.664c0,6.872-2.892,11.48-8.675,13.828c-0.306,0-0.731,0.153-1.275,0.459
		c-0.545-0.306-0.987-0.459-1.327-0.459v0.459c-8.641,0-14.117-5.052-16.43-15.155v-1.327c0-3.878,4.048-7.773,12.144-11.685H74.331
		z M59.585,59.014c0,0.851,0.867,1.718,2.603,2.602c5.477-0.374,8.793-1.972,9.95-4.796c-2.484-7.789-5.223-11.685-8.216-11.685
		C61.506,45.135,60.06,49.762,59.585,59.014z M64.789,81.517v0.867c0,6.294,2.738,10.188,8.216,11.685h4.337
		c1.837,0,3.13-3.895,3.878-11.685c-1.804-5.782-3.674-8.674-5.612-8.674C68.394,75.411,64.789,78.013,64.789,81.517z
		 M73.464,76.771c2.925,0,4.644,2.449,5.153,7.348c0,2.585-1.718,4.031-5.153,4.337h-0.459c-1.871,0-3.742-1.445-5.613-4.337v-0.868
		c0.272-0.85,1.14-1.276,2.603-1.276c0,0.375,0.714,1.089,2.144,2.144h0.867c0-0.306,0.153-0.731,0.459-1.276l-2.603-4.796v-0.408
		C71.78,77.061,72.647,76.771,73.464,76.771z M100.303,75.904h3.011c5.033,0,8.351,3.453,9.95,10.358
		c-2.519,8.674-4.968,13.011-7.349,13.011c-2.551,0.987-3.844,1.565-3.878,1.735c-7.212,0-11.396-2.891-12.552-8.674v-1.735
		c0-6.667,1.429-10.987,4.286-12.96C97.752,76.482,99.928,75.904,100.303,75.904z M95.098,85.395l-0.459,2.194v2.143
		c2.891-0.204,4.337-0.629,4.337-1.276v-0.867c0-0.34-1.156-1.072-3.47-2.194H95.098z M96.834,81.517v0.459h1.734
		c4.048,0.918,6.072,2.637,6.072,5.154c0,3.776-1.6,5.953-4.796,6.531c-2.245-0.374-3.827-0.952-4.746-1.735v0.408
		c0,3.198,1.293,4.796,3.878,4.796h3.062c3.096,0,5.256-2.891,6.48-8.674l-0.459-0.867c0-0.204,0.153-1.072,0.459-2.603
		c0-2.143-1.734-4.167-5.204-6.072C98.993,79.901,96.834,80.769,96.834,81.517z M107.192,65.086c0,2.722,2.312,4.439,6.939,5.153
		h0.459c3.741-4.218,5.613-8.249,5.613-12.093V56.82c-0.852,0-1.276-0.135-1.276-0.408c-3.538,0.408-7.449,2.857-11.735,7.348
		V65.086z"/>
</g>
</svg>
