<?xml version="1.0" encoding="utf-8"?>
<!-- Generator: Adobe Illustrator 17.0.0, SVG Export Plug-In . SVG Version: 6.00 Build 0)  -->
<!DOCTYPE svg PUBLIC "-//W3C//DTD SVG 1.1//EN" "http://www.w3.org/Graphics/SVG/1.1/DTD/svg11.dtd">
<svg version="1.1" id="Layer_1" xmlns="http://www.w3.org/2000/svg" xmlns:xlink="http://www.w3.org/1999/xlink" x="0px" y="0px"
	 width="200px" height="200px" viewBox="0 0 200 200" enable-background="new 0 0 200 200" xml:space="preserve">
<g>
	<path d="M83.094,4.091h2.041c2.817,0,6.802,2.478,11.951,7.433c0.842,1.004,1.263,1.96,1.263,2.867v0.826
		c-0.939,0-1.766,0.972-2.478,2.915c-0.551,0.065-0.825,0.34-0.825,0.826l3.691-0.826v0.389c1.49-0.55,3.417-0.826,5.782-0.826
		c3.659,0,8.615,1.102,14.866,3.304c0.615,0,2.672-1.652,6.17-4.955c6.283-5.215,12.745-7.822,19.385-7.822h0.826
		c3.854,2.462,5.781,6.041,5.781,10.737v0.389c0,10.591-1.102,17.053-3.304,19.385l-0.826,2.478
		c4.923,7.676,7.385,14.689,7.385,21.037v0.389c0,1.36-0.259,2.041-0.777,2.041c0,0.292,0.13,0.438,0.389,0.438
		c0,0.745-0.405,2.802-1.214,6.17c2.526-0.809,5.684-1.215,9.474-1.215h1.651c0.551,0.065,0.826,0.34,0.826,0.826v0.826h-4.955
		c-4.179,0-6.786,0.68-7.822,2.041v1.263h0.389c0.291,0,0.438-0.146,0.438-0.437l6.17,0.826v1.263h-0.438l-3.692-0.437l-2.04,0.437
		v0.389h0.825v1.263h-3.74c-1.005,3.012-2.381,4.519-4.13,4.519v-0.826h-0.389c-4.049,6.219-9.409,11.158-16.081,14.818
		c-0.972,1.004-3.449,2.106-7.434,3.304c-3.952,2.656-7.256,4.178-9.911,4.567h-2.04v-1.263h1.215v-0.826
		c-1.36,0.065-2.041,0.34-2.041,0.826c0.972,2.753,1.652,4.13,2.041,4.13c0.291-0.81,1.117-1.215,2.478-1.215h0.438
		c2.461,2.041,3.692,5.053,3.692,9.037c-0.26,0.551-0.389,0.972-0.389,1.263c4.663,3.692,6.995,8.356,6.995,13.992
		c0,4.373-1.377,9.182-4.129,14.429c0,1.943-0.13,2.915-0.389,2.915l0.389,0.826v2.867c0,6.348,2.478,13.489,7.433,21.425
		c0.81,0,3.417,2.624,7.822,7.871v1.652c-0.485,0-1.587,0.955-3.304,2.866c-1.198,0.809-2.429,1.214-3.692,1.214
		c-4.113-1.101-6.17-2.332-6.17-3.692c-1.522-1.166-3.725-3.774-6.607-7.822c1.198,3.562,2.3,5.344,3.304,5.344
		c1.101,1.425,1.651,3.481,1.651,6.17l0.826-0.389c0.551,0.097,0.826,0.372,0.826,0.826v1.214c-2.17,1.101-3.968,1.652-5.393,1.652
		c-0.648,0-1.749-0.405-3.304-1.214c-1.49,0.259-2.592,0.389-3.304,0.389c-2.268-1.458-4.454-5.021-6.559-10.688
		c-2.203,1.069-3.304,1.749-3.304,2.041c1.651,1.458,2.478,2.834,2.478,4.129v1.215c0,0.389-0.826,0.809-2.478,1.263
		c-2.754-0.292-4.827-0.438-6.219-0.438H82.267c-9.619-0.777-14.429-2.413-14.429-4.907c-2.073-1.458-4.13-4.632-6.17-9.522
		c-2.203-4.6-3.304-8.988-3.304-13.166c0-6.834,0.955-11.919,2.866-15.255c0.485-2.494,0.906-3.741,1.263-3.741
		c0-0.26-0.146-0.389-0.437-0.389l2.866-10.3c-0.098-8.129-2.283-12.939-6.559-14.429c0-0.292-0.972-0.842-2.915-1.652
		c-4.017,0-7.579,1.377-10.688,4.129v2.867h-2.089v2.089c-0.552,2.689-0.826,4.195-0.826,4.519v2.478
		c-3.563,0-5.766-2.882-6.607-8.648c-0.26,0-0.389-0.146-0.389-0.437c0-3.401,1.651-6.705,4.955-9.911
		c3.951-4.373,8.762-6.559,14.43-6.559c6.057,0,11.417,3.709,16.081,11.125c1.36,3.078,2.041,6.916,2.041,11.514v1.263l-0.389,2.041
		h0.825c0,1.976-1.247,6.931-3.74,14.867l5.781-6.607c0.744,0,3.076-1.927,6.996-5.781c2.979-2.267,4.776-4.745,5.393-7.434
		c5.117-5.57,8.405-11.611,9.862-18.122l-2.04-2.478h-3.692c-1.652,0-2.479-0.68-2.479-2.041h-0.437v1.652
		c-2.009,0-6.397-1.522-13.167-4.567c-0.842,0-1.263,0.421-1.263,1.263c-1.555,0-4.584-1.652-9.085-4.956
		c-4.567-2.85-7.45-5.182-8.648-6.996c-3.595,1.36-6.202,2.041-7.821,2.041v-1.215c3.238-1.392,5.441-2.089,6.607-2.089v-0.826
		h-1.264l-2.04,0.437l-0.438-0.826v-0.826l2.089-0.437c-1.166-2.461-1.992-3.692-2.478-3.692l-2.478-4.519h0.825v-0.437
		c-1.359,0-2.04-3.028-2.04-9.085h0.389c0-0.259-0.13-0.389-0.389-0.389c1.264-11.821,2.348-17.733,3.255-17.733
		c-4.858-8.907-7.32-14.396-7.385-16.47c-0.291,0-0.843-2.478-1.651-7.433c0.323-2.202,0.874-3.304,1.651-3.304h0.389v1.652h0.438
		c0.486-3.368,1.036-5.15,1.652-5.344l-0.438-0.826V16.48c0.842,0,1.263-0.696,1.263-2.089h1.215v1.263
		c1.069-0.842,2.3-1.263,3.692-1.263h3.741c4.955,0,10.04,2.332,15.255,6.996c0.875,0,1.7-1.36,2.478-4.081l2.866-0.437
		c0-0.292-0.129-0.696-0.389-1.214c0-3.012,0.955-5.911,2.867-8.697C79.433,5.047,81.085,4.091,83.094,4.091z M37.717,120.789
		c0.842,4.114,1.668,6.17,2.478,6.17c0-8.129,2.479-13.085,7.434-14.867c3.983-0.55,6.736-0.826,8.259-0.826
		c7.126,1.49,10.688,5.069,10.688,10.737v6.17c0,5.118-1.231,10.899-3.692,17.344c0.292,0.518,0.438,0.923,0.438,1.215
		c-1.102,0-1.651,3.158-1.651,9.474v2.089l0.389,2.04h-0.389c0,5.215,1.506,10.3,4.518,15.255c0,1.101,1.23,2.348,3.692,3.741
		c0,1.133,1.101,2.364,3.304,3.692c0.292,0.809,3.32,1.36,9.085,1.651h17.733v-1.263c0-0.389-0.421-0.794-1.264-1.215v0.826h-0.825
		c-4.211-3.855-9.021-5.782-14.43-5.782h-2.04c-2.203,0.55-3.579,0.826-4.13,0.826v-0.826c0.551-0.68,0.826-1.36,0.826-2.041h3.304
		c0-0.843,0.129-1.263,0.389-1.263c3.044,0.162,4.566,0.438,4.566,0.826c0.259,0,0.389-0.13,0.389-0.389
		c3.692,0,7.822,1.376,12.389,4.129l3.692-3.741v-0.389l-1.651-9.085c0.291-2.624,0.437-5.231,0.437-7.822h1.215v-2.089
		c0.098-0.551,0.372-0.826,0.826-0.826h0.826v1.652c0,0.292-0.13,0.438-0.389,0.438l0.389,0.826v2.478
		c0,11.724,2.478,20.518,7.433,26.38c2.461,0.81,4.519,1.215,6.171,1.215l0.437-0.826c0-0.972-1.797-4.535-5.393-10.688l-2.04-9.085
		v-1.214h-1.264c1.23-12.114,2.606-18.17,4.13-18.17c5.797-8.68,8.696-14.315,8.696-16.907c-1.749-6.316-3.4-9.474-4.955-9.474
		c-1.231-1.911-3.984-2.866-8.26-2.866c-2.688-0.842-4.745-2.494-6.17-4.956v-2.915c-0.648,0-1.895-0.68-3.741-2.041
		c0,2.3-0.68,4.356-2.04,6.17l0.389,0.826c-1.394,4.308-5.102,9.539-11.126,15.692c-11.077,8.907-17.393,16.729-18.947,23.466
		c0,0.453-0.422,1.975-1.264,4.567c0.292,0.486,0.438,1.036,0.438,1.652v1.214h-0.438c-1.102,0-1.651-2.607-1.651-7.822
		c0-2.526,1.246-9.539,3.741-21.037c0.55-1.716,0.825-4.324,0.825-7.822c0-8.485-3.709-14.397-11.125-17.733h-1.652l-4.13,0.437
		v-1.263c-4.372,0-8.632,2.057-12.777,6.17C38.413,115.444,37.717,118.068,37.717,120.789z M52.971,17.306h-2.478
		c-1.911,0-2.866,0.551-2.866,1.652c-0.551,1.523-0.956,3.304-1.215,5.344c0.259,0.454,0.389,1.134,0.389,2.041l-0.389,0.826h1.652
		v3.741c0,6.607,1.506,11.693,4.518,15.255c1.814-2.752,3.045-4.13,3.692-4.13v-1.263c-1.36-1.846-2.737-5.959-4.129-12.34
		c0.453-3.595,1.149-5.393,2.089-5.393h0.826c0,1.069,1.376,2.041,4.129,2.915c2.947,1.296,4.599,2.526,4.956,3.692h0.389
		c3.238-1.101,5.166-1.652,5.781-1.652c-0.874-3.854-2.252-5.781-4.13-5.781c-3.725-2.267-7.854-4.048-12.389-5.344L52.971,17.306z
		 M89.701,23.039l0.389,2.089c-1.36,5.506-3.288,8.259-5.781,8.259l-3.304,2.041c0.55,1.911,0.826,3.563,0.826,4.956
		c0,4.664-2.884,6.996-8.648,6.996h-0.825c-3.758,0-7.597-2.752-11.515-8.259c-0.389,0-1.086,0.697-2.089,2.089
		c0.291,0.486,0.437,1.037,0.437,1.652h-0.825l-0.826-0.438c-1.394,2.3-2.364,4.373-2.915,6.219h0.438
		c0.485-0.292,1.036-0.437,1.651-0.437h0.389c0,0.292,0.146,0.697,0.438,1.214l-0.438,1.652c0.453,1.263,1.279,2.235,2.478,2.915
		h0.438v-0.437c-0.843-1.36-1.263-2.461-1.263-3.304v-2.041c0.097-0.55,0.372-0.826,0.825-0.826h0.826
		c0.453,3.012,1.83,4.519,4.13,4.519h1.215c0.68,0,1.78-0.55,3.304-1.652c5.214-0.55,8.518-0.826,9.91-0.826
		c0,0.843,1.507,1.539,4.519,2.089c5.409,3.466,8.858,7.45,10.349,11.952c0.259,0,0.663,0.551,1.215,1.652
		c0,0.615-0.146,1.166-0.438,1.651c0.291,0,0.438,1.506,0.438,4.519h-0.438c0,0.292,0.146,0.437,0.438,0.437
		c-0.454,4.114-1.005,6.17-1.652,6.17h-0.389v-2.478c-1.846,2.17-3.644,3.822-5.393,4.956c0,1.102-1.102,1.652-3.304,1.652H83.92
		c-7.645,0-13.977-2.202-18.996-6.607c-4.373-2.979-6.98-6.413-7.822-10.299c0-2.656,0.275-5.133,0.826-7.434
		c-2.203-1.133-3.304-4.016-3.304-8.648h-0.389c0,3.304-0.697,4.956-2.089,4.956c-0.583,0-0.988,1.231-1.215,3.692v1.263
		c-0.81,0-1.215,0.68-1.215,2.041v1.652c0,0.746,0.259,1.571,0.777,2.478c-0.26,1.943-0.389,3.044-0.389,3.303
		c2.072,9.069,4,13.604,5.781,13.604l0.389,2.478c1.458-0.292,2.284-0.438,2.479-0.438c3.044,0,4.566,0.551,4.566,1.652l2.041-0.389
		c1.101,0.065,1.651,0.34,1.651,0.826l2.041-0.438l1.651,0.438v0.389c0,0.842-2.607,1.393-7.822,1.652
		c0,0.842,0.551,1.263,1.652,1.263c1.555-0.842,3.335-1.263,5.344-1.263l0.438,0.826v0.826c-0.713,0-2.364,0.276-4.955,0.826
		c0.031,0.292,1.537,1.393,4.518,3.304l0.826-0.389c3.919,2.721,7.498,4.356,10.737,4.907c0,0.292,0.129,0.438,0.389,0.438
		c0-0.55,0.146-0.826,0.437-0.826c5.053,1.36,10.268,2.316,15.645,2.867c0.485-0.259,1.036-0.389,1.651-0.389
		c0.098,0.551,0.372,0.826,0.826,0.826h1.263c8.098,0,15.919-2.348,23.466-7.044l0.826,0.437c1.749-0.745,5.198-2.947,10.349-6.607
		c3.757-2.85,6.639-6.008,8.647-9.474h-0.826c-1.781,0.551-3.028,0.826-3.74,0.826h-0.826c0-0.55-0.534-1.506-1.604-2.867
		c0-0.842,2.607-1.943,7.822-3.304c2.753-0.647,4.13-1.895,4.13-3.741c0.259,0,0.809-1.652,1.651-4.956l0.826-0.777
		c-0.324-3.854-0.875-5.781-1.652-5.781v-0.438c0-0.615,0.13-1.166,0.389-1.652c-1.004-4.404-2.932-8.113-5.781-11.125v-0.389
		h-0.389c0.259,3.239,0.81,6.802,1.652,10.688h-0.438c0.291,0.551,0.438,0.972,0.438,1.263c0,5.636-2.073,10.299-6.219,13.992
		c-4.729,4.761-9.118,7.385-13.166,7.871h-2.479c-4.016,0-7.319-3.304-9.91-9.911V67.59c0-7.352,3.983-14.364,11.951-21.037
		c1.91-0.809,4.81-1.765,8.696-2.867l0.389-1.652c0-0.259-0.68-1.23-2.04-2.915v-1.215h2.04l2.478,2.041v-1.652h1.215
		c1.393,0,2.089,0.421,2.089,1.263h0.826V39.12c-1.102-2.105-2.478-3.481-4.13-4.13c0-0.453-1.377-1.684-4.129-3.692
		c-0.324-1.003-2.803-2.655-7.434-4.956c0-0.259-0.956-0.809-2.866-1.652l-0.826,0.438h-0.389c-8.907-2.752-17.167-4.13-24.777-4.13
		C92.437,21.484,89.701,22.164,89.701,23.039z M55.061,26.78l-0.438,0.826c0,3.758,1.246,7.596,3.741,11.515
		c0-0.292,0.68-0.842,2.04-1.652c-0.551-0.875-0.826-1.701-0.826-2.478v-0.826c1.652,0,2.479-0.955,2.479-2.867
		c-2.203-1.295-3.304-2.396-3.304-3.304C58.365,27.185,57.134,26.78,55.061,26.78z M59.19,85.711v0.438h2.041v-0.438H59.19z
		 M63.32,59.331h-3.741c0,6.349,2.479,11.028,7.434,14.041c5.441,3.822,11.077,5.733,16.907,5.733c2.429,0,5.457-2.186,9.085-6.559
		c-1.102,0-1.651-1.101-1.651-3.304c0-1.328-0.276-2.704-0.826-4.129H90.09c-1.522,6.057-4.405,9.085-8.647,9.085
		c-1.943,0.26-3.596,0.389-4.956,0.389c-3.919,0-6.802-2.607-8.647-7.822c-0.292-1.489-0.438-2.72-0.438-3.692v-1.263
		c0.906-0.907,1.604-2.559,2.089-4.956l-0.825-0.389c-1.005,0-2.106,0.826-3.304,2.478L63.32,59.331z M63.32,34.99
		c0,5.733,3.708,9.182,11.126,10.348c3.012,0,4.518-0.972,4.518-2.915c0.292-0.42,0.438-1.246,0.438-2.478L77.75,34.99h-2.915
		c-0.163,0-0.843,0.697-2.041,2.089h-1.263v-1.652l1.263-1.652h-0.437l-4.13,4.129h-1.215c0-1.619,1.506-3.676,4.519-6.17
		c-0.26-0.55-0.389-0.972-0.389-1.263h-0.438c-2.592,0-4.648,1.102-6.17,3.304C63.724,33.776,63.32,34.181,63.32,34.99z
		 M72.794,23.039v4.956c1.23,0,2.057,1.102,2.478,3.304c1.393,1.102,2.219,1.652,2.479,1.652c0.453-0.259,1.003-0.389,1.651-0.389
		v0.389c2.624-0.55,4.404-1.506,5.345-2.866c1.36-1.813,2.04-3.19,2.04-4.13v-0.437c0-0.226-0.275-1.328-0.826-3.304v-1.215
		c-1.328,0-3.109-0.68-5.344-2.041l-0.826,0.389l-2.866-0.389C76.178,18.958,74.802,20.318,72.794,23.039z M73.62,63.072
		c0.259,1.069,0.81,1.603,1.651,1.603c0.907,0,2.413-1.506,4.519-4.518v-1.215c0-0.42-0.405-0.842-1.215-1.263h-1.263
		c-1.911,0-3.142,1.523-3.692,4.567V63.072z M83.482,6.569c0,1.102-0.275,1.652-0.826,1.652c-1.555,0.097-2.64,2.3-3.255,6.607
		c0.259,0.454,0.389,1.004,0.389,1.652h1.652c0-1.846,0.55-2.947,1.651-3.304c0.551,0.065,0.826,0.34,0.826,0.826
		c-0.551,1.749-0.826,2.85-0.826,3.303h0.826c0.129,0,1.085-0.826,2.866-2.478h0.826v0.389c0,0.843-0.552,2.089-1.652,3.741
		l2.915,1.604c2.818-1.425,5.005-3.481,6.56-6.17v-1.652c-2.526-1.911-5.135-3.692-7.822-5.344c-1.782-0.55-3.013-0.826-3.692-0.826
		H83.482z M79.79,72.108h1.652V69.63C81.085,69.63,80.535,70.456,79.79,72.108z M80.178,65.501c0,0.421,0.421,0.842,1.264,1.263
		c1.425-0.55,2.526-1.506,3.304-2.866v-0.826c0-0.421-0.422-0.842-1.264-1.263h-1.215C81.426,61.809,80.729,63.04,80.178,65.501z
		 M83.094,70.894h0.389c1.101-0.453,1.652-1.425,1.652-2.915C84.194,67.979,83.514,68.95,83.094,70.894z M106.171,75.023
		c2.461,0.648,3.692,1.199,3.692,1.652v0.826c0,2.105-0.534,3.336-1.604,3.692l0.389,4.129v2.867c0.421,0,0.972,0.275,1.652,0.826
		c1.263-0.518,1.943-1.069,2.04-1.652l-0.389-2.478h1.215c0.421,0,0.842,0.421,1.264,1.263v1.652c0,2.203-1.523,3.303-4.567,3.303
		c-0.454,0-1.263-0.274-2.429-0.826c0,1.102-1.652,1.652-4.956,1.652c-2.203-1.069-3.304-2.315-3.304-3.741
		c0.356-1.36,0.761-2.041,1.215-2.041h1.263c0,1.976,0.551,3.206,1.652,3.692h0.826c0.355,0,1.036-0.68,2.04-2.04v-2.478
		c0-2.299-1.102-4.097-3.304-5.393c-0.26-0.453-0.389-0.988-0.389-1.604v-1.263C102.478,76.513,103.709,75.833,106.171,75.023z
		 M100.001,104.708c-0.292,0.519-0.438,0.923-0.438,1.215l4.956,3.692h0.437l1.215-0.826h2.478V108.4
		c-0.615-1.036-1.166-2.688-1.651-4.956C103.758,103.996,101.426,104.416,100.001,104.708z M113.167,108.789
		c-0.81,1.004-1.215,2.106-1.215,3.304h-2.478c0-0.809-0.275-1.214-0.826-1.214h-1.651c0,0.81-0.275,1.214-0.826,1.214v0.438
		c1.425,2.461,3.481,3.692,6.17,3.692l0.826-0.389l2.478,0.389v-3.304C115.644,111.299,114.819,109.923,113.167,108.789z
		 M115.644,152.514c-1.555,1.003-2.38,2.51-2.478,4.519h0.826c0,1.943-0.275,2.915-0.826,2.915
		c2.818,10.494,7.498,18.461,14.041,23.903h0.825c3.304,0,4.956-0.551,4.956-1.652c-8.033-8.356-12.292-14.268-12.777-17.733
		c0-0.26,0.129-0.389,0.389-0.389c-2.203-5.604-3.304-8.908-3.304-9.911v-1.214C116.68,152.951,116.131,152.805,115.644,152.514z
		 M133.815,49.857v0.389c3.304,1.814,4.955,4.567,4.955,8.259c0,6.64-3.449,11.32-10.349,14.041l-0.389-0.826
		c1.264-1.392,2.364-2.089,3.304-2.089v-0.389h-0.825c-1.814,0.81-3.612,1.36-5.394,1.652c-2.234,0-4.292-1.522-6.17-4.567
		l-0.389,3.741c0,2.17,2.461,3.677,7.385,4.519c0,0.292,0.146,0.437,0.438,0.437c6.607-1.619,9.911-3.141,9.911-4.567
		c2.104,0,4.566-3.158,7.385-9.474c-0.357-5.765-1.037-8.648-2.041-8.648c-0.551-1.943-1.781-2.915-3.692-2.915
		C137.588,49.419,136.212,49.565,133.815,49.857z M124.729,54.812c-1.911,1.36-2.866,3.142-2.866,5.344
		c0.064,0.551,0.34,0.826,0.826,0.826h0.389c2.753-1.392,4.13-3.174,4.13-5.344C126.301,55.088,125.474,54.812,124.729,54.812z
		 M125.555,21.824c0.129,0,1.636,0.68,4.519,2.041h0.438c4.729-3.562,8.162-5.344,10.3-5.344c0,1.102,0.55,1.652,1.651,1.652v2.478
		c0,3.045-0.551,6.349-1.651,9.911c2.461,1.458,3.691,2.818,3.691,4.081l0.826-0.389l-0.389-0.826
		c2.753-8.356,4.259-14.267,4.519-17.733c-0.713-3.854-1.814-5.781-3.304-5.781c-5.021,0-9.555,1.523-13.604,4.567
		C130.154,16.48,127.822,18.262,125.555,21.824z M128.033,60.982v0.826c0.098,0.551,0.372,0.826,0.826,0.826
		c1.652-1.263,2.883-2.915,3.692-4.956v-1.214C130.64,57.274,129.135,58.78,128.033,60.982z M134.204,26.342l3.74,3.741
		c1.619-4.146,2.43-6.769,2.43-7.871h-0.389C138.495,22.213,136.567,23.59,134.204,26.342z M142.851,9.873v0.826h2.478
		c0-0.55-0.275-0.826-0.826-0.826H142.851z M145.329,75.023v0.389h0.826c0.551-0.259,0.972-0.389,1.263-0.389v-0.437h-0.437
		C146.495,74.877,145.944,75.023,145.329,75.023z"/>
</g>
</svg>
