<?xml version="1.0" encoding="utf-8"?>
<!-- Generator: Adobe Illustrator 17.0.0, SVG Export Plug-In . SVG Version: 6.00 Build 0)  -->
<!DOCTYPE svg PUBLIC "-//W3C//DTD SVG 1.1//EN" "http://www.w3.org/Graphics/SVG/1.1/DTD/svg11.dtd">
<svg version="1.1" id="Layer_1" xmlns="http://www.w3.org/2000/svg" xmlns:xlink="http://www.w3.org/1999/xlink" x="0px" y="0px"
	 width="200px" height="200px" viewBox="0 0 200 200" enable-background="new 0 0 200 200" xml:space="preserve">
<g>
	<path d="M178.675,66.705c3.797,0,7.021,1.323,9.667,3.969s3.969,5.87,3.969,9.667v32.767c0,3.8-1.323,7.021-3.969,9.667
		s-5.87,3.969-9.667,3.969c-1.221,0-2.512-0.203-3.867-0.61c-1.628,0.407-3.189,0.61-4.681,0.61h-27.271v51.49h-88.53v-39.89H31.531
		v14.45c0,3.8-1.358,7.021-4.07,9.667c-2.716,2.646-5.973,3.969-9.77,3.969c-3.8,0-7.021-1.323-9.667-3.969
		c-2.646-2.646-3.969-5.867-3.969-9.667V120.23c0-3.797,1.323-7.053,3.969-9.769c2.646-2.713,5.867-4.07,9.667-4.07
		c1.222,0,2.51,0.203,3.867,0.61c1.628-0.407,3.187-0.61,4.681-0.61h28.086v-46.81c0-12.345,4.306-22.794,12.923-31.342
		c8.615-8.548,19.097-12.821,31.444-12.821c12.345,0,22.794,4.273,31.342,12.821s12.821,18.997,12.821,31.342v34.802h21.98V80.341
		c0-3.797,1.354-7.021,4.07-9.667C171.618,68.028,174.875,66.705,178.675,66.705z M73.049,75.457c2.442,0,4.509-0.847,6.207-2.544
		c1.695-1.695,2.544-3.766,2.544-6.208s-0.849-4.509-2.544-6.207c-1.698-1.695-3.765-2.544-6.207-2.544s-4.513,0.849-6.207,2.544
		c-1.698,1.698-2.544,3.765-2.544,6.207s0.846,4.513,2.544,6.208C68.536,74.61,70.606,75.457,73.049,75.457z M112.938,98.658V88.075
		H88.312v10.583H112.938z M120.672,63.245c2.442,0,4.51-0.846,6.207-2.544c1.695-1.694,2.545-3.765,2.545-6.207
		s-0.85-4.509-2.545-6.207c-1.697-1.695-3.765-2.544-6.207-2.544s-4.512,0.849-6.207,2.544c-1.698,1.698-2.544,3.765-2.544,6.207
		s0.846,4.513,2.544,6.207C116.16,62.399,118.229,63.245,120.672,63.245z"/>
</g>
</svg>
