<?xml version="1.0" encoding="utf-8"?>
<!-- Generator: Adobe Illustrator 17.0.0, SVG Export Plug-In . SVG Version: 6.00 Build 0)  -->
<!DOCTYPE svg PUBLIC "-//W3C//DTD SVG 1.1//EN" "http://www.w3.org/Graphics/SVG/1.1/DTD/svg11.dtd">
<svg version="1.1" id="Layer_1" xmlns="http://www.w3.org/2000/svg" xmlns:xlink="http://www.w3.org/1999/xlink" x="0px" y="0px"
	 width="200px" height="200px" viewBox="0 0 200 200" enable-background="new 0 0 200 200" xml:space="preserve">
<g>
	<path d="M74.351,15.212h0.463c2.879,0,5.604,4.115,8.176,12.341c10.953,0,19.231,2.52,24.837,7.559l15.118,2.545
		c2.57-3.29,5.656-4.937,9.256-4.937c4.37,0,6.967,2.726,7.79,8.176l-0.385,4.165c8.896,6.737,16.892,14.578,23.988,23.525
		c5.45,0.721,8.176,3.163,8.176,7.328c-0.412,2.88-1.492,5.322-3.239,7.328c3.188,10.953,4.782,20.749,4.782,29.388v3.702
		l-0.694,10.182c1.593,1.697,2.391,3.625,2.391,5.785v1.08c0,2.88-2.16,5.117-6.479,6.71c0,4.732-3.806,11.365-11.416,19.9
		l-10.644,9.024h-0.386c-3.446-3.6-6.968-5.399-10.567-5.399c-1.337,0.617-2.005,1.208-2.005,1.774v2.391l0.231,4.474
		c0,2.314-2.443,3.907-7.328,4.782c-8.074,2.468-16.583,3.702-25.531,3.702c-3.703,0-8.074-0.36-13.113-1.08
		c-3.754,4.011-7.302,6.017-10.644,6.017h-2.314c-4.937-1.132-7.405-5.246-7.405-12.342c0-1.131-1.852-2.854-5.554-5.167
		c-9.41-7.611-15.324-13.73-17.741-18.358l-5.63,0.849h-2.777c-5.194-0.874-7.791-2.957-7.791-6.248v-1.08
		c0-3.907,2.879-7.584,8.639-11.03c-3.343-8.947-5.143-17.509-5.399-25.685c-9.514-1.593-14.27-4.756-14.27-9.487v-1.08
		c0-5.502,4.319-8.896,12.958-10.182h2.623l-0.463-4.088c0-12.7,3.24-24.579,9.719-35.635v-0.231
		c-5.194-4.628-7.79-8.458-7.79-11.493v-0.386c0-2.16,1.362-3.239,4.088-3.239c2.777,0,6.89,2.16,12.341,6.479
		c6.067-4.062,12.7-7.173,19.9-9.333L69.8,24.313C69.8,18.247,71.316,15.212,74.351,15.212z M87.309,62.957l-6.479-0.848
		c-13.112,0-25.712,3.677-37.795,11.03c-4.165,4.011-6.248,9.179-6.248,15.504c-0.721,3.035-1.234,8.073-1.542,15.118
		c0,27.409,11.158,48.877,33.476,64.406c10.953,6.221,22.342,9.333,34.17,9.333c9.461,0,18.512-1.749,27.151-5.245
		c0-25.35-9.36-53.35-28.077-83.998c-1.851,0.978-4.294,1.465-7.328,1.465c-7.045,0-11.493-3.728-13.344-11.184v-0.463
		c0-5.193,3.24-8.998,9.719-11.416l3.239-0.463h1.697c8.33,1.132,12.496,4.937,12.496,11.416l0.462,0.463
		c-0.308,2.623-1.388,5.22-3.239,7.791c20.62,25.505,33.655,51.576,39.106,78.212c0,0.874,0.282,1.312,0.849,1.312
		c16.3-11.827,24.451-28.821,24.451-50.985c0-27.099-10.876-49.005-32.627-65.717c-11.416-7.044-22.01-10.567-31.779-10.567
		c-7.508,3.6-13.344,11.082-17.509,22.445L87.309,62.957z M40.412,60.566v4.32c2.16-0.154,5.477-2.031,9.95-5.631l-0.463-3.24
		c0-2.879,1.748-8.689,5.245-17.432C45.322,45.166,40.412,52.494,40.412,60.566z M60.929,88.257c6.375,0,10.284,4.757,11.724,14.27
		v0.386c-1.44,9.514-5.914,14.27-13.421,14.27c-5.349,0-9.308-3.521-11.878-10.567l-0.231-3.24v-1.311
		c0-6.479,3.394-11.081,10.182-13.807H60.929z M94.02,115.484c6.89,0,11.493,3.317,13.807,9.95v2.777
		c-1.749,7.354-6.146,11.03-13.19,11.03H94.02c-7.2,0-11.597-3.676-13.19-11.03v-1.697C82.577,119.162,86.974,115.484,94.02,115.484
		z M94.636,151.737h0.849c5.193,1.029,7.791,3.471,7.791,7.328v1.312c-0.978,4.937-3.42,7.405-7.328,7.405h-1.312
		c-4.165,0-6.762-2.751-7.79-8.253C88.183,154.334,90.78,151.737,94.636,151.737z M131.352,51.927
		c6.942,0,11.852,3.96,14.732,11.878v3.24c0,4.886-3.523,7.688-10.567,8.407c-9.822-1.697-14.732-6.582-14.732-14.655
		C120.784,55.913,124.306,52.957,131.352,51.927z M142.381,86.483c6.222,0,9.744,4.68,10.567,14.038
		c-1.44,7.817-4.809,11.724-10.104,11.724h-1.774c-5.04,0-8.28-3.83-9.719-11.493v-3.24
		C132.945,90.16,136.622,86.483,142.381,86.483z M158.811,117.182c2.57,0,4.293,2.314,5.167,6.942v3.24
		c-1.851,10.079-5.657,15.118-11.416,15.118c-3.445,0-5.477-3.033-6.093-9.102c0-7.456,3.394-12.854,10.181-16.198H158.811z"/>
</g>
</svg>
