<?xml version="1.0" encoding="utf-8"?>
<!-- Generator: Adobe Illustrator 17.0.0, SVG Export Plug-In . SVG Version: 6.00 Build 0)  -->
<!DOCTYPE svg PUBLIC "-//W3C//DTD SVG 1.1//EN" "http://www.w3.org/Graphics/SVG/1.1/DTD/svg11.dtd">
<svg version="1.1" id="Layer_1" xmlns="http://www.w3.org/2000/svg" xmlns:xlink="http://www.w3.org/1999/xlink" x="0px" y="0px"
	 width="200px" height="200px" viewBox="0 0 200 200" enable-background="new 0 0 200 200" xml:space="preserve">
<g>
	<g>
		<path d="M186.312,29.837c0,13.406-9.566,28.239-28.69,44.505c10.54,13.254,15.813,28.238,15.813,44.956
			c0,6.929-1.581,15.965-4.744,27.109c-4.066,13.857-8.584,20.783-13.555,20.783c-1.959,0-3.918-1.277-5.874-3.841
			c-13.103,15.062-29.594,22.592-49.474,22.592c-20.032,0-36.598-7.529-49.7-22.592c-1.959,2.563-3.918,3.841-5.874,3.841
			c-4.97,0-9.488-6.926-13.555-20.783c-3.163-11.145-4.744-20.181-4.744-27.109c0-16.718,5.271-31.702,15.814-44.956
			c-19.128-16.266-28.69-31.099-28.69-44.505c0-8.281,4.066-15.21,12.199-20.783c5.119-3.463,10.088-5.196,14.91-5.196
			c10.692,0,20.332,8.358,28.917,25.076c4.519,8.888,8.133,18.299,10.844,28.238c6.326-1.955,12.951-2.937,19.88-2.937
			c6.777,0,13.329,0.981,19.654,2.937c2.711-9.939,6.326-19.351,10.844-28.238c8.585-16.718,18.221-25.076,28.917-25.076
			c4.818,0,9.789,1.733,14.91,5.196C182.245,14.627,186.312,21.556,186.312,29.837z M67.031,62.82
			C56.787,39.325,47.829,27.578,40.147,27.578c-4.37,0-6.551,2.485-6.551,7.455c0,8.133,6.551,20.936,19.654,38.404
			C57.317,69.371,61.909,65.835,67.031,62.82z M150.392,143.375v-1.585c0-16.312-4.596-27.868-13.78-34.667
			c-7.833-5.739-20.184-8.609-37.049-8.609c-16.717,0-28.994,2.947-36.823,8.835c-9.188,6.65-13.781,18.13-13.781,34.441v1.585
			c4.667,9.968,11.557,17.899,20.671,23.791c9.11,5.892,19.164,8.835,30.159,8.835c11.144,0,21.197-2.905,30.159-8.723
			C138.906,161.465,145.722,153.498,150.392,143.375z M77.197,130.593c0,4.971-2.562,7.455-7.681,7.455
			c-4.97,0-7.455-2.484-7.455-7.455c0-5.118,2.485-7.681,7.455-7.681c2.107,0,3.915,0.756,5.422,2.259
			C76.441,126.679,77.197,128.485,77.197,130.593z M128.027,147.311c-6.025,11.599-15.514,17.395-28.465,17.395
			c-12.803,0-22.217-5.796-28.239-17.395H128.027z M137.515,130.593c0,4.971-2.563,7.455-7.681,7.455
			c-4.97,0-7.455-2.484-7.455-7.455c0-5.118,2.485-7.681,7.455-7.681c2.107,0,3.915,0.756,5.422,2.259
			C136.76,126.679,137.515,128.485,137.515,130.593z M164.624,35.033c0-4.97-2.185-7.455-6.551-7.455
			c-7.533,0-16.417,11.599-26.657,34.79c5.118,2.862,9.862,6.325,14.232,10.392C158.299,55.742,164.624,43.166,164.624,35.033z"/>
	</g>
</g>
</svg>
