<?xml version="1.0" encoding="utf-8"?>
<!-- Generator: Adobe Illustrator 17.0.0, SVG Export Plug-In . SVG Version: 6.00 Build 0)  -->
<!DOCTYPE svg PUBLIC "-//W3C//DTD SVG 1.1//EN" "http://www.w3.org/Graphics/SVG/1.1/DTD/svg11.dtd">
<svg version="1.1" id="Layer_1" xmlns="http://www.w3.org/2000/svg" xmlns:xlink="http://www.w3.org/1999/xlink" x="0px" y="0px"
	 width="200px" height="200px" viewBox="0 0 200 200" enable-background="new 0 0 200 200" xml:space="preserve">
<g>
	<path d="M101.982,5.632c3.618,0.717,5.94,1.587,6.965,2.612c1.468-0.887,2.629-1.332,3.482-1.332h0.87
		c2.901,0.41,4.354,1.861,4.354,4.353h0.87c5.224,0,7.835,1.895,7.835,5.684V19.1l-0.461,0.871c5.053,0,8.092,2.168,9.116,6.504
		v2.612c2.458,0,4.199,1.895,5.223,5.684c0,2.595-1.16,3.892-3.481,3.892l0.461,0.871v3.021c0,2.561-1.741,4.882-5.224,6.964
		l0.409,4.353v2.151h0.461c8.774-6.077,14.561-9.116,17.36-9.116h4.813c3.756,0.751,5.634,2.356,5.634,4.814
		c0,1.264-2.322,2.561-6.965,3.892c-2.015,8.058-5.053,14.288-9.115,18.692c-2.322,1.741-4.063,2.611-5.224,2.611h-2.611
		c-1.946,0-5.121-1.313-9.525-3.943l-0.461,0.871v0.871c0,4.37,1.45,7.271,4.353,8.706h1.741c0.58-3.755,2.458-5.633,5.634-5.633
		h1.331c1.57,0,2.73,0.717,3.482,2.151v1.741c0,2.253-2.032,4.285-6.094,6.094l-2.612-0.461
		c-5.258,6.692-12.068,10.037-20.433,10.037h-3.482v0.41c1.741,1.775,2.611,3.226,2.611,4.353c3.653-2.321,7.426-3.482,11.317-3.482
		c4.165,0,7.341,2.902,9.525,8.706c0.308,2.561,0.461,4.148,0.461,4.763c0,1.195-0.581,3.227-1.741,6.094
		c1.16,3.209,1.741,5.087,1.741,5.633c0,2.732-1.314,4.763-3.943,6.094c0.308,1.536,0.461,2.407,0.461,2.612
		c-1.365,3.175-2.816,4.763-4.353,4.763c0,0.239,0.153,1.109,0.461,2.611c0,2.083-1.451,4.268-4.353,6.555v0.41l0.409,2.612
		c0,2.663-1.008,4.984-3.021,6.964c3.106,19.391,5.854,29.087,8.245,29.087c4.711-2.015,7.459-3.021,8.245-3.021h1.331
		c3.857,0,7.612,1.741,11.267,5.223c0.58,0.956,0.87,1.826,0.87,2.612c0,0.41-0.427,0.836-1.28,1.28
		c-4.541-0.273-7.869-0.41-9.985-0.41c0.58,0.922,0.87,1.792,0.87,2.612c0,0.648-1.451,1.211-4.353,1.69l-4.354-0.41h-0.87
		c-4.302,0-10.089,0.136-17.36,0.41c-0.922-1.024-1.656-2.168-2.202-3.431l0.461-3.073v-3.482c0-0.273-0.153-0.41-0.461-0.41
		l0.461-0.871c-0.889-15.637-2.339-23.454-4.353-23.454c-1.64,0-2.954-1.895-3.943-5.685c0.307,0,0.461-0.137,0.461-0.41
		c-2.254,0-3.995-0.734-5.224-2.202c-3.449,3.516-7.802,6.708-13.059,9.576c0,0.683-0.428,1.553-1.28,2.612v0.871
		c1.672,0,2.97,1.877,3.892,5.633v1.741c0,2.526-2.168,4.421-6.504,5.685v0.41h0.871c1.434-0.854,2.594-1.28,3.482-1.28h4.353
		c5.94,0,11.3,2.014,16.08,6.043v1.331c-0.444,0-1.024,0.29-1.741,0.871h-2.202l-3.021-0.461v0.461
		c-0.546-0.307-0.973-0.461-1.28-0.461H97.22v0.461c0.922,0,2.663,1.741,5.224,5.224v1.741c0,1.502-2.611,2.509-7.835,3.021
		c-16.524-1.161-26.51-2.032-29.958-2.612c-4.37-0.205-6.555-0.922-6.555-2.151h-0.871c-2.458,0-4.916-1.452-7.374-4.353
		c0,0.478-0.871,1.058-2.611,1.741c-2.118,0-3.995-1.452-5.634-4.353c0.58-1.059,0.871-2.219,0.871-3.482v-0.461
		c-4.063,0-6.095-2.168-6.095-6.504c0-1.673,1.451-4.131,4.354-7.374l-1.741-2.202v-3.021c0.819-4.644,2.116-6.965,3.892-6.965
		c-0.854-3.653-1.28-7.118-1.28-10.396c0-3.175,0.58-6.23,1.741-9.167c-2.902-1.297-4.353-3.892-4.353-7.784
		c-2.049,0-3.21-1.604-3.482-4.813c0-1.537,1.588-2.987,4.763-4.353c1.229-3.448,3.124-5.172,5.685-5.172
		c1.467,0,3.208,0.581,5.223,1.741c0-0.75,1.298-1.332,3.893-1.741c2.901,1.229,4.353,2.816,4.353,4.763v0.41
		c-0.581,2.083-0.87,3.244-0.87,3.482c1.092,0.512,2.1,2.117,3.021,4.813c0,3.995-1.741,6.589-5.224,7.784
		c-0.513,0.307-1.094,0.461-1.741,0.461h-1.741c-1.708-0.308-3.005-0.461-3.893-0.461c-0.58,3.414-0.87,5.889-0.87,7.425
		c0,2.834,1.16,5.718,3.482,8.655c2.15-2.015,5.052-3.021,8.706-3.021c1.364,0,2.952,1.006,4.762,3.021
		c6.931-5.906,11.283-10.976,13.059-15.209c-1.468-0.717-2.201-2.014-2.201-3.892c0.341-2.936,1.364-5.257,3.072-6.965
		c-0.581-0.682-1.024-2.133-1.331-4.353c0.067-0.99,1.519-2.868,4.353-5.633c0.308-1.741,0.461-3.038,0.461-3.892
		c-2.63-1.126-3.943-3.311-3.943-6.555c0.308-0.478,0.597-2.202,0.87-5.172h-1.28c-5.223-1.979-7.835-5.172-7.835-9.576
		c0-0.888-0.153-1.332-0.461-1.332l0.461-0.871v-1.741l-4.763-3.021c-0.888-1.775-1.331-2.936-1.331-3.482
		c0.308-2.048,0.461-3.208,0.461-3.482c-2.63-1.4-3.943-3.995-3.943-7.784v-3.943c-2.595-0.375-3.892-1.672-3.892-3.892v-1.741
		c1.263-1.741,1.979-2.612,2.15-2.612c-1.161-1.946-1.878-4.114-2.15-6.504c1.911-6.691,4.369-10.037,7.374-10.037v-0.41
		c-1.161-1.536-1.741-3.124-1.741-4.763v-0.461c0-3.175,2.031-5.633,6.094-7.374c0-5.052,3.192-8.671,9.576-10.857h1.28
		c1.059,0,2.356,0.581,3.893,1.741c0.989-3.208,3.602-4.813,7.835-4.813c0.683,0,1.844,0.444,3.482,1.332
		C94.608,9.251,97.066,6.93,101.982,5.632z M37.253,123.416v1.28l2.15,0.461c0.58,0,0.871-0.29,0.871-0.871v-0.461l-1.28,0.871
		l-1.332-1.741c0.034-0.41,0.615-1.126,1.741-2.15l2.202,1.28h0.41c0-0.443-0.581-1.024-1.741-1.741
		C38.26,120.343,37.253,121.367,37.253,123.416z M38.533,174.268c0.307,0.478,0.461,1.058,0.461,1.741h0.409
		c0-3.039,1.604-5.07,4.814-6.094c2.082,0.58,3.669,1.741,4.762,3.482c0,1.979-1.298,3.431-3.892,4.353
		c-1.331-0.581-2.066-1.161-2.202-1.741v-0.461l0.461-2.151h1.28c0.58,0.068,0.871,0.358,0.871,0.871c-0.854,0-1.28,0.29-1.28,0.871
		l1.741,0.871l0.87-1.332v-1.741c-0.512,0-1.247-0.291-2.202-0.871c-2.015,0-3.021,1.16-3.021,3.482v0.461
		c0,2.287,1.16,3.431,3.482,3.431h1.741c3.175-2.595,4.763-4.899,4.763-6.914v-1.741c-1.332-2.322-3.5-3.482-6.504-3.482
		C40.718,168.463,38.533,170.785,38.533,174.268z M41.605,127.769v1.741c0,1.536,0.58,2.543,1.741,3.021h2.151l2.201-0.461v-0.819
		l-2.611,0.819c-1.195-0.375-2.066-1.092-2.611-2.151v-0.871c0-1.57,0.58-2.577,1.741-3.021h0.87
		c0.58,0.069,0.871,0.358,0.871,0.871v0.871c-1.161,0-1.741,0.427-1.741,1.28c0.272,0.581,0.409,1.024,0.409,1.332
		c2.049,0,3.072-1.314,3.072-3.943c-1.331-1.741-2.646-2.612-3.942-2.612C42.902,123.825,42.185,125.14,41.605,127.769z
		 M44.218,155.576v0.41c1.502,0,2.799,0.871,3.892,2.612c0,2.321-1.451,3.636-4.353,3.943l-1.28-1.741
		c0.443-1.161,0.87-1.741,1.28-1.741h0.87v0.41c-0.273,0.58-0.409,1.024-0.409,1.332h0.87c0.41,0,0.836-0.444,1.28-1.332
		c-0.581-1.161-1.298-1.741-2.15-1.741c-1.741,0.717-2.612,2.031-2.612,3.943v0.41c0,2.014,1.16,3.021,3.482,3.021h0.871
		c2.594-1.946,3.892-4.25,3.892-6.914v-0.461c0-1.536-0.581-2.543-1.741-3.021h-0.87L44.218,155.576z M42.886,117.731v0.461
		c0,2.595,1.16,3.892,3.482,3.892c2.321-0.341,3.482-0.922,3.482-1.741l-3.021,0.461h-0.461c-2.015,0-3.021-1.024-3.021-3.073
		c0.717-1.707,1.724-2.561,3.021-2.561c1.16,0.956,1.741,1.81,1.741,2.561l-0.87,0.461l-1.741-1.332
		c-0.581,0.103-0.871,0.393-0.871,0.871v0.871l2.202,0.461h1.28c0.409,0,0.853-0.443,1.331-1.332v-2.151
		c-0.479,0-1.059-0.29-1.741-0.871h-1.74C43.91,114.71,42.886,115.717,42.886,117.731z M45.498,134.682
		c-0.854,3.072-1.28,4.967-1.28,5.684v5.224c0,1.332,0.289,3.636,0.87,6.914h1.28c0.717,0,2.031,0.29,3.943,0.87v-0.41
		c-2.63-4.336-3.943-8.245-3.943-11.727c0.308-3.653,0.461-5.838,0.461-6.555H45.498z M44.218,182.513v3.482l2.15,0.41h0.461
		l2.15-0.41v-2.612c0-0.581-0.427-0.87-1.28-0.87h-0.87v0.41c1.16,0,1.741,0.29,1.741,0.871c0,0.478-0.581,1.058-1.741,1.741h-0.461
		c-0.273,0-0.854-0.581-1.741-1.741l0.461-0.871v-1.28C44.507,181.744,44.218,182.034,44.218,182.513z M48.109,123.416v0.41
		l0.461,0.871c1.16-0.443,1.741-0.871,1.741-1.28v-0.461C49.799,123.262,49.064,123.416,48.109,123.416z M49.85,128.639v1.741
		c0,0.41,0.87,1.126,2.611,2.151h1.741c3.176-0.75,4.763-1.912,4.763-3.482v-0.41h-0.409c0,2.015-1.605,3.021-4.814,3.021
		C52.547,131.32,51.25,130.312,49.85,128.639z M50.72,163.821v0.41c1.024,3.79,2.901,5.684,5.634,5.684h1.331
		c1.775,0,3.362-1.024,4.763-3.072v-1.28c0-1.503-0.428-2.374-1.28-2.612c-1.639,3.482-3.533,5.223-5.685,5.223
		c-0.922,0-2.083-1.161-3.482-3.482c0.41-1.196,1.144-2.066,2.202-2.612h2.612c0.443,0,0.87,0.58,1.28,1.741
		c-0.274,0-0.41,0.136-0.41,0.41l-2.202-0.41h-1.28v0.871c0,0.41,0.427,0.836,1.28,1.28c1.604,0,2.766-0.717,3.482-2.151v-1.28
		c0-0.41-0.87-1.28-2.611-2.612h-2.151C51.881,160.202,50.72,161.499,50.72,163.821z M56.354,176.879v3.021
		c0,1.604,0.87,2.901,2.611,3.892h1.741c1.468-0.717,2.202-1.878,2.202-3.482c0-0.854-0.444-1.998-1.331-3.431
		c-1.435,0.341-2.151,0.768-2.151,1.28v2.151h0.41c0.136-1.127,0.58-1.69,1.331-1.69h0.41c0,0.545,0.153,0.819,0.461,0.819
		c0,0.955-1.024,1.979-3.073,3.073c-1.161-0.308-1.741-1.178-1.741-2.612c0-3.175,1.451-4.763,4.354-4.763
		c2.321,0.478,3.481,2.202,3.481,5.172v0.461c-0.751,3.482-2.492,5.223-5.223,5.223c-3.449,0-5.479-3.329-6.095-9.986h-0.409
		c-1.435,2.424-2.151,4.302-2.151,5.633v1.741c1.229,4.062,3.243,6.094,6.043,6.094c6.384-2.083,9.576-5.565,9.576-10.447v-1.28
		c0-2.356-1.878-4.541-5.633-6.555h-1.741C57.379,172.458,56.354,174.353,56.354,176.879z M51.592,126.898
		c0.58,1.741,1.16,2.612,1.741,2.612h3.021c0.58-2.185,0.87-3.346,0.87-3.482c-0.273-0.58-0.409-1.024-0.409-1.332h-2.202v0.461
		l0.87,1.28v0.871h-1.28c-1.161-0.58-1.741-1.297-1.741-2.151c0.41-1.467,1.417-2.202,3.021-2.202v-0.41h-1.28
		C52.462,122.819,51.592,124.27,51.592,126.898z M52.001,116.861c1.093-0.58,2.254-0.871,3.482-0.871l1.332,2.202l-0.871,0.41
		l-1.331-0.871h-0.871v0.871c0.103,0.581,0.393,0.871,0.871,0.871h1.741c0.887-0.273,1.331-1.144,1.331-2.612
		c0-0.375-0.734-1.092-2.202-2.151h-2.15C52.683,114.71,52.24,115.427,52.001,116.861z M59.427,149.021
		c0.854,1.058,1.28,2.082,1.28,3.073c0,1.946-1.008,3.396-3.021,4.353c-2.629-0.717-3.943-1.451-3.943-2.202v-1.28
		c0.137-0.614,0.871-1.195,2.202-1.741c1.16,0.443,1.741,0.871,1.741,1.28c-0.479,0.307-1.212,0.46-2.202,0.46v0.41
		c0,0.581,0.871,1.024,2.612,1.332l0.461-0.871v-2.611c0-0.888-1.605-1.332-4.814-1.332l-1.28,1.741v3.072
		c0,0.341,1.007,1.058,3.021,2.151h2.202c2.321,0,4.062-1.298,5.224-3.892v-0.87c0-1.571-0.581-2.595-1.741-3.073H59.427z
		 M58.556,48.648c0,2.458,0.87,4.199,2.611,5.224h4.353c3.176,0,4.763-1.587,4.763-4.763l0.41-3.073
		c-0.41-1.741-2.134-2.611-5.173-2.611c-2.048,0.854-3.072,2.168-3.072,3.943v2.612l2.202,0.41c1.707,0,2.561-1.297,2.561-3.892
		l-0.819-0.461H65.52c-0.239,1.469-0.683,2.202-1.331,2.202h-0.871v-1.741c0-0.512,1.024-1.382,3.073-2.611
		c1.058,0,1.911,1.298,2.561,3.892c-0.752,2.902-2.186,4.353-4.302,4.353c-2.63,0-3.943-1.16-3.943-3.482v-1.28
		c0.99-3.79,2.731-5.684,5.224-5.684c2.491,0.581,4.523,1.451,6.094,2.612v-1.741c-1.195-1.741-2.646-2.612-4.353-2.612H65.52
		C60.878,41.104,58.556,44.006,58.556,48.648z M58.556,57.764v1.741c0,0.41,0.426,0.854,1.28,1.331h1.741
		c0.58,0,0.87-0.29,0.87-0.871v-0.46l-0.409-0.871l-2.202,0.461h-0.41v-0.871c0.272-0.888,1.144-1.332,2.612-1.332l2.15,1.332
		l1.741-2.202l-2.612-0.41C60.759,55.613,59.171,56.33,58.556,57.764z M62.039,65.599c0,5.224,2.167,7.835,6.503,7.835
		c1.81,0,3.26-1.314,4.354-3.943V66.47c0-1.57-0.735-2.731-2.202-3.482h-1.741c-2.595,0-3.893,1.161-3.893,3.482
		c0,1.571,0.58,2.578,1.741,3.021h0.871c0.443,0,1.024-0.563,1.741-1.69v-0.871c-1.469,0-2.202-0.29-2.202-0.871
		c0-0.238,0.443-0.683,1.331-1.332c1.332,0.581,2.049,1.161,2.151,1.741v1.332c-0.376,2.595-1.674,3.892-3.893,3.892h-0.409
		c-1.093,0-2.117-1.877-3.073-5.633c1.332-3.482,3.209-5.224,5.634-5.224v-0.46c-0.581-2.151-0.871-3.448-0.871-3.892
		C64.053,59.83,62.039,62.868,62.039,65.599z M62.448,158.188v1.28c0,1.604,0.87,2.901,2.611,3.892h1.332
		c0.546,0,0.819-0.274,0.819-0.819v-0.461c-1.844,0-2.988-1.298-3.432-3.892c0-3.107,1.588-5.139,4.763-6.094
		c2.049,0,3.637,1.451,4.763,4.353c-0.205,2.321-1.365,3.482-3.482,3.482h-0.409c-1.571,0-2.578-0.581-3.021-1.741v-0.461
		c0-0.444,0.563-1.024,1.689-1.741h0.871l-0.41,2.202h2.151c0.58,0,0.87-0.444,0.87-1.332c-0.376-1.195-1.093-2.066-2.15-2.612
		h-1.741c-0.444,0-1.024,0.581-1.741,1.741v3.073c0,0.75,1.16,1.332,3.482,1.741h1.28c3.482-0.41,5.224-1.725,5.224-3.943
		c-0.991-3.482-2.732-5.223-5.224-5.223h-1.741C65.333,152.35,63.165,154.534,62.448,158.188z M64.65,189.477
		c-0.581-0.307-1.024-0.461-1.332-0.461v1.332h2.202c0.58,0,0.871-0.291,0.871-0.871v-0.871
		C65.675,189.187,65.094,189.477,64.65,189.477z M64.189,31.288v2.151c0,2.595,1.297,3.892,3.892,3.892
		c0.58-0.273,1.024-0.41,1.332-0.41V34.31l-0.871,0.461h-1.741c-0.409,0-0.837-0.443-1.28-1.332v-1.28
		c0-0.443,0.427-0.887,1.28-1.332h0.871l-0.461,2.202v0.41h0.461c0.375,0,1.092-0.717,2.15-2.151v-2.202l-0.87-1.28
		C66.869,27.806,65.281,28.967,64.189,31.288z M65.52,77.787c0.683,2.595,2.271,3.892,4.763,3.892c0.58,0,0.871-0.426,0.871-1.28
		c0-0.785-1.024-1.365-3.073-1.741v-0.871c0-0.478,1.024-0.921,3.073-1.332v-1.28h-0.461C67.244,75.176,65.52,76.046,65.52,77.787z
		 M65.93,168.583v0.87c0,3.039,1.588,5.224,4.763,6.555h0.87c1.844,0,3.585-1.161,5.224-3.482v-0.461
		c0-2.902-1.161-4.353-3.482-4.353h-1.28c-0.409,0-1.145,0.733-2.202,2.202c0.238,2.014,0.974,3.021,2.202,3.021
		c1.16-0.444,1.741-0.871,1.741-1.28v-0.871l-2.202,0.41v-1.28c0.205,0,1.075-0.291,2.612-0.871c1.16,1.263,1.741,1.98,1.741,2.151
		c-0.854,2.321-2.305,3.482-4.354,3.482c-2.322-1.195-3.482-2.493-3.482-3.892c0.308-3.482,2.202-5.223,5.685-5.223
		c0-1.741-0.87-2.612-2.611-2.612C68.422,162.95,66.68,164.827,65.93,168.583z M67.211,186.404c0,0.546,1.024,1.417,3.072,2.612
		c4.062-0.581,6.095-2.032,6.095-4.353v-0.87c0-2.015-1.024-3.021-3.073-3.021h-0.409c-0.41,0-1.145,0.717-2.202,2.151v1.741
		c0.103,0.581,0.392,0.871,0.87,0.871h0.461c0.58,0,0.871-0.29,0.871-0.871c-0.308-0.512-0.461-1.093-0.461-1.741l0.87-0.41h1.332
		l0.409,2.15v0.461c-0.479,1.161-1.485,1.741-3.021,1.741h-1.741c-0.444,0-1.024-0.581-1.741-1.741c0-3.584,1.878-5.753,5.634-6.503
		c2.116,1.126,3.431,1.69,3.942,1.69v-0.871c0-0.444-0.58-1.007-1.74-1.69h-2.612c-3.209,0-5.395,2.748-6.555,8.245V186.404z
		 M70.693,190.757l-2.612-0.41h-0.409v0.871h2.15l24.786,1.741h0.87c3.176,0,4.763-0.444,4.763-1.332
		c-2.287-2.902-4.302-4.353-6.043-4.353C85.22,187.275,77.384,188.435,70.693,190.757z M80.269,136.423
		c-0.684,2.355-4.592,6.708-11.728,13.059c5.053,0,8.092,2.321,9.116,6.964v1.741h2.611c1.058,0,2.355,0.58,3.892,1.741h0.871
		c2.73-1.571,6.657-4.916,11.778-10.037h-3.482c-2.902,0-4.797-2.458-5.685-7.375v-2.612l0.461-0.871
		C87.558,139.035,84.946,138.164,80.269,136.423z M69.822,58.225c0,1.605,1.024,2.902,3.073,3.892h1.741
		c0.375,0,1.092-0.717,2.15-2.151v-0.87c0-1.468-0.581-2.338-1.741-2.612l-2.15,0.41v1.332h2.611v0.41
		c0,0.479-0.581,1.059-1.741,1.741c-1.434-0.751-2.168-1.332-2.202-1.741v-1.28c0.546-1.468,1.86-2.202,3.943-2.202v-0.41
		l-2.202-0.461h-1.28C70.556,55.033,69.822,56.348,69.822,58.225z M70.283,26.065c0.888,0.581,1.896,1.007,3.021,1.28
		c4.37-0.615,6.555-1.775,6.555-3.482c0.273-0.478,0.41-1.195,0.41-2.151c-0.273-1.16-1.145-1.741-2.611-1.741
		c-1.571,0-2.732,0.717-3.482,2.151v0.871c0.103,0.581,0.392,0.871,0.87,0.871h0.461l1.741-2.561l0.87,1.28v1.28
		c-0.479,1.161-1.502,1.741-3.072,1.741h-0.87c-0.752,0-1.332-1.16-1.741-3.482c1.126-2.868,3.021-4.302,5.684-4.302
		c1.673,0,2.971,1.298,3.893,3.892c0.58,0,0.87-0.29,0.87-0.871v-0.871c0-2.321-1.161-3.482-3.482-3.482h-0.409
		C74.14,16.488,71.239,19.681,70.283,26.065z M71.154,34.771v0.871c0,3.244,2.747,5.121,8.244,5.633
		c0.546,0,2.424-1.588,5.634-4.763c0-0.58-0.291-0.871-0.871-0.871h-0.409c0,2.288-2.032,4.012-6.094,5.172
		c-3.482-1.024-5.224-2.748-5.224-5.172c0.683-2.901,2.133-4.353,4.353-4.353c2.629,0.888,3.943,2.339,3.943,4.353
		c-0.581,1.298-1.161,2.015-1.741,2.151h-1.741c-0.444,0-0.888-0.426-1.331-1.28V35.18c0.102-0.58,0.392-0.871,0.87-0.871h0.461
		v1.741h1.741V33.9l-2.202-0.461h-0.87c-0.444,0-1.024,0.581-1.741,1.741v1.332c0.478,1.126,1.502,1.69,3.072,1.69h2.611
		c1.195-0.615,2.202-1.912,3.021-3.892c-1.059-3.482-3.226-5.223-6.503-5.223h-0.461C73.492,29.086,71.904,30.981,71.154,34.771z
		 M72.895,83.011c-0.581,0.922-0.871,1.775-0.871,2.561v2.612c0.854,5.223,3.175,7.835,6.965,7.835h3.021
		c2.594-0.375,3.892-1.672,3.892-3.892v-2.202c-1.4-2.014-3.567-3.021-6.504-3.021c-1.365,0-2.526,0.871-3.481,2.612
		c0.784,2.322,2.525,3.482,5.223,3.482v-2.202c-1.741,0-2.611-0.29-2.611-0.871c0-0.41,0.58-0.836,1.741-1.28
		c2.014,0.854,3.021,2.151,3.021,3.892c0,1.4-1.298,2.271-3.893,2.612c-1.365,0-2.953-1.451-4.762-4.353v-1.28
		c0-1.161,0.87-2.612,2.611-4.353L72.895,83.011z M72.434,50.39c1.023,1.741,2.338,2.612,3.943,2.612v-0.41
		c-2.049-2.526-3.073-4.421-3.073-5.685c0-2.014,2.031-3.021,6.094-3.021v-0.461c-2.015,0-3.021-0.136-3.021-0.41
		c-2.63,0.546-3.943,2.578-3.943,6.094V50.39z M72.434,76.917v0.41c1.16,4.063,3.055,6.094,5.684,6.094h1.741
		c3.756,0,5.634-1.587,5.634-4.763c-0.786-1.946-1.656-3.106-2.612-3.482h-0.409l0.409,0.87v1.28c0,2.663-1.298,4.558-3.892,5.685
		c-2.151-0.58-3.603-1.604-4.353-3.073v-1.28c0.204-2.901,1.075-4.353,2.611-4.353c2.014,0.751,3.021,2.202,3.021,4.353l-1.28,0.871
		h-0.461c0-0.887-0.137-1.912-0.41-3.073h-0.87c-0.581,0.103-0.87,0.393-0.87,0.871v1.741c0,0.751,1.16,1.332,3.481,1.741
		c0.956-1.741,1.537-2.612,1.741-2.612c-0.888-3.755-1.912-5.633-3.072-5.633h-1.741C73.885,72.94,72.434,74.391,72.434,76.917z
		 M75.507,69.082l1.28,0.871h2.611v-1.741c-1.298,0-2.168-0.29-2.611-0.871c0-0.853,0.443-1.28,1.331-1.28v-1.332
		c0-0.58-0.29-0.871-0.87-0.871C76.087,63.858,75.507,65.599,75.507,69.082z M75.917,163.36v0.871c0,1.741,0.87,2.612,2.611,2.612
		v-0.41l-1.741-3.073c0.58-1.708,1.16-2.561,1.741-2.561h1.331c0.41,0,0.837,0.426,1.28,1.28c-0.512,0.307-1.093,0.461-1.741,0.461
		v0.41c0,0.41,0.443,0.836,1.332,1.28c0.409,0,0.836-0.427,1.28-1.28v-1.28c0-0.786-1.008-1.366-3.021-1.741
		C76.94,160.509,75.917,161.652,75.917,163.36z M76.787,46.498v1.28c1.365,2.322,3.396,3.482,6.094,3.482
		c-0.956-3.482-2.253-5.224-3.892-5.224L76.787,46.498z M78.118,130.79v1.28c0.718,1.468,1.878,2.202,3.482,2.202h1.69
		c2.287,0,3.892-0.871,4.813-2.612v-1.741c0-2.014-1.604-3.021-4.813-3.021c-0.547,0.684-0.819,1.264-0.819,1.741
		c0.409,1.161,0.836,1.741,1.28,1.741h1.28c0-0.887,0.289-1.332,0.87-1.332h0.461v1.741c0,0.307-0.581,0.888-1.741,1.741
		c-2.595-0.99-3.892-2.44-3.892-4.353c0-1.877,1.297-3.038,3.892-3.482c3.756,0.479,5.634,2.374,5.634,5.685h0.461
		c0,1.673-1.741,3.687-5.224,6.043h2.15c4.643-1.229,6.965-3.106,6.965-5.633c0-2.766-2.902-5.086-8.706-6.965h-2.15
		C80.644,123.825,78.766,126.147,78.118,130.79z M78.989,184.663c0,0.308-0.153,0.751-0.461,1.332
		c0.443-0.307,1.313-0.461,2.611-0.461v-0.41L78.989,184.663z M78.989,120.343c0.409,1.161,0.836,1.741,1.28,1.741
		c1.741-0.273,2.611-0.7,2.611-1.28c-0.273-0.581-0.409-1.024-0.409-1.332h-0.461c0,0.888-0.291,1.332-0.871,1.332
		s-0.87-0.29-0.87-0.871v-0.461c1.16-1.468,1.741-2.338,1.741-2.612h-1.28C79.911,116.861,79.33,118.022,78.989,120.343z
		 M79.398,54.282v0.461c0,8.365,2.901,15.893,8.706,22.583c2.424,1.741,5.462,2.612,9.115,2.612h0.871
		c8.944,0,16.046-2.458,21.304-7.374l5.223-4.763h0.41c2.833,4.609,7.032,6.914,12.598,6.914h0.871c4.403,0,8.312-5.36,11.727-16.08
		l0.461-3.021c-2.048,0-3.072,1.741-3.072,5.223c-2.63,8.091-6.675,12.137-12.137,12.137c-3.415,0-7.188-2.014-11.317-6.043
		c-8.263,7.511-15.944,11.266-23.045,11.266h-1.741c-7.955,0-13.452-5.07-16.49-15.209c0-5.803-1.007-8.706-3.021-8.706H79.398z
		 M79.398,169.044v0.871h2.612c1.058,0.546,1.774,1.417,2.15,2.612c-0.376,1.195-1.093,2.065-2.15,2.612H81.6l0.41-3.073h-1.28
		c-0.444,0-0.889,0.443-1.332,1.332v0.871c0.171,1.741,0.615,2.612,1.332,2.612c1.604,0,3.191-1.024,4.763-3.073v-2.151
		c0-1.741-0.871-3.056-2.612-3.943C80.73,167.713,79.569,168.156,79.398,169.044z M80.73,102.112v2.612
		c0,2.322,1.144,3.482,3.431,3.482c4.062-0.99,6.095-2.594,6.095-4.813v-0.41c0-1.741-0.871-2.612-2.612-2.612
		c-2.015,0.41-3.021,1.417-3.021,3.021l0.871,0.461h0.409c0.58,0,0.871-0.29,0.871-0.871l-0.871-1.332v-0.41
		c0.171,0,0.751-0.154,1.741-0.461c0,0.444,0.443,0.888,1.332,1.332c-0.718,2.253-1.588,3.551-2.612,3.892h-0.461
		c-1.57,0-2.714-0.871-3.431-2.612c0-2.185,1.587-3.909,4.763-5.172V97.35c0-0.58-0.444-0.871-1.332-0.871
		C82.454,98.084,80.73,99.961,80.73,102.112z M82.011,182.052v0.461h0.87v-0.461c0.546,0.307,0.974,0.461,1.28,0.461
		c4.575,0,10.089,0.29,16.541,0.87h0.41v-0.46c-3.927-1.741-7.102-2.612-9.525-2.612h-2.202
		C87.37,180.311,84.912,180.891,82.011,182.052z M82.471,25.604c0,5.19,2.167,8.826,6.504,10.908h2.15
		c4.916-0.478,7.374-2.953,7.374-7.425c-1.365-3.482-4.114-5.224-8.244-5.224c-2.902,0.41-4.354,1.724-4.354,3.943v2.611
		c1.127,2.015,2.44,3.021,3.943,3.021c2.321,0,3.482-1.006,3.482-3.021c0-2.048-1.314-3.072-3.943-3.072
		c-0.581,0.956-0.87,1.69-0.87,2.202c0.307,0.547,0.461,0.973,0.461,1.28h1.741c0-0.58-0.444-0.87-1.332-0.87v-0.41
		c0.103-0.58,0.393-0.87,0.871-0.87c1.194,0.376,2.064,1.093,2.611,2.15c-0.273,1.161-1.145,1.741-2.611,1.741h-1.28
		c-0.41,0-1.145-0.717-2.202-2.151v-0.871c0-2.116,1.16-3.431,3.482-3.943c3.482,0.376,5.223,2.117,5.223,5.223
		c-0.648,2.902-2.526,4.353-5.633,4.353c-4.063-1.194-6.094-3.073-6.094-5.633c0.648-4.37,1.809-6.555,3.482-6.555v-0.41h-3.073
		C83.58,22.583,83.017,23.59,82.471,25.604z M82.471,43.016v0.871h1.28l2.611-4.353l4.354-0.461h0.409
		c1.263,0,2.287,2.032,3.072,6.094c-0.307,0.581-0.46,1.024-0.46,1.331h0.87l0.461-1.741c0-3.243-2.031-5.564-6.094-6.965h-2.202
		C83.905,39.124,82.471,40.865,82.471,43.016z M82.881,84.701v0.871c0.513,0,1.229,0.291,2.151,0.871
		c0-1.365,1.16-2.219,3.482-2.561c1.467,0.205,2.202,0.632,2.202,1.28c-0.444,1.161-0.889,1.741-1.332,1.741l-1.28-0.871h-0.87
		v0.871c0,0.41,0.426,0.837,1.28,1.28h1.331c1.502,0,2.373-0.427,2.612-1.28c-0.581-3.175-2.032-4.763-4.354-4.763
		C87.319,82.14,85.578,82.994,82.881,84.701z M83.291,46.907v0.461c1.194,2.834,2.065,4.285,2.611,4.353h3.482
		c-0.581-3.208-2.031-4.814-4.353-4.814H83.291z M88.975,113.43c0,3.756,1.297,5.633,3.892,5.633h1.741
		c1.468-1.16,2.202-2.458,2.202-3.892c-0.444-2.628-1.024-3.943-1.741-3.943c-1.161,0.307-1.741,1.178-1.741,2.612v0.461
		c1.741,0,2.611,0.291,2.611,0.871v0.41c0,0.512-0.734,0.939-2.201,1.28c-1.435-0.375-2.151-1.383-2.151-3.021v-1.741
		c0-0.41,0.871-1.28,2.611-2.612h1.28c2.015,1.161,3.021,3.193,3.021,6.094c-1.161,4.063-3.175,6.094-6.042,6.094
		c-3.79-1.467-5.685-4.506-5.685-9.115l0.461-3.073h-0.871c-1.468,1.196-2.202,2.937-2.202,5.224v1.28
		c1.263,4.951,3.875,7.425,7.836,7.425h1.741c4.916-1.434,7.374-3.909,7.374-7.425v-3.021c0-2.901-2.169-4.933-6.504-6.094h-1.741
		C90.272,106.875,88.975,109.06,88.975,113.43z M85.032,17.359v1.332c0,0.444,0.58,1.024,1.741,1.741h0.87v-0.871
		c0-3.208,1.16-4.814,3.482-4.814h1.332l0.87,0.461v-0.461c0-0.75-1.314-1.331-3.943-1.741
		C86.482,13.792,85.032,15.243,85.032,17.359z M86.363,42.555v0.871c0.103,0.581,0.393,0.871,0.871,0.871h0.409
		c0.785,0,1.655-0.29,2.612-0.871c0,1.468,0.289,2.202,0.87,2.202h0.871v-1.741c0-1.741-0.871-2.612-2.612-2.612
		C87.37,41.445,86.363,41.872,86.363,42.555z M88.514,94.738v0.41c2.048-1.741,4.079-2.612,6.094-2.612h0.461
		c1.604,0,3.038,1.024,4.302,3.073v0.41c0,2.322-1.434,3.636-4.302,3.943l-3.072-3.073l2.611-1.28c0,0.274,0.733,0.991,2.202,2.151
		l0.409-0.871v-0.871c0-0.41-0.427-0.836-1.28-1.28h-2.201c-2.016,0-3.021,1.007-3.021,3.021c0,1.434,1.45,2.595,4.353,3.482
		c4.608-0.819,6.913-2.561,6.913-5.224c-2.39-3.755-5.139-5.633-8.244-5.633h-2.612C89.385,91.546,88.514,92.997,88.514,94.738z
		 M89.385,19.561c0.58,1.708,2.185,2.561,4.813,2.561c0.443,0,1.024-0.563,1.741-1.69l-0.87-3.943h-0.461l0.461,2.202v0.41
		c0,0.376-0.734,1.11-2.202,2.202h-0.87c-1.161-0.478-1.741-1.502-1.741-3.073c0.102-0.58,0.392-0.871,0.87-0.871
		c0.58,0.957,0.871,1.827,0.871,2.612h0.461c0.58,0,0.87-0.29,0.87-0.871c0-1.502-0.444-2.373-1.331-2.612h-1.28
		C90.033,16.488,89.59,17.513,89.385,19.561z M89.385,61.246c0,2.629,1.314,4.234,3.943,4.814h2.15
		c1.741-1.195,2.612-2.646,2.612-4.353v-0.871c0-2.048-1.008-3.072-3.021-3.072h-1.331C92.03,57.764,90.579,58.925,89.385,61.246z
		 M89.385,141.237v0.871c0,2.697,1.16,4.575,3.482,5.633h3.072c3.448-0.786,5.173-2.374,5.173-4.763v-1.332
		c-0.273-0.853-1.145-1.28-2.612-1.28h-3.431c-1.161,0.479-1.741,1.485-1.741,3.021v0.871h1.28l-0.87-1.741
		c1.126-0.853,1.997-1.28,2.611-1.28c1.741,0.684,2.611,1.264,2.611,1.741c0,2.015-1.587,3.311-4.763,3.892
		c-1.195-0.41-2.065-1.126-2.611-2.151v-0.871c0-3.38,2.031-5.274,6.094-5.685h0.41l3.021,0.461v-0.461
		c-1.024-1.741-2.749-2.611-5.173-2.611C91.569,136.851,89.385,138.745,89.385,141.237z M91.126,48.648v0.461
		c0,2.322,0.871,3.482,2.612,3.482c0.989,0,1.723,0.137,2.201,0.41v-0.871C95.939,50.185,94.335,49.024,91.126,48.648z
		 M123.747,71.232c-7.409,7.272-14.8,10.908-22.174,10.908H97.22c-2.458,0-4.336-0.29-5.633-0.871v0.41
		c1.741,1.366,2.611,2.816,2.611,4.353v2.151c2.8,0,6.128,2.031,9.986,6.094c1.127,0.581,2.714,0.871,4.763,0.871h1.331l5.173-0.41
		v-0.461c-3.175-1.741-4.763-4.062-4.763-6.964c0-0.75,0.443-1.758,1.331-3.021c0.546,0.273,0.974,0.41,1.28,0.41
		c0,5.531,2.321,8.296,6.965,8.296h1.741c3.448,0,6.776-2.184,9.986-6.555v-0.41c-5.224-1.537-7.835-4.148-7.835-7.835
		c-0.274-0.272-0.41-1.434-0.41-3.482v-2.612l0.41-0.871H123.747z M91.997,102.112c0,1.298-0.138,2.168-0.41,2.612
		c1.16,0,3.329,0.29,6.504,0.871c0.58-2.185,0.87-3.346,0.87-3.482c-1.502,0.581-2.663,0.871-3.482,0.871
		C93.294,102.403,92.133,102.112,91.997,102.112z M94.198,37.792v0.41c0,0.479,0.58,1.059,1.741,1.741l4.763-4.302
		c-0.581-0.717-0.87-1.297-0.87-1.741C96.69,36.495,94.813,37.792,94.198,37.792z M95.939,23.453l2.561,2.151h0.461
		c0.238,0,1.109-1.16,2.612-3.482v-0.41c-1.094,0-2.254-0.426-3.482-1.28C97.749,20.432,97.032,21.439,95.939,23.453z
		 M96.349,13.006v1.331c0,1.913,1.297,3.654,3.892,5.224h3.482V19.1c-2.22,0-4.097-1.877-5.633-5.633
		c1.127-2.629,3.004-3.943,5.633-3.943c2.049,0.854,3.073,2.168,3.073,3.943c0,1.57-0.735,2.731-2.202,3.482
		c-0.479,0-1.35-0.29-2.612-0.871v0.41c1.707,0.888,3.738,1.332,6.095,1.332c1.16-1.229,1.74-2.389,1.74-3.482v-0.87
		c0-3.414-2.748-5.309-8.244-5.685h-0.461C98.482,7.783,96.895,9.524,96.349,13.006z M97.22,125.157v2.151
		c1.435-0.853,2.595-1.28,3.482-1.28h2.612c1.741,0.991,2.611,2.288,2.611,3.892c0,1.298-1.024,2.458-3.072,3.482h-0.871
		c-1.503,0-2.373-0.443-2.611-1.332v-0.819c0.888-0.956,1.331-1.69,1.331-2.202h1.28c0.58,0.103,0.871,0.393,0.871,0.871v0.461
		c-1.435,0-2.151,0.291-2.151,0.871v0.41h0.871c1.741,0,2.611-0.717,2.611-2.151c-0.308-1.16-1.178-1.741-2.611-1.741h-2.202
		c-0.854,0-1.417,1.161-1.69,3.482c0.854,2.595,2.287,3.892,4.302,3.892c4.643-1.365,6.965-3.688,6.965-6.965
		c-1.4-4.062-4.012-6.094-7.835-6.094C99.132,122.904,97.835,123.928,97.22,125.157z M97.68,43.016c0,3.244,1.588,5.121,4.763,5.633
		c3.004,0,4.745-1.877,5.224-5.633v-0.871c-0.137-0.615-0.87-1.195-2.202-1.741c-3.175,0.683-4.763,2.134-4.763,4.353l0.871,0.41
		h1.28v-0.41l-0.871-1.332l0.871-0.41h0.461c0.272,0,0.853,0.581,1.741,1.741c0,0.614-0.871,1.485-2.612,2.611
		c-2.322-0.75-3.482-2.202-3.482-4.353v-0.461c0.034-0.683,1.332-2.133,3.893-4.353v-0.41h-1.28
		C98.978,37.792,97.68,39.533,97.68,43.016z M97.68,50.851v2.561c0.546,0,6.47,2.322,17.771,6.965
		c3.585,0.888,6.93,1.331,10.037,1.331c3.277,0,10.07-2.475,20.382-7.425h0.461v-1.69c0-0.443-0.428-0.887-1.28-1.332
		c-8.911,5.326-13.845,8.075-14.8,8.245c-2.186,0.581-4.217,0.871-6.094,0.871h-0.41c-4.166,0-12.137-3.039-23.915-9.116
		C99.353,50.987,98.637,50.851,97.68,50.851z M99.832,13.877c0.443,1.161,0.87,1.741,1.28,1.741c0.238-1.434,0.683-2.15,1.331-2.15
		h0.41c0,0.854,0.289,1.28,0.87,1.28h0.871c0.58,0,0.87-0.29,0.87-0.87c-0.581-1.741-1.161-2.612-1.741-2.612
		C101.129,11.265,99.832,12.136,99.832,13.877z M99.832,150.353v1.28l2.15,0.461h0.871c0.58,0,0.87-0.291,0.87-0.871v-0.871h-0.409
		l-2.202,0.41l-0.41-0.871v-0.41c0-0.888,1.16-1.332,3.482-1.332c-0.308-0.546-0.461-0.973-0.461-1.28h-0.409
		C100.992,146.87,99.832,148.03,99.832,150.353z M103.723,99.091c3.482,0.342,5.224,1.929,5.224,4.763
		c0,1.639-1.588,2.937-4.763,3.892c-1.331-0.545-2.065-1.126-2.202-1.741v-0.871c0.751-1.434,1.912-2.151,3.482-2.151v1.28
		c-0.854,0-1.28,0.291-1.28,0.871v0.461c1.502,0,2.373-0.443,2.612-1.332v-1.28c0-0.75-1.024-1.332-3.073-1.741
		c-1.298,0.512-2.458,1.52-3.482,3.021v2.612c0,0.751,1.16,1.331,3.482,1.741h1.332c4.335-1.058,6.503-2.936,6.503-5.633
		c0-2.663-2.031-4.404-6.094-5.224C104.303,98.204,103.723,98.647,103.723,99.091z M106.797,20.432v0.41
		c3.892,0,6.213,1.007,6.964,3.021c1.435,1.536,2.151,3.142,2.151,4.814c-1.093,4.643-3.261,6.964-6.504,6.964
		c-4.37-0.614-6.555-2.799-6.555-6.555c0-3.004,1.45-4.882,4.353-5.633c4.062,0.888,6.094,2.629,6.094,5.224
		c-0.376,2.595-1.673,3.892-3.892,3.892h-0.871c-0.888-0.272-1.331-1.143-1.331-2.611c0.205-1.434,0.648-2.151,1.331-2.151
		c0,0.273,0.137,0.41,0.41,0.41l-0.41,2.202v0.41h1.741c0.443,0,1.024-0.58,1.741-1.741c0-2.321-1.314-3.482-3.942-3.482h-1.741
		c-0.513,0-1.229,0.871-2.151,2.612c0.648,3.482,2.1,5.223,4.353,5.223h0.41c3.482,0,5.224-1.297,5.224-3.892v-0.46
		c-0.581-4.062-2.169-6.094-4.763-6.094h-3.482c-3.482,0.307-5.224,1.759-5.224,4.353c0,6.111,1.741,9.167,5.224,9.167h2.611
		c4.233,0,7.562-3.192,9.986-9.576v-1.741c0-3.482-2.611-5.224-7.835-5.224L106.797,20.432z M101.982,110.357
		c0.308,0.479,0.461,1.212,0.461,2.202h0.41c0.443,0,0.887-0.443,1.331-1.332v-0.871H101.982z M103.723,117.322v1.28
		c0.922,2.048,2.373,3.072,4.354,3.072c4.916-1.194,7.374-3.516,7.374-6.964v-0.871c0-0.273-0.717-0.99-2.151-2.151
		c-4.336,0-6.503,1.434-6.503,4.302l0.409,1.741h1.331c0.581,0,0.871-0.29,0.871-0.871c-0.581,0-0.871-0.29-0.871-0.871
		c0-0.41,0.427-0.836,1.28-1.28h0.461c0.443,0,1.024,0.581,1.741,1.741v0.871c-0.888,1.741-2.202,2.612-3.942,2.612h-0.871
		c-1.434-0.751-2.15-1.912-2.15-3.482c0-3.721,2.611-5.889,7.835-6.504h0.87l0.819,0.41v-0.41c-0.171-0.887-1.023-1.621-2.561-2.202
		c-4.643,1.366-6.964,3.261-6.964,5.685C104.406,113.43,103.962,114.728,103.723,117.322z M103.723,142.978
		c0.648,3.448,2.254,5.172,4.813,5.172h1.741c1.81,0,3.534-1.145,5.173-3.431v-0.871c-0.581-2.628-1.298-3.943-2.151-3.943h-3.021
		l-2.611,2.612c0.272,1.161,1.144,1.741,2.611,1.741c0.58,0,0.871-0.29,0.871-0.871c-0.308-0.545-0.461-0.973-0.461-1.28l0.87-0.461
		h1.332c0,0.137,0.136,0.717,0.409,1.741c-0.854,2.048-2.15,3.073-3.892,3.073c-1.81,0-2.971-1.315-3.482-3.943
		c0-1.741,1.877-3.329,5.633-4.763h2.202l2.561,2.151l0.461-2.151c-1.264-1.467-3.295-2.202-6.094-2.202
		C106.045,135.553,103.723,138.028,103.723,142.978z M104.595,49.98v0.871c10.89,5.19,17.411,7.784,19.562,7.784
		c3.789,0,5.684-1.877,5.684-5.633v-1.28c-4.37-0.512-6.555-1.536-6.555-3.073h-0.409c-1.741,1.468-4.063,2.202-6.965,2.202h-1.332
		c-3.756-1.058-5.633-2.373-5.633-3.943C106.898,48.956,105.447,49.98,104.595,49.98z M104.595,154.705
		c0,1.502,0.87,2.799,2.611,3.892h1.331c1.537,0,2.543-0.581,3.021-1.741v-1.28c-0.137-0.614-0.854-1.195-2.15-1.741
		c-1.161,0.443-1.741,0.871-1.741,1.28v0.871h1.28v-0.871h0.87l0.871,0.461c-0.547,1.297-1.127,2.014-1.741,2.151
		c-2.015-0.376-3.021-0.956-3.021-1.741c0-1.571,0.717-2.731,2.151-3.482h2.611v-0.41c0-0.751-1.008-1.332-3.021-1.741
		C106.506,150.353,105.481,151.803,104.595,154.705z M114.171,159.058l0.87-0.461h0.41v1.741l-2.151,0.871
		c-0.956-0.581-1.826-0.871-2.611-0.871c-0.581,0.103-0.871,0.392-0.871,0.871v0.461c0.103,0.58,0.393,0.871,0.871,0.871h3.072
		c2.015-1.229,3.021-2.1,3.021-2.612v-1.741h-1.741C114.46,158.255,114.171,158.546,114.171,159.058z M110.278,44.296
		c0.376,3.209,1.963,4.813,4.763,4.813c5.497,0,8.245-1.741,8.245-5.223v-1.332c0-1.672-1.008-2.97-3.021-3.892h-2.202
		c-1.331,0-2.492,1.741-3.482,5.224l0.461,2.15h2.151c2.321-0.136,3.482-1.297,3.482-3.482c-0.957-0.58-1.827-0.871-2.612-0.871
		c-0.581,0.103-0.87,0.393-0.87,0.871v0.461h1.741v0.871c0,0.854-0.581,1.28-1.741,1.28c-1.161-0.273-1.741-1.144-1.741-2.612
		c0.683-2.014,1.997-3.021,3.943-3.021c1.194,0.41,2.064,1.126,2.611,2.151v1.741c0,2.39-1.741,3.994-5.224,4.813
		c-2.595-0.512-3.892-1.826-3.892-3.943c0-2.253,1.144-4.575,3.431-6.965v-0.41C112.293,36.921,110.278,39.379,110.278,44.296z
		 M110.688,9.985v1.28h0.461c0.922-0.58,1.792-0.871,2.611-0.871l0.41,0.871v0.461c-1.161,0-1.741,0.291-1.741,0.871h0.87
		c1.502,0,2.373-0.443,2.612-1.332v-0.871c0-0.41-0.444-0.836-1.332-1.28h-3.021C110.978,9.217,110.688,9.507,110.688,9.985z
		 M111.558,14.747c0,0.479-0.29,1.639-0.87,3.482h0.461c0.58,0,1.007-1.16,1.28-3.482H111.558z M110.688,129.51
		c0,3.756,2.901,5.633,8.706,5.633c3.175-0.58,4.763-2.168,4.763-4.763v-0.871c0-2.561-1.879-4.011-5.634-4.353
		c-2.048,0-3.072,1.161-3.072,3.482v2.151c0.238,0,1.108,0.154,2.611,0.461l0.871-1.332v-0.41h-0.871v-0.871l0.871-1.332
		c1.16,0.444,1.741,0.888,1.741,1.332v0.41c-0.444,2.595-1.605,3.892-3.482,3.892c-2.288,0-3.432-1.297-3.432-3.892v-0.871
		c0.785-3.482,2.373-5.224,4.763-5.224h0.871c1.774,0,3.362,0.735,4.763,2.202h0.46c-0.888-3.208-2.201-4.813-3.942-4.813
		c-0.376-0.273-1.383-0.41-3.021-0.41C114.751,119.934,112.429,123.126,110.688,129.51z M112.019,164.691
		c0.785,18.538,1.502,27.807,2.151,27.807l0.87,0.461c4.131-0.581,6.453-0.871,6.965-0.871c5.462,0.273,10.089,0.41,13.878,0.41
		c-3.106-3.175-5.991-4.763-8.654-4.763c-2.63,0.273-6.691,1.434-12.188,3.482c0-0.581-0.29-0.871-0.87-0.871
		c0.58-11.608,0.87-20.604,0.87-26.988C113.026,164.042,112.019,164.486,112.019,164.691z M112.89,105.595v0.87
		c0.58,0,1.434,0.581,2.561,1.741h0.461c1.911-4.37,4.66-6.555,8.245-6.555c2.15,0,4.318,2.032,6.503,6.094l0.461,2.202
		c-0.888,4.029-3.209,6.043-6.964,6.043c-3.482-0.956-5.224-2.833-5.224-5.633c1.126-2.253,2.286-3.704,3.482-4.353
		c1.741,0,2.901,0.871,3.481,2.611c-0.443,1.161-0.87,1.741-1.28,1.741c0-0.443-0.58-1.024-1.74-1.741h-0.871
		c0,0.512-0.29,1.247-0.87,2.202c0.443,1.741,1.45,2.612,3.021,2.612h0.87c2.321,0,3.636-1.16,3.943-3.482v-0.461
		c0-2.936-2.032-4.677-6.094-5.223c-3.278,0-5.31,2.765-6.095,8.296c0.99,2.868,2.868,4.302,5.634,4.302
		c0.307,0.307,1.467,0.461,3.481,0.461h1.332c3.755,0,5.633-1.877,5.633-5.633v-0.461c-1.059-6.964-3.807-10.447-8.245-10.447h-0.46
		C119.137,100.781,115.382,102.386,112.89,105.595z M115.912,152.094l0.87,0.41h0.41c0.478,0,1.058-0.581,1.741-1.741
		c-1.161-0.41-1.741-0.837-1.741-1.28c0-0.41,0.443-0.854,1.331-1.332c1.16,0.443,1.741,0.887,1.741,1.332v1.28
		c0,1.604-0.87,2.919-2.611,3.943h-0.461c-2.015,0-3.021-1.314-3.021-3.943l0.409-2.151c-0.443,0-1.007,0.58-1.689,1.741v1.28
		c0.546,2.901,1.979,4.353,4.302,4.353c1.945,0,3.26-1.587,3.943-4.762v-3.892c0-0.581-0.291-0.871-0.871-0.871
		C117.533,146.46,116.082,148.337,115.912,152.094z M113.761,16.079v1.28c0,0.41,0.427,0.854,1.28,1.332h1.28
		c-0.273-0.58-0.409-1.024-0.409-1.332c0.922-2.321,2.219-3.482,3.892-3.482c2.049,0.956,3.073,2.117,3.073,3.482
		c-0.581,1.332-1.161,2.066-1.741,2.202h-0.871c-0.581,0-0.87-0.29-0.87-0.871v-0.461c0-0.58,0.58-0.871,1.741-0.871v-0.871
		l-2.202-0.41h-0.871c0,0.308-0.137,0.735-0.409,1.28c0,2.048,1.006,3.073,3.021,3.073h0.461c1.569,0,2.867-0.871,3.892-2.612
		c-0.41-2.901-1.708-4.353-3.892-4.353h-3.073C116.355,13.467,114.921,14.337,113.761,16.079z M119.394,29.547
		c-1.332,1.913-2.493,3.79-3.482,5.633c0.887,0,1.895,0.154,3.021,0.461c0-1.058,0.733-2.373,2.202-3.943
		C120.554,30.367,119.974,29.649,119.394,29.547z M121.545,136.423v0.871c1.468,0.102,2.202,0.546,2.202,1.331v1.741
		c-0.479,1.161-1.503,1.741-3.072,1.741c-0.581,0-0.871-0.29-0.871-0.871c0-0.58,0.734-0.871,2.202-0.871v-0.461
		c0-0.58-0.29-0.871-0.87-0.871h-0.871c-2.048,0-3.072,1.024-3.072,3.073c1.569,1.161,2.885,1.741,3.943,1.741h0.409
		c2.629-0.375,3.943-1.69,3.943-3.943c0-2.116-0.444-3.277-1.331-3.482H121.545z M117.653,162.08v3.021
		c0,1.229-0.154,2.833-0.461,4.813c4.369,9.866,6.555,15.073,6.555,15.619h0.87v-0.41c-2.048-5.599-4.079-13.571-6.094-23.915
		C117.942,161.312,117.653,161.601,117.653,162.08z M117.192,177.75v0.41l0.461,2.612c-0.308,1.912-0.461,3.79-0.461,5.633v1.332
		c2.901-0.717,4.353-1.298,4.353-1.741C119.222,180.498,117.772,177.75,117.192,177.75z M120.264,25.604
		c0,1.98,1.297,4.012,3.893,6.094h3.072c2.014-1.263,3.021-2.714,3.021-4.353v-0.41c-0.273-0.888-1.145-1.332-2.612-1.332h-2.15
		c-0.581,0-0.871,0.444-0.871,1.332c0.41,1.161,0.837,1.741,1.28,1.741h0.871v-0.871l-0.41-0.871l0.871-0.461h0.87l0.41,2.202
		c-0.547,1.298-1.127,2.015-1.741,2.15h-1.28c-0.444,0-1.469-1.006-3.072-3.021v-2.202c0-0.853,1.313-1.57,3.942-2.151h0.871
		c3.175,0.786,4.763,2.083,4.763,3.892c0,2.355-1.741,4.678-5.224,6.964c0,1.332-1.008,2.339-3.021,3.021
		c-0.273,0-1.145-0.563-2.611-1.69v1.28c2.014,0.376,3.021,0.803,3.021,1.28c6.076-2.185,9.115-5.359,9.115-9.525v-3.073
		c-1.503-2.594-4.388-3.892-8.655-3.892C122.364,21.712,120.913,23.01,120.264,25.604z M121.136,34.31v0.871l1.741-1.28h1.28v0.41
		c-0.274,0.581-0.41,1.024-0.41,1.332h0.41c0.409,0,0.853-0.443,1.331-1.332c-0.956-0.58-1.827-0.871-2.611-0.871h-0.871
		C121.425,33.542,121.136,33.832,121.136,34.31z M125.488,40.813v0.461h0.409c1.127-0.888,2.441-1.332,3.943-1.332
		c0.819,0.239,1.826,1.263,3.021,3.073c0,1.331-1.298,2.783-3.892,4.353h-1.332c-0.58,0-0.87-0.29-0.87-0.871v-1.331
		c0.103-0.581,0.392-0.871,0.87-0.871l1.332,0.871c0.683-0.581,1.246-0.871,1.689-0.871v-2.151h-1.689
		c-2.561,0-4.012,1.878-4.354,5.633c0.273,0.581,0.41,1.024,0.41,1.332h3.482c4.643-1.194,6.965-3.516,6.965-6.964v-0.871
		c-0.308-2.321-1.622-3.482-3.943-3.482h-1.28C129.055,37.792,127.468,38.799,125.488,40.813z M125.897,123.416
		c1.229-1.16,2.39-1.741,3.482-1.741c1.435,0.751,2.151,1.913,2.151,3.482v0.41c0,0.444-0.563,1.024-1.69,1.741h-0.87v-1.28
		l0.87-1.332c0-0.58-0.29-0.871-0.87-0.871c-0.684,0-1.127,0.735-1.332,2.202c0.443,1.161,0.888,1.741,1.332,1.741h0.87
		c1.707,0,2.561-0.871,2.561-2.612v-2.202c-0.581-2.594-1.298-3.892-2.15-3.892C127.348,119.814,125.897,121.265,125.897,123.416z
		 M126.768,130.38l-0.41,0.871v0.41c1.16,0,1.741,0.291,1.741,0.871v0.871l-2.202,0.41v1.332h0.461c2.015,0,3.021-1.297,3.021-3.892
		L126.768,130.38z M131.531,66.931c0.683,0,1.263,0.137,1.741,0.41c2.628,0,3.943-1.297,3.943-3.892h-0.461
		c-0.513-0.307-1.094-0.461-1.741-0.461C133.17,62.987,132.009,64.302,131.531,66.931z M135.013,30.827
		c-0.649,1.537-1.656,3.142-3.021,4.814l0.87,0.41h0.41c0.067-1.195,0.647-2.355,1.741-3.482c1.331,0.581,2.064,1.161,2.202,1.741
		v0.871h-1.741v0.461c0.067,0.581,0.358,0.871,0.87,0.871h1.741V35.18C138.086,33.166,137.061,31.715,135.013,30.827z
		 M132.862,186.865c0,0.41,0.427,0.836,1.28,1.28h3.073c2.286,0,5.325,0.154,9.115,0.461h0.409v-0.461
		c-3.039-2.322-5.206-3.482-6.504-3.482h-1.74C136.379,184.663,134.501,185.397,132.862,186.865z M135.013,83.42
		c0.443,1.161,0.887,1.741,1.331,1.741h0.871c2.594,0,3.892-1.16,3.892-3.482v-1.741l-3.021-0.41h-0.87
		C136.396,79.528,135.661,80.826,135.013,83.42z M148.072,49.98v2.151c0.103,0.581,0.392,0.871,0.87,0.871l2.151-1.28
		c-0.274-1.467-0.854-2.202-1.741-2.202C148.805,49.826,148.379,49.98,148.072,49.98z M151.964,49.109l0.461,3.021h1.741l0.87-0.41
		c-0.376-1.741-0.819-2.612-1.331-2.612H151.964z M156.316,49.109v1.741c0.103,0.581,0.393,0.871,0.871,0.871
		c0.58-0.307,1.024-0.461,1.331-0.461c-0.581-1.332-1.161-2.048-1.741-2.151H156.316z"/>
</g>
</svg>
