<?xml version="1.0" encoding="utf-8"?>
<!-- Generator: Adobe Illustrator 17.0.0, SVG Export Plug-In . SVG Version: 6.00 Build 0)  -->
<!DOCTYPE svg PUBLIC "-//W3C//DTD SVG 1.1//EN" "http://www.w3.org/Graphics/SVG/1.1/DTD/svg11.dtd">
<svg version="1.1" id="Layer_1" xmlns="http://www.w3.org/2000/svg" xmlns:xlink="http://www.w3.org/1999/xlink" x="0px" y="0px"
	 width="200px" height="200px" viewBox="0 0 200 200" enable-background="new 0 0 200 200" xml:space="preserve">
<g>
	<path d="M195.802,131.827c0,1.505-0.752,2.255-2.255,2.255h-16.603c-0.431,2.047-1.021,3.985-1.772,5.813l15.331,7.683
		c1.385,0.652,1.755,1.682,1.11,3.089c-0.753,1.294-1.772,1.621-3.062,0.977l-15.145-7.411c-5.586,11.6-15.252,20.864-29,27.792
		c-13.749,6.928-29.752,10.392-48.011,10.392c-18.045,0-33.672-3.438-46.884-10.311c-13.211-6.875-22.45-16.219-27.711-28.033
		l-15.306,7.572c-1.397,0.644-2.417,0.322-3.061-0.962c-0.753-1.384-0.426-2.399,0.979-3.041l15.751-7.972
		c-0.645-1.808-1.128-3.67-1.448-5.586H1.338c-1.503,0-2.253-0.75-2.253-2.255c0-1.503,0.75-2.255,2.255-2.255h16.595
		c-0.322-2.256-0.483-4.511-0.483-6.767c0,0.431,0,0.161,0-0.805l-15.628-6.123c-1.397-0.662-1.828-1.711-1.289-3.149
		c0.654-1.42,1.691-1.863,3.111-1.327l14.143,5.885c0.964-12.022,3.751-21.687,8.363-28.987c0-2.789,0-5.958,0-9.503
		c0-38.327,5.631-57.492,16.896-57.492c6.437,0,14.107,5.425,23.014,16.272c5.364,6.661,10.568,14.447,15.61,23.361
		c5.579-1.072,10.999-1.611,16.255-1.611c5.362,0,10.835,0.539,16.416,1.611c5.04-8.914,10.243-16.7,15.61-23.361
		c8.796-10.848,16.413-16.272,22.853-16.272c9.868,0,15.446,15.212,16.735,45.635c0.214,3.872,0.322,7.849,0.322,11.933
		c0,3.549,0,6.721,0,9.516c4.44,7.31,7.139,16.879,8.091,28.703l13.485-5.596c1.402-0.537,2.374-0.104,2.913,1.299
		c0.536,1.407,0.105,2.434-1.289,3.083l-14.822,5.961c0,0.752,0,1.075,0,0.966c0,2.256-0.161,4.511-0.483,6.767h15.789
		C195.05,129.572,195.802,130.324,195.802,131.827z M173.729,122.805c0-0.75,0-1.664,0-2.739c-0.86,0.753-1.88,1.128-3.061,1.128
		h-8.056c-3.009,0-4.512-1.503-4.512-4.511c0-3.006,1.519-4.511,4.56-4.511h8.144c0.868,0,1.629,0.217,2.28,0.645
		c-1.425-9.772-3.947-17.345-7.562-22.717l-0.493-0.644v-0.645c0-3.437,0-7.089,0-10.956c0-12.995-0.909-24.328-2.722-33.995
		c-2.029-11.278-4.909-17.239-8.643-17.883c-4.803-0.967-11.207,3.383-19.21,13.05c-6.082,7.306-11.738,15.789-16.967,25.456
		l-0.798,1.45l-0.962-0.161v22.233c0,3.008-1.505,4.511-4.511,4.511c-3.009,0-4.511-1.511-4.511-4.537V65.618
		c0-0.431,0-0.917,0-1.458c-1.609,0-3.167,0-4.673,0c0.214,0.533,0.322,1.123,0.322,1.762V88.03c0,2.99-1.505,4.486-4.511,4.486
		c-3.009,0-4.512-1.496-4.512-4.486V65.922c0-0.639,0-1.229,0-1.762c-1.508,0-3.066,0.108-4.672,0.319
		c0.214,0.534,0.322,1.015,0.322,1.442V88.03c0,2.99-1.505,4.486-4.511,4.486c-3.008,0-4.511-1.503-4.511-4.511V65.771l-0.801,0.161
		l-0.8-1.45c-5.337-9.667-11.044-18.15-17.125-25.456c-8.005-9.667-14.407-14.017-19.21-13.05
		c-3.628,0.645-6.508,6.593-8.643,17.851c-1.815,9.649-2.721,20.959-2.721,33.932c0,3.859,0,7.504,0,10.933v0.645l-0.322,0.642
		c-3.544,5.256-6.016,12.652-7.411,22.193c0.322,0,0.645,0,0.967,0h8.217c3.006,0,4.511,1.505,4.511,4.511
		c0,3.008-1.505,4.511-4.511,4.511h-8.217c-0.645,0-1.289-0.161-1.933-0.483c0,0.71,0,1.367,0,1.974c0,1.015,0.105,2.13,0.322,3.343
		c0.637,0,1.221,0,1.752,0h8.126c2.973,0,4.461,1.505,4.461,4.511c0,3.008-1.505,4.511-4.511,4.511h-8.217h-0.322
		c0.322,1.556,0.806,3.061,1.45,4.511c0.645-0.322,1.289-0.483,1.933-0.483h6.445c3.005,0,4.511,1.505,4.511,4.511
		c0,3.008-1.505,4.511-4.511,4.511h-4.189c5.8,9.236,14.581,16.514,26.342,21.831c11.761,5.316,25.375,7.975,40.842,7.975
		c15.681,0,29.645-2.658,41.889-7.975c12.245-5.317,21.48-12.595,27.711-21.831h-4.672c-3.008,0-4.511-1.503-4.511-4.511
		c0-3.006,1.503-4.511,4.511-4.511h6.444c0.967,0,1.825,0.27,2.578,0.806c0.75-1.511,1.342-3.122,1.772-4.833
		c-0.539,0-1.022,0-1.45,0h-8.056c-3.009,0-4.512-1.503-4.512-4.511c0-3.005,1.503-4.511,4.512-4.511h8.056
		c1.072,0,2.039,0.322,2.899,0.966C173.675,125.383,173.729,123.988,173.729,122.805z M67.718,116.36c0,3.439-1.183,6.339-3.544,8.7
		c-2.364,2.364-5.264,3.544-8.7,3.544c-3.331,0-6.178-1.181-8.539-3.544c-2.364-2.361-3.544-5.261-3.544-8.7
		c0-3.328,1.181-6.175,3.544-8.539c2.361-2.361,5.208-3.544,8.539-3.544c3.436,0,6.336,1.183,8.7,3.544
		C66.535,110.186,67.718,113.033,67.718,116.36z M56.601,113.783c0-2.578-1.289-3.867-3.867-3.867c-2.472,0-3.706,1.289-3.706,3.867
		c0,2.472,1.234,3.706,3.706,3.706C55.313,117.488,56.601,116.255,56.601,113.783z M117.341,148.905
		c-2.149,5.047-5.05,7.839-8.7,8.378c-3.544,0.536-7.25-0.967-11.116-4.511c-3.761,3.544-7.412,5.047-10.956,4.511
		c-3.653-0.539-6.553-3.331-8.7-8.378c-0.539-1.289-0.108-2.255,1.289-2.9c1.395-0.536,2.361-0.105,2.9,1.289
		c1.503,3.328,3.222,5.155,5.156,5.478c2.792,0.428,5.692-1.183,8.7-4.833c0.428-0.537,0.967-0.806,1.611-0.806
		c0.75,0,1.342,0.269,1.772,0.806c3.005,3.65,5.905,5.261,8.699,4.833c1.934-0.322,3.65-2.15,5.156-5.478
		c0.536-1.395,1.503-1.825,2.899-1.289C117.446,146.649,117.877,147.616,117.341,148.905z M151.818,116.36
		c0,3.439-1.208,6.339-3.625,8.7c-2.416,2.364-5.291,3.544-8.619,3.544c-3.33,0-6.203-1.181-8.619-3.544
		c-2.417-2.361-3.625-5.261-3.625-8.7c0-3.328,1.208-6.175,3.625-8.539c2.416-2.361,5.289-3.544,8.619-3.544
		c3.328,0,6.203,1.183,8.619,3.544C150.61,110.186,151.818,113.033,151.818,116.36z M140.702,113.783
		c0-2.578-1.289-3.867-3.867-3.867c-2.472,0-3.705,1.289-3.705,3.867c0,2.472,1.233,3.706,3.705,3.706
		C139.413,117.488,140.702,116.255,140.702,113.783z"/>
</g>
</svg>
