<?xml version="1.0" encoding="utf-8"?>
<!-- Generator: Adobe Illustrator 17.0.0, SVG Export Plug-In . SVG Version: 6.00 Build 0)  -->
<!DOCTYPE svg PUBLIC "-//W3C//DTD SVG 1.1//EN" "http://www.w3.org/Graphics/SVG/1.1/DTD/svg11.dtd">
<svg version="1.1" id="Layer_1" xmlns="http://www.w3.org/2000/svg" xmlns:xlink="http://www.w3.org/1999/xlink" x="0px" y="0px"
	 width="200px" height="200px" viewBox="0 0 200 200" enable-background="new 0 0 200 200" xml:space="preserve">
<g>
	<path d="M134.416,142.29v26.703c2.653,0,5.153,0,7.496,0c8.743,0,16.238,0.937,22.486,2.811c6.243,1.874,9.369,4.14,9.369,6.793
		c0,2.657-3.126,4.919-9.369,6.793c-6.248,1.874-13.743,2.811-22.486,2.811c-8.901,0-16.478-0.937-22.721-2.811
		c-6.248-1.874-9.37-4.136-9.37-6.793v-0.469H89.209c0,0.157,0,0.315,0,0.469c0,2.657-3.125,4.919-9.369,6.793
		c-6.248,1.874-13.743,2.811-22.486,2.811c-8.901,0-16.478-0.937-22.721-2.811c-6.248-1.874-9.369-4.136-9.369-6.793
		c0-2.653,3.121-4.919,9.369-6.793c6.243-1.874,13.819-2.811,22.721-2.811c0.937,0,2.496,0,4.685,0v-26.938l-13.82,2.577
		c-1.094,4.531-3.477,8.278-7.144,11.243c-3.671,2.968-7.847,4.45-12.531,4.45c-5.153,0-9.685-1.874-13.586-5.621l14.991-7.262
		l-2.812-12.18l-18.504,5.621c-0.157-5.556,1.717-10.343,5.621-14.357c3.901-4.012,8.667-6.021,14.289-6.021
		c8.117,0,14.054,3.514,17.802,10.54l15.693-2.811v-7.027h72.378v7.262l15.226,2.811c3.747-7.181,9.604-10.774,17.567-10.774
		c5.621,0,10.424,2.071,14.405,6.207c3.982,4.14,5.815,9.018,5.505,14.64l-18.505-5.622l-2.811,12.181l14.991,7.261
		c-3.905,3.748-8.433,5.622-13.586,5.622c-4.685,0-8.901-1.522-12.648-4.567c-3.748-3.045-6.09-6.91-7.027-11.595L134.416,142.29z
		 M164.164,45.669c1.717,4.919,2.576,10.892,2.576,17.919s-0.859,13-2.576,17.919c-1.721,4.919-3.828,7.378-6.324,7.378
		c-2.031,0-3.905-1.874-5.622-5.621v28.576H42.128V81.39c-1.72,4.999-3.828,7.495-6.324,7.495c-2.5,0-4.607-2.459-6.324-7.378
		c-1.72-4.919-2.576-10.892-2.576-17.919s0.856-13,2.576-17.919c1.717-4.919,3.824-7.378,6.324-7.378
		c2.496,0,4.604,2.499,6.324,7.495V17.443h48.486V0.813h12.648v16.63h48.955v26.469c1.717-3.748,3.591-5.621,5.622-5.621
		C160.336,38.291,162.443,40.75,164.164,45.669z M76.443,66.516c2.576-2.576,3.865-5.658,3.865-9.252
		c0-3.591-1.289-6.676-3.865-9.252c-2.576-2.577-5.662-3.865-9.252-3.865c-3.595,0-6.676,1.288-9.253,3.865
		c-2.576,2.576-3.864,5.661-3.864,9.252c0,3.594,1.288,6.676,3.864,9.252c2.577,2.577,5.658,3.865,9.253,3.865
		C70.781,70.381,73.867,69.093,76.443,66.516z M116.145,81.39H79.371v10.54h36.774V81.39z M135.704,66.516
		c2.577-2.576,3.865-5.658,3.865-9.252c0-3.591-1.288-6.676-3.865-9.252c-2.576-2.577-5.661-3.865-9.252-3.865
		c-3.594,0-6.676,1.288-9.252,3.865c-2.577,2.576-3.865,5.661-3.865,9.252c0,3.594,1.288,6.676,3.865,9.252
		c2.576,2.577,5.658,3.865,9.252,3.865C130.043,70.381,133.128,69.093,135.704,66.516z"/>
</g>
</svg>
