<?xml version="1.0" encoding="utf-8"?>
<!-- Generator: Adobe Illustrator 17.0.0, SVG Export Plug-In . SVG Version: 6.00 Build 0)  -->
<!DOCTYPE svg PUBLIC "-//W3C//DTD SVG 1.1//EN" "http://www.w3.org/Graphics/SVG/1.1/DTD/svg11.dtd">
<svg version="1.1" id="Layer_1" xmlns="http://www.w3.org/2000/svg" xmlns:xlink="http://www.w3.org/1999/xlink" x="0px" y="0px"
	 width="200px" height="200px" viewBox="0 0 200 200" enable-background="new 0 0 200 200" xml:space="preserve">
<g>
	<path d="M177.877,193.421H11.982c-3.148,0-5.663-2.515-7.551-7.552c0-5.191,2.515-7.787,7.551-7.787h165.895
		c3.145,0,5.663,2.596,7.551,7.787C185.428,190.906,182.91,193.421,177.877,193.421z M194.631,116.256
		c0,19.667-19.509,32.251-58.522,37.757l-6.136,12.979H53.751L16.23,78.734h157.398l-11.799,20.53
		c5.191-1.57,9.753-2.359,13.687-2.359C188.26,96.905,194.631,103.357,194.631,116.256z M73.573,42.394
		c-4.406-4.248-6.607-9.439-6.607-15.574c0-6.136,2.161-11.364,6.489-15.693c4.325-4.325,9.558-6.489,15.693-6.489
		c6.135,0,11.363,2.164,15.692,6.489c4.325,4.329,6.489,9.558,6.489,15.693c0,5.508-1.77,10.306-5.31,14.395
		c-3.539,4.093-7.986,6.53-13.333,7.315L89.62,66.464C81.438,52.936,76.088,44.912,73.573,42.394z M180.001,113.659
		c-0.317-1.57-1.811-2.359-4.484-2.359c-5.509,0-13.06,2.282-22.653,6.844l-9.439,20.058
		C170.325,132.855,182.515,124.673,180.001,113.659z"/>
</g>
</svg>
