<?xml version="1.0" encoding="utf-8"?>
<!-- Generator: Adobe Illustrator 17.0.0, SVG Export Plug-In . SVG Version: 6.00 Build 0)  -->
<!DOCTYPE svg PUBLIC "-//W3C//DTD SVG 1.1//EN" "http://www.w3.org/Graphics/SVG/1.1/DTD/svg11.dtd">
<svg version="1.1" id="Layer_1" xmlns="http://www.w3.org/2000/svg" xmlns:xlink="http://www.w3.org/1999/xlink" x="0px" y="0px"
	 width="200px" height="200px" viewBox="0 0 200 200" enable-background="new 0 0 200 200" xml:space="preserve">
<g>
	<g>
		<path d="M194.127,139.909c-6.291,13.894-16.253,20.84-29.883,20.84c-8.258,0-16.647-2.292-25.166-6.882
			c-11.142,11.143-24.575,16.712-40.303,16.712c-15.729,0-29.229-5.505-40.5-16.515c-8.521,4.457-16.843,6.685-24.968,6.685
			c-13.633,0-23.592-6.946-29.884-20.84c16.383-3.668,24.575-13.302,24.575-28.901c0-1.833-0.295-4.65-0.884-8.453
			c-0.59-3.801-0.885-6.617-0.885-8.454c0-12.318,5.898-23.657,17.694-34.013c1.048-4.325,3.539-7.142,7.471-8.454
			c0.393-2.227,0.983-4.061,1.77-5.505c0.129-0.261,0.59-0.786,1.376-1.572c-0.393-1.048-0.59-2.163-0.59-3.343
			c0-2.488,0.817-4.62,2.458-6.39c1.638-1.769,3.702-2.653,6.193-2.653c2.488,0,4.586,0.918,6.292,2.752
			c0.129-2.359,1.014-4.355,2.654-5.996c1.637-1.638,3.637-2.458,5.996-2.458c3.014,0,5.373,1.247,7.078,3.735
			c1.702-1.966,3.539-3.538,5.505-4.718c0.787-5.112,3.667-7.668,8.651-7.668c4.979,0,7.863,2.556,8.65,7.668
			c1.966,1.18,3.864,2.752,5.701,4.718c1.702-2.488,3.997-3.735,6.881-3.735c5.241,0,8.19,2.82,8.848,8.454
			c1.572-1.834,3.604-2.752,6.095-2.752c2.488,0,4.586,0.885,6.291,2.653c1.702,1.77,2.556,3.901,2.556,6.39
			c0,1.444-0.196,2.624-0.59,3.539c0.522,0.525,1.77,1.641,3.735,3.343v3.735c3.539,1.572,5.767,4.393,6.685,8.454
			c11.796,10.223,17.694,21.497,17.694,33.815c0,1.837-0.295,4.653-0.885,8.454c-0.59,3.803-0.885,6.62-0.885,8.453
			C169.552,126.607,177.742,136.241,194.127,139.909z M152.644,76.603c-0.133-2.752-2.624-5.634-7.472-8.65
			c1.834-1.048,2.753-2.752,2.753-5.111c0-3.933-1.705-5.898-5.111-5.898c-0.525,0-1.115,0.132-1.77,0.394v-6.488l-0.197-0.196
			c-1.18-0.916-2.948-3.078-5.308-6.488c1.572-0.261,2.359-1.244,2.359-2.949c0-2.095-0.983-3.146-2.949-3.146
			c-1.837,0-2.753,1.051-2.753,3.146c0,1.573,0.719,2.557,2.163,2.949c-2.099,2.23-4.129,3.475-6.095,3.735
			c-2.885-1.834-5.44-4.915-7.668-9.24c1.573-0.393,2.359-1.44,2.359-3.146c0-2.095-0.983-3.146-2.949-3.146
			c-1.837,0-2.752,1.051-2.752,3.146c0,1.705,0.719,2.688,2.162,2.949c-2.752,2.752-4.851,4-6.291,3.735
			c-2.491-8.125-6.752-12.386-12.779-12.779c0.786-0.654,1.18-1.505,1.18-2.556c0-2.095-0.918-3.146-2.752-3.146
			c-1.838,0-2.753,1.051-2.753,3.146c0,1.051,0.394,1.901,1.18,2.556c-6.03,0.394-10.291,4.654-12.779,12.779
			c-1.444,0.265-3.539-0.983-6.292-3.735c1.441-0.261,2.163-1.244,2.163-2.949c0-2.095-0.918-3.146-2.752-3.146
			c-1.837,0-2.752,1.051-2.752,3.146c0,1.705,0.719,2.753,2.163,3.146c-2.23,4.325-4.786,7.406-7.667,9.24
			c-1.837-0.261-3.867-1.505-6.095-3.735c1.441-0.393,2.163-1.376,2.163-2.949c0-2.095-0.918-3.146-2.752-3.146
			c-1.837,0-2.752,1.051-2.752,3.146c0,1.705,0.787,2.688,2.359,2.949c-1.312,2.359-3.146,4.522-5.505,6.488v6.685
			c-0.786-0.262-1.376-0.394-1.77-0.394c-3.539,0-5.308,1.966-5.308,5.898c0,2.23,0.851,3.932,2.556,5.111
			c-4.982,2.885-7.471,5.77-7.471,8.65c-0.393,2.624,0.59,3.933,2.949,3.933c2.095,0,3.146-0.787,3.146-2.359
			c0-4.325,7.142-7.797,21.43-10.42c10.091-1.834,18.938-2.753,26.542-2.753c7.731,0,16.579,0.919,26.541,2.753
			c14.155,2.623,21.233,6.095,21.233,10.42c0,1.443,0.915,2.162,2.752,2.162C151.529,80.338,152.644,79.094,152.644,76.603z
			 M147.139,116.12c-2.23-0.394-4.458-2.03-6.685-4.915c-1.705-2.228-4.458-6.488-8.258-12.779
			c-4.589,5.898-9.83,8.454-15.729,7.667c-8.65-1.179-13.501-4.454-14.548-9.83c-10.881,13.108-22.152,19.66-33.816,19.66
			c-3.932,0-7.735-0.851-11.403-2.556c-0.393,5.376-2.163,8.915-5.308,10.617c2.488,11.142,8.125,20.219,16.908,27.229
			c8.78,7.013,18.938,10.518,30.474,10.518c12.976,0,24.083-4.355,33.324-13.074C141.34,139.942,146.352,129.096,147.139,116.12z
			 M57.095,62.841c0,1.705-0.722,2.556-2.163,2.556c-1.443,0-2.163-0.851-2.163-2.556c0-1.573,0.719-2.359,2.163-2.359
			C56.373,60.481,57.095,61.268,57.095,62.841z M95.826,126.736h-8.454c-2.491-2.62-5.572-3.932-9.24-3.932
			c-5.244,0-9.111,2.359-11.6,7.077l-6.095-3.146c3.8-7.207,9.698-10.813,17.694-10.813
			C86.125,115.923,92.023,119.529,95.826,126.736z M68.105,61.857c-1.966,0.525-3.932,1.115-5.898,1.77
			c-0.264-4.586-0.46-7.732-0.59-9.437c1.18-0.916,2.031-2.031,2.556-3.343c1.702,1.18,2.752,1.966,3.146,2.359
			C67.58,55.96,67.841,58.844,68.105,61.857z M84.226,49.078l-0.393,9.83c-3.539,0.394-6.949,0.919-10.224,1.573
			c-0.132-3.407-0.196-6.355-0.196-8.848c1.966-1.572,3.735-3.538,5.308-5.897C79.901,46.916,81.735,48.031,84.226,49.078z
			 M123.35,136.96c-5.244,10.094-13.501,15.139-24.772,15.139c-11.141,0-19.334-5.045-24.575-15.139H123.35z M107.818,58.516
			c-3.146-0.262-6.162-0.394-9.043-0.394c-3.017,0-6.095,0.132-9.241,0.394V46.129c0-2.881,0.851-5.406,2.556-7.568
			c1.701-2.163,3.932-3.244,6.685-3.244c2.752,0,4.945,1.081,6.586,3.244c1.637,2.162,2.457,4.688,2.457,7.568V58.516z
			 M107.622,44.163h-0.196c0-0.129-0.067-0.196-0.197-0.196h-6.291c-0.132-0.786-0.786-3.078-1.966-6.881l-0.196-0.197
			c-0.265,0-0.394,0.068-0.394,0.197l-1.966,6.881h-6.292c-0.132,0-0.264,0.067-0.393,0.196c0.129,0.133,0.197,0.265,0.197,0.394
			l5.111,4.129c-0.264,0-0.918,2.294-1.966,6.881c0,0.132,0.064,0.264,0.197,0.394h0.393l5.112-4.326
			c0.521,0.525,2.162,1.967,4.915,4.326h0.393c0.129-0.13,0.197-0.262,0.197-0.394l-1.967-6.881
			C105.852,46.458,107.622,44.95,107.622,44.163z M136.916,126.736l-6.095,3.146c-2.491-4.718-6.359-7.077-11.6-7.077
			c-3.671,0-6.752,1.312-9.24,3.932h-8.454c3.8-7.207,9.698-10.813,17.694-10.813C127.215,115.923,133.113,119.529,136.916,126.736z
			 M123.94,51.634c-0.133,3.933-0.197,6.882-0.197,8.848c-3.409-0.654-6.816-1.18-10.223-1.573c-0.265-4.979-0.394-8.257-0.394-9.83
			c2.488-1.047,4.325-2.162,5.505-3.342C120.205,48.096,121.973,50.062,123.94,51.634z M135.736,54.19
			c0,1.18-0.196,4.393-0.59,9.633c-1.837-0.654-3.803-1.244-5.898-1.77c0.129-0.654,0.394-3.603,0.787-8.847l3.146-2.359
			C133.703,52.159,134.556,53.274,135.736,54.19z M144.78,63.037c0,1.573-0.722,2.359-2.163,2.359c-1.443,0-2.162-0.786-2.162-2.359
			c0-1.702,0.719-2.556,2.162-2.556C144.058,60.481,144.78,61.335,144.78,63.037z"/>
	</g>
</g>
</svg>
