<?xml version="1.0" encoding="utf-8"?>
<!-- Generator: Adobe Illustrator 17.0.0, SVG Export Plug-In . SVG Version: 6.00 Build 0)  -->
<!DOCTYPE svg PUBLIC "-//W3C//DTD SVG 1.1//EN" "http://www.w3.org/Graphics/SVG/1.1/DTD/svg11.dtd">
<svg version="1.1" id="Layer_1" xmlns="http://www.w3.org/2000/svg" xmlns:xlink="http://www.w3.org/1999/xlink" x="0px" y="0px"
	 width="200px" height="200px" viewBox="0 0 200 200" enable-background="new 0 0 200 200" xml:space="preserve">
<g>
	<path d="M44.713,5.938c8.651,0,19.041,4.965,31.168,14.893c0,0.461,1.046,1.525,3.139,3.191c0.177-2.588,2.127-6.045,5.851-10.372
		h2.286c2.198,0,5.656,2.394,10.372,7.181c0.283,0,0.426,0.301,0.426,0.904l5.903-1.33c2.659,0.284,4.309,0.426,4.946,0.426
		c6.028-5.496,9.042-8.351,9.042-8.563v-0.425h2.234c2.233,3.191,4.343,8.297,6.329,15.318l0.904,0.479
		c6.453-7.233,10.212-10.85,11.275-10.85c7.481-4.822,14.254-8.138,20.317-9.946h2.287c2.979,5.354,5.229,12.428,6.755,21.222
		l-0.479,2.287v3.138c0,8.191-1.349,16.311-4.043,24.36c0,3.936,1.348,5.904,4.043,5.904h1.383c4.999,0,10.105-2.411,15.317-7.233
		h0.904v3.138c0,1.595-1.348,4.752-4.042,9.467c-2.908,4.291-6.667,7.163-11.275,8.616v0.425c0,1.773,4.361,2.979,13.084,3.617
		v1.809c-2.021,2.625-3.83,4.131-5.426,4.521c-3.546,1.489-6.4,2.234-8.562,2.234h-6.809v0.479l4.521,4.042v0.904h-1.33
		c-1.206,0-3.156,0.302-5.851,0.904l-0.904-0.425c-0.603,0.284-1.063,0.425-1.383,0.425c-2.233-0.603-3.581-0.904-4.042-0.904
		c-10.922,11.135-17.995,17.162-21.222,18.084c1.809,3.439,2.713,5.993,2.713,7.659v2.234c0,3.936-0.462,5.904-1.383,5.904h-0.426
		l-2.287-1.808h-0.426c-0.354,2.766-1.401,5.318-3.138,7.659c0.638,4.893,4.096,11.063,10.371,18.509
		c1.809,1.063,2.713,2.269,2.713,3.617h1.33c0-0.319,0.46-1.383,1.383-3.191h-0.479c0.319-2.092,0.62-3.138,0.904-3.138
		c-1.808-6.134-2.712-10.354-2.712-12.659v-1.33c0-1.099,0.904-2.907,2.712-5.425h0.904c0,2.659,3.014,5.674,9.042,9.042
		c5.603,4.042,9.502,10.212,11.701,18.509v2.712c0,0.283-0.142,0.425-0.426,0.425l0.426,0.904c0,0.567-0.302,1.613-0.904,3.138
		h0.479c-4.326,10.531-11.099,15.796-20.317,15.796c-1.809,3.51-5.425,6.081-10.85,7.712c-0.462,0-1.508,0.904-3.139,2.712
		c-3.403,1.489-6.56,2.394-9.467,2.712c-1.986-0.319-3.954-0.479-5.904-0.479h-2.659c-0.319,0-0.479,0.16-0.479,0.479
		c-3.015-0.425-5.567-1.188-7.659-2.287c-3.12,1.524-5.089,2.287-5.903,2.287H83.54c-2.695-0.284-6.312-2.252-10.851-5.904
		c-3.759,0-7.056-2.412-9.893-7.233c-0.604-0.355-1.206-3.351-1.809-8.989c0.603-5.354,1.79-9.716,3.563-13.084
		c0-0.319,2.27-3.032,6.809-8.138c4.042-4.929,6.453-8.988,7.233-12.18c0.886-0.709,1.329-1.772,1.329-3.191v-1.33
		c-1.205-1.17-2.252-3.581-3.138-7.233h-0.479l-2.234,1.809h-0.479c-0.604,0-0.904-0.301-0.904-0.904v-0.426
		c0-1.95-0.142-3.917-0.425-5.904c0.283-3.12,1.027-5.531,2.233-7.233l-18.03-13.988c-4.433-5.389-6.844-8.084-7.233-8.084
		c-2.695-0.921-6.613-1.524-11.755-1.808l-0.425-0.904V89.92l3.616-1.808v-0.904c0-0.603-0.302-0.904-0.904-0.904
		c-3.546,0.284-6.116,0.426-7.712,0.426c-2.553,0-5.248-1.649-8.084-4.947V79.07H25.3c0.319,0,0.479,0.16,0.479,0.479l4.946-1.808
		v-0.904c-1.95,0-4.964-1.666-9.041-5l-2.713-4.521c-1.809-2.907-3.156-5.904-4.042-8.989c0.603-0.992,0.904-1.755,0.904-2.287
		c7.693,5.744,13.102,8.616,16.222,8.616c6.949-1.667,10.425-3.634,10.425-5.904c0-2.021-1.206-10.744-3.617-26.168v-9.946
		C38.862,11.504,40.812,5.938,44.713,5.938z M52.372,19.926l-1.809,5l0.479,0.904l-0.479,3.138
		c1.418,9.964,3.386,16.294,5.904,18.988h0.426c7.056-4.219,12.924-7.092,17.604-8.617l0.479-0.904v-0.426
		c-1.1-2.481-4.414-6.4-9.945-11.754c-1.419-1.702-3.529-2.907-6.33-3.617C57.105,20.83,54.996,19.926,52.372,19.926z M60.51,73.219
		v1.33c0,2.412,1.205,7.978,3.617,16.701c0.851,0.426,2.198,2.837,4.042,7.234c3.971,4.752,7.286,8.067,9.946,9.946
		c4.432,4.042,9.396,6.436,14.893,7.18c0,0.604,2.553,1.064,7.658,1.383c8.085-0.603,15.017-1.949,20.797-4.042l8.988-5.425
		c8.438-10.424,12.658-17.959,12.658-22.604c1.205-2.694,1.809-6.595,1.809-11.701c0-9.112-1.809-15.14-5.425-18.083
		c-3.83-3.581-7.429-5.372-10.797-5.372h-3.617c-5.851,0.816-10.975,3.209-15.371,7.18c-1.383,2.306-3.333,6.826-5.851,13.563
		l-0.904,0.425c-0.531-0.07-1.897-3.368-4.095-9.893c-1.136-2.163-2.784-4.13-4.947-5.904c0-1.737-3.616-3.83-10.85-6.276
		c-1.809,0-2.713-0.159-2.713-0.479c-7.518,1.844-11.275,3.493-11.275,4.946c-1.773,0-3.865,3.174-6.276,9.521
		C61.272,67.954,60.51,71.411,60.51,73.219z M80.348,53.806c3.794,0,7.109,1.507,9.946,4.521c0,0.604-0.302,0.904-0.904,0.904
		c-1.596-0.921-4.008-1.826-7.233-2.712h-4.042c-3.085,0-5.337,2.252-6.755,6.755l-0.904,0.479h-1.383
		c0-0.603-0.302-0.904-0.904-0.904v-0.904l0.479-0.904h-0.479c1.666-4.539,4.538-6.808,8.616-6.808
		C77.53,54.231,78.718,54.09,80.348,53.806z M81.731,171.137c0,1.205-1.348,3.013-4.042,5.425c-2.872,3.014-4.38,5.726-4.521,8.138
		h0.903c0-1.986,2.092-5,6.276-9.042c0.603-0.851,1.205-2.199,1.809-4.042v-0.479H81.731z M97.528,122.417
		c-6.383-1.134-13.155-3.103-20.317-5.904c-1.383,2.234-2.128,5.106-2.234,8.616h0.426l3.191-1.808h1.329
		c-0.284,1.631-0.425,2.837-0.425,3.617c0.141,3.582,0.726,5.372,1.755,5.372h0.479c2.553-2.091,4.06-3.138,4.521-3.138
		c2.092,3.297,3.138,5.248,3.138,5.851h0.904l1.383-0.904c2.659,3.582,4.308,5.39,4.946,5.425c1.312-2.375,2.659-4.024,4.042-4.947
		h0.479l5.426,4.947c0.992-4.219,1.896-6.33,2.712-6.33c2.447,3.51,3.937,5.319,4.468,5.425h0.479
		c1.311-0.709,2.96-3.262,4.946-7.659l1.808-1.808h0.479l3.616,2.712h0.426c1.205,0,1.809-2.251,1.809-6.755l-0.426-2.287
		c0.496,0,2.145,0.604,4.946,1.809v-0.425c0-2.234-0.763-5.248-2.287-9.042c-3.972,3.014-12.092,5.425-24.359,7.233H97.528z
		 M80.827,67.794h1.33c2.729,1.419,4.096,3.529,4.096,6.33v2.712c-1.171,5.39-2.838,8.084-5,8.084v0.479
		c-1.596,0-3.085-1.808-4.468-5.425c0.779-3.014,2.429-4.521,4.946-4.521c0-0.283,0.301-0.425,0.904-0.425v-0.479
		c0-0.496-1.508-1.702-4.521-3.617c0-0.319-0.143-0.762-0.426-1.33C78.718,68.397,79.763,67.794,80.827,67.794z M77.689,185.604
		v2.712c0,2.694,2.092,4.343,6.276,4.946H95.72c3.971,0,6.223-1.648,6.755-4.946c0-3.936-3.6-6.95-10.797-9.042
		c-2.908-0.284-5.78-0.425-8.616-0.425h-0.426C79.338,181.579,77.689,183.831,77.689,185.604z M83.061,161.244v4.468
		c0,2.163-0.302,3.83-0.904,5h0.904c0.603-3.439,0.904-6.595,0.904-9.467H83.061z M87.156,17.692
		c-3.014,3.865-4.521,6.72-4.521,8.563v5c1.453,6.595,3.404,9.893,5.851,9.893c1.702-0.603,3.971-1.95,6.808-4.042v-4.042
		c-0.035-0.567-1.701-1.471-4.999-2.712l-0.904-1.383c1.276-0.886,2.481-1.33,3.617-1.33l0.903,0.426
		c1.205-0.46,1.809-0.904,1.809-1.33v-1.808C91.358,20.174,88.504,17.763,87.156,17.692z M101.144,86.729
		c4.646,0,7.801,1.365,9.468,4.095c-0.923,2.944-1.667,4.592-2.233,4.946c-0.106,0.887-1.614,1.791-4.521,2.713v0.904
		c0,3.901,1.348,5.851,4.042,5.851h3.617c3.155,0,5.406-1.205,6.755-3.617l-0.426-4.042l0.904-0.426h0.904
		c2.694,0.568,4.042,1.915,4.042,4.042c-2.624,0.497-4.733,2.003-6.329,4.521c-1.915,1.206-5.071,1.808-9.468,1.808h-1.329
		l-0.904-0.479c-0.319,0.922-1.224,1.383-2.713,1.383h-1.809c-0.603,0-0.903-0.46-0.903-1.383h-2.713l-2.713,0.479
		c-3.227,0-6.542-2.269-9.945-6.808l-1.809,0.904l-0.426-0.904v-2.234c0.779-1.489,1.383-2.234,1.809-2.234h1.809
		c1.205,0.603,1.808,1.046,1.808,1.33l-0.479,2.234c1.95,3.014,5.106,4.521,9.468,4.521c0,0.319,0.159,0.479,0.479,0.479
		c1.383,0,2.729-1.365,4.042-4.095v-2.234c-4.185-3.475-6.276-6.028-6.276-7.659V89.92C95.294,88.999,97.244,87.935,101.144,86.729z
		 M97.954,29.446v1.33c1.099,4.22,2.906,6.329,5.425,6.329c2.729,0,4.396-3.155,5-9.467l-2.287-3.617
		c-0.532-0.319-1.136-0.479-1.809-0.479v0.479l-0.904-0.479h-0.904C100.453,23.542,98.946,25.51,97.954,29.446z M102.049,149.011
		c0,2.411-0.159,3.617-0.479,3.617c0.319,0.603,0.479,1.063,0.479,1.383c0,1.099-0.461,3.811-1.383,8.138v9.467
		c0.922,3.545,1.383,6.4,1.383,8.563c0.603,0,1.348-2.712,2.234-8.138V160.34c0-0.957-0.604-4.733-1.809-11.329H102.049z
		 M101.144,91.25v1.383l2.234,0.425c1.205-0.46,1.809-0.904,1.809-1.33v-1.383h-3.139C101.446,90.452,101.144,90.753,101.144,91.25z
		 M104.283,187.838c0.531,3.617,3.404,5.425,8.616,5.425h5.372c7.517,0,11.275-2.252,11.275-6.754V184.7
		c-2.837-5.106-6.294-7.659-10.371-7.659c-8.191,0-12.996,2.996-14.414,8.989L104.283,187.838z M111.091,24.447v2.287
		c0.071,0.604,0.372,0.904,0.904,0.904c1.631-0.319,2.819-0.479,3.563-0.479v0.479l-4.042,3.617c2.34,1.773,3.847,2.66,4.521,2.66
		v0.904l-4.521-1.33c-0.391,0-0.993,0.904-1.809,2.713v0.904c0.319,0,1.524,0.904,3.617,2.713c2.446,0.603,4.857,1.046,7.233,1.33
		c1.489-2.73,2.233-5.886,2.233-9.467c0-5.319-1.508-10.123-4.521-14.414h-0.426C116.037,17.479,113.785,19.873,111.091,24.447z
		 M122.792,55.136h1.383c7.056,0,11.417,2.712,13.084,8.138l-0.904,0.479c-2.021-1.241-3.688-2.748-4.999-4.521
		c-2.163-0.921-3.511-1.383-4.042-1.383H124.6c-1.986,0-4.096,1.206-6.329,3.617h-0.426c-0.426,0-0.887-0.443-1.383-1.33v-2.712
		C119.228,55.898,121.338,55.136,122.792,55.136z M125.505,68.22c2.233,0,3.74,2.412,4.521,7.233v2.287
		c0,3.227-1.206,5.78-3.616,7.659h-3.139c-0.531,0-1.294-0.904-2.287-2.712c0.248-1.205,0.55-1.808,0.904-1.808l-0.425-0.904v-1.33
		c0-2.021,1.506-3.386,4.521-4.096v-0.425c-0.461,0-1.525-1.064-3.191-3.191v-0.425C123.678,68.982,124.582,68.22,125.505,68.22z
		 M123.27,160.766v2.712c0,6.736,2.694,12.463,8.085,17.18c1.134,2.694,1.896,4.042,2.287,4.042v-0.904
		c-0.071-2.199-2.323-5.514-6.755-9.946c-1.809-2.482-2.713-3.989-2.713-4.521c-0.319-4.752-0.479-7.606-0.479-8.563H123.27z
		 M134.547,38.435c3.403,2.659,6.258,4.326,8.562,5c0,0.249,2.854,2.358,8.563,6.329h0.904c2.411-5.851,3.616-9.928,3.616-12.233
		c-1.205-9.325-2.411-13.988-3.616-13.988C146.62,26.627,140.61,31.592,134.547,38.435z M142.205,135.501
		c0,2.34,1.064,6.844,3.191,13.51c0.283,0.532,0.426,1.294,0.426,2.287c0,2.553-1.206,5.407-3.617,8.563
		c2.411,4.148,3.617,8.811,3.617,13.988v0.904c0,1.205-0.302,3.173-0.904,5.904c6.523-2.199,10.885-4.61,13.084-7.234
		c1.418-1.206,2.624-3.173,3.617-5.904h-0.426c0.566-1.276,1.011-3.227,1.33-5.851c-2.021-7.907-5.479-13.917-10.372-18.03
		c-6.028-4.787-9.042-7.8-9.042-9.042C142.507,134.704,142.205,135.005,142.205,135.501z"/>
</g>
</svg>
