<?xml version="1.0" encoding="utf-8"?>
<!-- Generator: Adobe Illustrator 17.0.0, SVG Export Plug-In . SVG Version: 6.00 Build 0)  -->
<!DOCTYPE svg PUBLIC "-//W3C//DTD SVG 1.1//EN" "http://www.w3.org/Graphics/SVG/1.1/DTD/svg11.dtd">
<svg version="1.1" id="Layer_1" xmlns="http://www.w3.org/2000/svg" xmlns:xlink="http://www.w3.org/1999/xlink" x="0px" y="0px"
	 width="200px" height="200px" viewBox="0 0 200 200" enable-background="new 0 0 200 200" xml:space="preserve">
<g>
	<g>
		<path d="M127.528,35.38c20.996,6.544,37.999,18.601,51.008,36.174s19.513,37.394,19.513,59.452c0,4.262-0.228,8.523-0.685,12.781
			c-3.045-6.997-7.685-12.553-13.921-16.66c-6.241-4.108-13.162-6.162-20.769-6.162c-12.021,0-21.835,4.718-29.441,14.149
			c-2.892-13.237-10.498-22.287-22.822-27.158l-15.747,65.271c-0.307,7.304-2.703,13.315-7.189,18.03
			c-4.489,4.718-10.31,7.075-17.459,7.075c-2.589,0-5.478-0.382-8.673-1.142c-13.544-3.195-20.312-12.399-20.312-27.615
			c0-2.432,0.221-4.714,0.663-6.847c1.034-4.714,3.837-6.618,8.408-5.706c3.099,0.61,4.942,3.502,5.535,8.673
			c0,1.369,0,2.817,0,4.336c0,7.304,2.974,11.64,8.929,13.009c10.224,2.437,15.487-1.208,15.794-10.937l15.701-66.881
			c-12.635,0-22.755,5.021-30.364,15.056c-1.523-9.129-5.784-16.621-12.784-22.479c-7.004-5.855-15.146-8.787-24.428-8.787
			c-9.892,0-18.493,3.349-25.796,10.042c6.828-20.387,18.932-36.858,36.312-49.41c17.377-12.553,36.844-18.829,58.396-18.829
			c5.311,0,10.545,0.36,15.709,1.077l3.138-11.828c0.92-3.787,2.988-5.681,6.205-5.681c5.513,0,8.272,2.132,8.272,6.39
			c0,0.764-0.078,1.598-0.228,2.511L127.528,35.38z"/>
	</g>
</g>
</svg>
