<?xml version="1.0" encoding="utf-8"?>
<!-- Generator: Adobe Illustrator 17.0.0, SVG Export Plug-In . SVG Version: 6.00 Build 0)  -->
<!DOCTYPE svg PUBLIC "-//W3C//DTD SVG 1.1//EN" "http://www.w3.org/Graphics/SVG/1.1/DTD/svg11.dtd">
<svg version="1.1" id="Layer_1" xmlns="http://www.w3.org/2000/svg" xmlns:xlink="http://www.w3.org/1999/xlink" x="0px" y="0px"
	 width="200px" height="200px" viewBox="0 0 200 200" enable-background="new 0 0 200 200" xml:space="preserve">
<g>
	<path d="M5.014,38.836c0-0.885,0.153-1.573,0.466-2.061c0.31-0.486,0.509-0.908,0.598-1.263c6.028-1.507,10.46-2.261,13.299-2.261
		c6.825,0,15.113,1.951,24.867,5.851c8.421,3.37,16.044,7.359,22.872,11.968c4.343,2.925,9.396,6.96,15.16,12.101
		c4.874,4.255,9.707,8.511,14.494,12.766c0.709,0.179,1.151,0.045,1.33-0.399c-3.015-3.458-7.713-10.017-14.096-19.681
		c2.57,3.458,6.736,8.511,12.5,15.16c0.354-0.442,0.731-0.885,1.13-1.33c0.399-0.443,1.041-0.665,1.929-0.665
		c0.975,0,1.506,0.179,1.596,0.532c0.177,0.887,0.354,1.375,0.532,1.463l2.394-1.995c0.885,0.355,2.261,0.798,4.122,1.33
		c-1.509,1.509-2.261,3.547-2.261,6.117v0.798c4.875-8.066,12.5-15.912,22.872-23.538c9.752-7.268,19.37-12.587,28.857-15.958
		c2.746-0.974,6.803-1.972,12.167-2.992c5.363-1.018,9.375-1.529,12.035-1.529c3.191,0,6.117,0.399,8.776,1.197
		c3.724,1.242,5.585,3.059,5.585,5.452c0,3.281-1.375,6.25-4.122,8.91c-2.483,2.306-5.01,4.654-7.58,7.048
		c-3.104,3.724-5.896,8.689-8.378,14.894c-1.419,5.764-2.792,11.482-4.122,17.154c-2.307,8.777-4.743,13.165-7.313,13.165
		c-3.104,0-7.427-1.284-12.966-3.856c-5.541-2.57-9.598-3.856-12.168-3.856c-0.179,0.089-0.398,0.312-0.664,0.665
		c4.342,2.217,8.687,4.434,13.031,6.649c5.496,2.926,9.575,5.808,12.234,8.644c3.634,3.812,5.452,8.112,5.452,12.899
		c0,1.153-0.798,4.211-2.394,9.176c-1.153,3.281-2.261,6.562-3.324,9.84c-0.179,0.532-0.578,4.343-1.197,11.436
		c-0.444,4.521-1.994,7.979-4.654,10.373c-2.307,0.177-4.743-0.754-7.313-2.792c-3.989-3.191-6.117-4.876-6.383-5.053
		c-1.42-0.711-3.813-1.22-7.182-1.529c-3.37-0.312-5.408-0.688-6.117-1.13c-1.774-0.977-4.122-3.636-7.048-7.979
		c-2.04-3.104-4.078-6.25-6.117-9.441c0.532-11.17-3.147-23.98-11.037-38.431c0.088,10.639,0,17.776-0.266,21.41
		c-0.711,8.158-2.526,14.983-5.452,20.479c-2.307-2.394-4.301-6.427-5.984-12.101c-1.596-5.053-2.394-9.575-2.394-13.564
		c0-1.064,0.087-2.77,0.266-5.12c0.177-2.348,0.267-4.1,0.267-5.253v-0.798c-4.256,5.232-6.383,9.088-6.383,11.569
		c0,0.266,0.043,0.532,0.133,0.798h0.665l-0.532,0.931c-0.09-0.266-0.133-0.575-0.133-0.931l-0.798-0.133
		c-1.596,3.547-4.035,6.495-7.314,8.843c-3.28,2.35-6.781,3.524-10.505,3.524c-0.888,0-2.107-0.22-3.657-0.665
		c-1.552-0.443-2.726-0.665-3.524-0.665c0.886-0.885,1.33-1.949,1.33-3.191c0-1.772-0.621-3.368-1.861-4.787
		c-1.686,2.659-3.68,4.388-5.984,5.186c-1.242,0.445-3.104,0.71-5.585,0.798c-2.483,0.089-4.256,0.399-5.319,0.931
		c1.063,4.345,2.614,7.536,4.654,9.575c1.33-1.506,3.191-2.969,5.585-4.388c2.038-1.241,4.033-2.437,5.984-3.591
		c-2.217,1.509-4.478,3.015-6.782,4.521c-2.838,2.128-4.255,4.301-4.255,6.516c0,2.394,0.908,4.521,2.726,6.383
		c1.816,1.862,3.967,2.792,6.45,2.792c4.964,0,10.726-2.815,17.287-8.444c6.56-5.629,10.15-11.015,10.771-16.157v-3.059l0.133,1.33
		c0,0.532-0.046,1.109-0.133,1.729v3.59c0.353,2.66,0.531,4.389,0.531,5.187c0,0.71-0.089,1.419-0.266,2.127
		c-2.394,2.66-5.275,6.429-8.644,11.303c-0.09,1.596-0.266,3.325-0.532,5.187c-1.242,1.861-3.147,3.146-5.718,3.856
		c-3.812,0.885-5.984,1.506-6.517,1.861c-2.925,1.862-5.896,3.724-8.909,5.585c-3.989,2.394-7.048,3.59-9.176,3.59
		c-0.798,0-1.463-0.133-1.994-0.399c-2.483-3.281-4.035-7.359-4.654-12.234c-0.888-7.271-1.509-11.482-1.862-12.633
		c-0.266-0.885-1.552-3.989-3.856-9.309c-2.04-4.608-3.059-7.357-3.059-8.245c0-4.788,1.816-8.954,5.452-12.5
		c2.66-2.57,6.736-5.053,12.234-7.447c4.343-1.772,8.688-3.59,13.032-5.452c-3.637,0-7.825,0.399-12.566,1.197
		c-4.744,0.798-7.204,1.197-7.381,1.197c-4.787,0-8.511-2.082-11.17-6.25c-1.596-2.57-3.304-7.091-5.12-13.564
		c-1.818-6.47-3.437-10.815-4.854-13.032c-3.015-4.432-6.03-8.864-9.043-13.298C7.408,44.201,5.014,39.99,5.014,38.836z
		 M30.679,59.582l1.33,1.596c7.268-0.885,11.214-1.33,11.835-1.33c7.979,0,16.268,1.951,24.867,5.851
		c0.087,0.089,7.624,4.212,22.606,12.367c-4.168-3.9-7.048-6.516-8.644-7.846c-3.457-2.836-6.605-5.141-9.441-6.915
		c-1.242-0.798-3.059-1.639-5.452-2.526c-3.191-1.151-5.143-1.862-5.852-2.128c-3.28-1.772-6.562-3.501-9.84-5.186
		c-3.989-1.862-7.58-2.792-10.771-2.792c-2.749,0-6.296,1.419-10.639,4.255V59.582z M33.605,65.299
		c1.24,2.041,2.88,5.232,4.92,9.575c0.619,2.66,1.197,5.319,1.729,7.979c1.064,3.015,3.103,4.521,6.117,4.521
		c3.368,0,6.782-1.197,10.239-3.59c3.812-2.57,5.719-5.452,5.719-8.644c0-4.521-2.128-7.979-6.383-10.373
		c-3.458-1.949-7.67-2.926-12.634-2.926C40.298,61.842,37.062,62.995,33.605,65.299z M40.786,89.369
		c3.9,2.128,6.959,3.191,9.176,3.191c0.708,0,4.741-1.063,12.102-3.191c8.598-2.481,13.518-3.9,14.761-4.255
		c5.672-1.506,10.726-2.614,15.159-3.324c-1.774-0.708-3.503-1.417-5.187-2.128c-2.482-0.975-4.168-1.463-5.053-1.463
		c-4.877,0-11.659,1.818-20.346,5.453C52.442,87.287,45.573,89.192,40.786,89.369z M41.849,115.566c0,1.685,0.399,3.547,1.197,5.585
		h10.771c3.457-3.013,5.187-5.363,5.187-7.048c0-0.619-0.134-1.483-0.399-2.593c-0.266-1.107-0.398-1.972-0.398-2.593
		c0-1.507,1.373-3.856,4.122-7.048c2.215-2.57,4.21-4.565,5.984-5.984c-5.765,1.243-11.26,3.414-16.49,6.516
		C45.175,106.48,41.849,110.868,41.849,115.566z M62.329,110.513c0,0.887,0.486,2.084,1.463,3.59
		c1.329,1.862,2.082,3.015,2.261,3.458c-0.179-0.443-0.333-0.399-0.466,0.133c-0.133,0.532-0.199,1.153-0.199,1.862v3.59
		c0.619,0,1.529,0.179,2.726,0.532c1.197,0.355,2.148,0.532,2.859,0.532c3.013,0,5.187-0.841,6.516-2.527
		c2.039-2.394,5.273-6.869,9.708-13.431c5.141-7.713,7.713-12.145,7.713-13.298v-5.452h-3.324c-4.345,0-10.196,2.394-17.554,7.181
		C66.228,101.825,62.329,106.436,62.329,110.513z M62.462,78.863c1.151-0.087,8.245-1.107,21.276-3.059
		c-3.37-1.772-6.781-3.544-10.239-5.319c-3.989-1.949-7.492-3.412-10.505-4.389c0.087,0.355,0.531,1.642,1.329,3.856
		c0.619,1.596,0.932,2.926,0.932,3.99C65.255,75.894,64.323,77.534,62.462,78.863z M107.276,93.624c0,0.798,0.353,1.642,1.063,2.527
		c1.151,1.419,1.772,2.173,1.862,2.261c2.569,4.966,5.186,9.886,7.846,14.761c3.191,5.143,7.181,9.088,11.968,11.835
		c1.596,0.887,3.412,1.33,5.452,1.33c0.532,0,2.394-0.841,5.585-2.526c-1.685-2.481-2.526-4.388-2.526-5.718
		c0-0.885,0.599-1.795,1.795-2.726c1.197-0.931,1.796-1.882,1.796-2.859c0-4.343-4.256-9.529-12.767-15.559
		c-8.157-5.672-14.494-8.511-19.016-8.511c-0.267,0-0.532,0.045-0.798,0.133C108.028,90.08,107.276,91.762,107.276,93.624z
		 M111.398,83.119c6.204-0.442,13.83,0.445,22.873,2.66c0.353,0.089,3.367,0.977,9.042,2.66c4.521,1.419,7.357,2.127,8.511,2.127
		c3.9,0,6.782-1.462,8.644-4.388c-6.206-0.708-12.146-2.127-17.819-4.255c-2.925-1.24-5.851-2.481-8.776-3.724
		c-3.457-1.33-6.516-1.995-9.176-1.995C119.996,76.204,115.564,78.51,111.398,83.119z M115.52,73.943
		c5.852-3.013,11.657-5.984,17.421-8.91c8.688-4.166,14.315-6.25,16.889-6.25h18.617c0.087-0.442,0.31-1.018,0.664-1.729
		c0.354-0.708,0.532-1.506,0.532-2.394c0-1.151-0.864-2.46-2.593-3.923s-3.258-2.194-4.588-2.194c-1.596,0-5.275,0.754-11.037,2.261
		c-5.409,1.419-9.089,2.526-11.038,3.324c-2.749,1.064-6.96,4.079-12.633,9.043C123.676,66.719,119.597,70.309,115.52,73.943z
		 M117.781,117.162c-0.089,0.532-0.133,1.064-0.133,1.596c0,4.345,3.258,9.421,9.774,15.226c6.516,5.806,11.945,8.71,16.29,8.71
		h6.25c0.885-0.798,1.329-2.173,1.329-4.123s-0.997-4.343-2.991-7.181c-1.995-2.836-3.923-4.875-5.785-6.117
		c-1.242,1.33-2.04,2.127-2.394,2.394c-0.711,0.445-1.774,0.665-3.191,0.665c-4.521,0-8.157-1.218-10.904-3.657
		C123.277,122.238,120.528,119.734,117.781,117.162z M120.175,47.347l1.197-4.787h1.729l-1.196,4.787H120.175z M120.574,74.741
		c1.151,0,2.836,0.112,5.053,0.332c2.215,0.223,3.9,0.333,5.054,0.333c1.596,0,2.969-0.133,4.122-0.399
		c0-0.176,0.177-0.486,0.532-0.931c0.354-0.443,0.532-1.107,0.532-1.995c0-1.151-1.153-2.836-3.458-5.053
		C132.143,67.118,128.197,69.688,120.574,74.741z M129.35,92.826c4.521,3.724,7.002,5.808,7.447,6.25
		c2.836,2.572,4.874,5.053,6.117,7.447c0.353,0.887,1.018,3.902,1.994,9.043c0.709,3.547,2.261,6.073,4.654,7.58h7.58
		c1.507-2.481,2.261-4.831,2.261-7.048c0-4.255-1.818-7.979-5.452-11.17c-2.749-2.481-6.871-4.875-12.367-7.181
		C137.506,96.063,133.428,94.422,129.35,92.826z M135.867,72.347c0,2.926,2.082,5.542,6.25,7.846
		c3.634,2.04,7.091,3.058,10.372,3.058h8.909c-1.329-2.57-1.994-5.097-1.994-7.58c0-1.417,1.729-5.54,5.187-12.367
		c-2.483-2.304-5.054-3.458-7.713-3.458c-3.99,0-8.291,1.11-12.899,3.325C138.57,65.744,135.867,68.803,135.867,72.347z
		 M142.117,119.821c0.087,0.179,2.304,2.616,6.648,7.314c2.836,3.104,4.166,5.896,3.989,8.377l-0.133,1.064
		c0.532-2.481,1.417-6.161,2.66-11.038c-1.862-0.353-4.079-1.197-6.649-2.526C145.351,121.24,143.18,120.176,142.117,119.821z"/>
</g>
</svg>
