<?xml version="1.0" encoding="utf-8"?>
<!-- Generator: Adobe Illustrator 17.0.0, SVG Export Plug-In . SVG Version: 6.00 Build 0)  -->
<!DOCTYPE svg PUBLIC "-//W3C//DTD SVG 1.1//EN" "http://www.w3.org/Graphics/SVG/1.1/DTD/svg11.dtd">
<svg version="1.1" id="Layer_1" xmlns="http://www.w3.org/2000/svg" xmlns:xlink="http://www.w3.org/1999/xlink" x="0px" y="0px"
	 width="200px" height="200px" viewBox="0 0 200 200" enable-background="new 0 0 200 200" xml:space="preserve">
<g>
	<path d="M84.515,8.035c2.424,0.295,4.503,0.442,6.239,0.442v0.835c-0.558,0-0.835,0.131-0.835,0.393l-0.836-0.393h-1.67
		c-0.655,0.393-2.604,0.95-5.846,1.67c-7.304,3.701-12.854,7.582-16.653,11.643c-5.339,4.716-8.531,9.301-9.579,13.755
		c0,0.295-0.147,0.442-0.442,0.442l-0.393-0.835l0.393-0.835V34.71h-0.393c-3.701,5.765-6.207,11.888-7.517,18.373h-0.835
		l0.393-2.113c-0.459,0.066-1.424,3.963-2.898,11.692v4.569c0,9.17,2.783,16.817,8.352,22.941c0.36,1.277,1.604,2.948,3.733,5.011
		c3.373,4.716,6.436,7.074,9.187,7.074c0,1.965,3.603,3.635,10.808,5.011c1.113,0.557,1.67,0.966,1.67,1.228
		c-0.688,0-1.098,0.557-1.228,1.67c-5.993-1.113-10.021-2.358-12.085-3.733h-1.277v0.393h0.835v1.277h-0.835l-1.229-0.835h-0.441
		c0,0.655-1.114,2.326-3.341,5.011c0.295,0.524,0.442,0.933,0.442,1.228c0-0.557,2.227-1.113,6.681-1.67v0.442
		c0,0.196-0.835,1.032-2.505,2.505l0.835,1.228c-1.54,0-3.21,1.801-5.011,5.404l0.393,0.835l-0.835,1.67
		c0.295,0.491,0.442,1.048,0.442,1.67h0.835c2.03-2.915,4.257-4.716,6.681-5.404v0.393c-0.295,0.491-0.442,1.048-0.442,1.67
		c0.557,0.098,0.836,0.377,0.836,0.835c-1.376,3.21-2.489,6.828-3.341,10.856c0,0.688,0.704,2.768,2.112,6.239
		c0.557,0,1.244-1.523,2.063-4.569l0.835-0.442c1.179,0,1.883,1.67,2.112,5.011c1.735,5.076,3.946,8.417,6.632,10.021
		c9.955,5.567,15.376,8.351,16.261,8.351c0.982,0,3.209,0.409,6.681,1.228h5.403c0.95,0,1.933-0.41,2.948-1.228l2.505,0.393h0.393
		v-0.835h-1.67v-0.835c1.048,0,3.145,0.425,6.288,1.277h4.127l2.112-0.442v0.442c0.491,0,3.127-0.835,7.909-2.505l-0.394-0.835
		v-0.442c0-0.459,2.079-1.147,6.239-2.063c4.061-2.326,9.89-8.302,17.488-17.931c1.834-0.786,3.651-3.569,5.453-8.351
		c1.112-1.506,2.357-5.666,3.733-12.478h-0.442c0.557-0.884,1.113-5.895,1.67-15.032h0.442l-0.442-0.835v-4.568
		c0-0.295-0.131-0.442-0.393-0.442l0.393-0.835c-0.557-0.982-1.522-3.897-2.898-8.744h0.442c-1.113-1.67-1.67-2.783-1.67-3.341
		h-0.442c0,1.572-1.113,4.078-3.341,7.516c0,1.114-0.278,1.67-0.835,1.67s-0.835-0.278-0.835-0.835
		c0.852-1.015,1.277-1.981,1.277-2.898c-0.852,0-1.277-0.278-1.277-0.835l0.835-1.277V78.48l-0.393-2.898h-0.835
		c-0.623,3.046-1.458,4.568-2.506,4.568v0.442c0,0.262,0.131,0.393,0.394,0.393l-3.734,6.239c-4.257,4.454-7.45,6.681-9.579,6.681
		c-0.229,0-1.064,0.147-2.505,0.442l-0.835-0.442c-0.558,0.294-0.983,0.442-1.277,0.442l-0.394-0.835
		c0.262,0,0.394-0.147,0.394-0.442l0.835,0.442c4.191,0,6.288-0.704,6.288-2.112v-0.393c-2.031,0.491-3.423,1.048-4.176,1.67h-3.783
		c-1.67,0-2.768,1.114-3.291,3.341c-0.557,0-1.67,1.114-3.341,3.34c-6.025,6.649-10.333,9.972-12.919,9.972v-1.228
		c0.262,0,0.393,0.131,0.393,0.393c2.718-0.753,4.797-2.276,6.239-4.568h-0.394c-0.917,0.557-1.752,0.835-2.505,0.835h-0.442v-0.442
		c4.061-1.572,6.713-3.782,7.958-6.632v-0.442l-0.835-0.393l-2.112,1.67h-0.394v-0.835c8.318-10.086,12.479-19.682,12.479-28.787
		c0.294-1.735,0.441-3.684,0.441-5.846c0-7.499-2.637-15.408-7.909-23.728c-1.801-1.965-3.34-2.947-4.617-2.947v-1.67
		c2.03-0.818,3.422-1.228,4.176-1.228V33.04h-4.569v-1.229h1.671l2.063-0.442c0,0.295,0.146,0.442,0.441,0.442V31.37
		c-1.604-1.048-4.389-2.162-8.351-3.34h-4.176c-0.394,0-0.803-0.409-1.229-1.229c1.376-0.36,2.063-0.769,2.063-1.228
		c-0.263,0-0.393-0.147-0.393-0.442c1.67-1.113,3.749-1.801,6.238-2.063v-0.442l0.835,0.442h1.229v-0.442
		c-1.212-1.375-4.127-2.489-8.744-3.341c-0.721,0-1.688,0.426-2.898,1.277h-0.835v-0.835l0.393-0.835l-0.835,0.393h-0.393
		c-0.295,0-0.442-0.13-0.442-0.393c-3.897,1.54-5.846,2.931-5.846,4.175h-1.229l0.394-2.112v-0.393h-1.229l-1.229,0.835
		l-0.441-0.835c0-0.491,1.522-1.195,4.568-2.112c0-0.655,1.113-2.325,3.341-5.011c-2.588-1.375-4.39-2.063-5.404-2.063
		c-5.47,1.933-9.366,4.012-11.691,6.239l-0.394-0.835l1.229-1.67h-0.835c0,0.557-1.098,1.949-3.292,4.175h-0.441
		c0-0.294-0.132-0.704-0.394-1.228l0.394-1.67v-0.442h-0.394c-0.229,2.784-0.655,4.176-1.277,4.176
		c-0.557,0-0.835-0.278-0.835-0.835c0-2.685,2.227-5.878,6.681-9.579h0.394c-0.263,0.589-0.54,1.834-0.835,3.733
		c3.831-1.637,6.059-2.456,6.681-2.456c2.882-0.295,5.109-0.72,6.681-1.277c0,0.393,0.836,0.819,2.506,1.277
		c0,0.721,1.948,1.54,5.846,2.456v0.835c-1.604,0-2.588,1.114-2.947,3.341h2.947c4.781,0,9.219,1.817,13.312,5.453
		c0.295,0.524,0.442,0.934,0.442,1.228c-0.557,0.099-0.835,0.377-0.835,0.835v0.442c1.277,0,3.356,1.933,6.239,5.797v0.835
		c-0.558,0.098-0.836,0.377-0.836,0.835c0,0.557,0.426,0.835,1.277,0.835v1.277c-0.229,0-1.064-0.147-2.505-0.442l-2.506,0.442
		v0.393c0.885,0,2.555,0.278,5.011,0.835v0.442l-0.441,0.835c-2.358-0.557-3.751-0.835-4.176-0.835c0,0.59,2.079,1.834,6.238,3.734
		c2.228,2.98,3.341,5.207,3.341,6.681c0.295,2.096,0.72,3.488,1.277,4.176h-0.442l0.442,0.835c0,0.557-0.278,0.835-0.835,0.835
		h-0.442c0-0.622-0.131-1.179-0.393-1.67h0.393c-0.558-2.783-1.113-4.176-1.67-4.176l-0.836,0.393
		c-0.622-1.67-1.162-2.505-1.621-2.505v0.442c1.376,2.849,2.751,7.008,4.127,12.478h0.442v-4.126h0.835
		c0,0.589,0.277,3.079,0.835,7.467c0,0.165-0.147,0.721-0.442,1.67l0.442,1.67c0,0.131-0.147,0.688-0.442,1.67l0.442,1.67
		c-1.343,10.349-2.882,17.57-4.618,21.664h3.783l5.011-1.228l-0.442-0.835c4.159-1.277,6.239-2.8,6.239-4.568
		c-0.558,0-0.835-0.278-0.835-0.835c2.783-3.93,4.175-7.401,4.175-10.415h0.836v-2.112c0.098-0.557,0.376-0.835,0.835-0.835
		c3.078,2.686,4.617,6.714,4.617,12.085h0.394c0-0.72,0.277-1.834,0.835-3.341c-0.558-1.768-0.835-2.881-0.835-3.34h1.277
		c0.817,0.164,1.915,1.982,3.291,5.453c1.834,1.245,3.373,4.847,4.618,10.807c0.262,0,0.54,0.705,0.835,2.112
		c0,0.263-0.147,0.393-0.442,0.393c0.295,2.424,0.72,4.372,1.277,5.846c0,0.294-0.147,0.442-0.442,0.442l0.442,2.063v0.835
		c0,0.982-0.147,2.228-0.442,3.733l0.442,0.835c-0.295,0.558-0.442,0.983-0.442,1.277h-0.835l0.442-5.011
		c0-0.557-0.279-0.835-0.835-0.835c0,0.295-0.147,0.705-0.442,1.228h0.442l-0.836,2.948c0.557,0.884,0.836,1.572,0.836,2.063
		c-0.295,0-0.442,0.147-0.442,0.442c0.557,0.066,0.835,0.344,0.835,0.835v0.393c0,1.212-0.278,2.326-0.835,3.34h0.442l-0.442,0.835
		l0.442,0.835c-0.786,0.098-1.769,2.456-2.948,7.074c-0.818,0-1.507,1.261-2.062,3.783c0.262,0.524,0.393,0.934,0.393,1.228
		c-0.688,0-1.229,1.67-1.621,5.011h-0.835v-1.228h-0.442c0,0.917-1.245,3.275-3.733,7.074c-1.638,3.014-3.177,5.093-4.618,6.239
		l-6.632,6.239c-0.229,0-3.013,1.817-8.351,5.453c-2.588,1.932-5.781,3.733-9.58,5.404l-0.441-0.835l0.441-0.835h-0.441
		c-4.716,1.179-7.074,2.292-7.074,3.341c0,2.128-0.558,4.634-1.67,7.516c0,1.932,0.835,2.898,2.505,2.898
		c2.325,1.408,7.745,2.931,16.261,4.568c0.753,2.718,1.588,4.11,2.505,4.176v0.835c-1.31,0-2.293,0.278-2.947,0.835h-6.632v0.442
		c2.555,2.653,4.634,5.158,6.239,7.516c0,1.179-0.705,2.276-2.113,3.292c0-0.819-1.801-1.375-5.403-1.67
		c-4.716-3.242-7.074-5.175-7.074-5.797l-2.112,0.393l-4.568-3.34c-0.491,0-1.458,0.982-2.898,2.947
		c-1.146,0-2.964,0.966-5.453,2.898h-2.505c0-1.507-0.558-2.473-1.67-2.898c-0.263-0.491-0.394-1.048-0.394-1.67
		c0.327,0,1.162-1.54,2.506-4.618c3.504-2.652,5.452-5.42,5.846-8.302l-1.277,0.835c0-0.295-0.132-0.442-0.394-0.442l0.394-0.835
		v-8.351l-0.835-1.228c-1.114,0.557-2.08,0.835-2.898,0.835c-2.194,0-4.979-0.557-8.352-1.67c-1.049,1.474-2.161,4.389-3.341,8.745
		v2.112c5.534,3.242,8.45,6.288,8.745,9.137l-2.457,2.112c0.557,0.065,0.835,0.344,0.835,0.835c-0.982,0.262-1.539,0.393-1.67,0.393
		l-8.352-2.063c-1.474,0-3.979,1.244-7.516,3.733c-1.016,0.851-1.981,1.277-2.898,1.277H77c0,0.556-1.817,1.522-5.453,2.898
		c0,0.295-0.131,0.442-0.393,0.442h-1.229c0-1.114-0.705-1.67-2.112-1.67c-0.263,0-0.394,0.131-0.394,0.393
		c-1.735-0.557-2.719-1.245-2.947-2.063c0.557-1.507,1.948-2.621,4.176-3.341c2.488-1.899,3.733-3.013,3.733-3.34
		c-0.557-0.557-3.881-1.261-9.972-2.112l-0.836-1.228v-0.835l0.836-1.228v-0.442l-0.836-1.229l0.836-0.442v0.442l0.835-0.442h3.733
		l0.835-0.393v0.393c0.557-0.263,0.982-0.393,1.277-0.393l-0.442-0.835v-0.835h0.835c0.295,0,0.442,0.131,0.442,0.393l0.786-0.393
		l1.67,0.393l2.112-0.393c1.834,0.262,3.636,0.393,5.404,0.393c1.67,0,2.505-1.245,2.505-3.733c0.557-4.291,0.835-7.484,0.835-9.579
		c-1.08-0.852-1.916-1.277-2.505-1.277v-0.835h0.442c0.523,0.295,0.933,0.442,1.228,0.442v-0.835c-0.655,0-1.49-0.426-2.505-1.277
		l-1.671,0.442c-0.688,0-2.637-2.096-5.846-6.288c-1.179,0-2.276-1.654-3.291-4.962h-0.442v4.126H67.42l-2.947-2.456
		c-0.393,2.194-1.08,3.292-2.062,3.292c-0.558-0.459-0.983-2.539-1.277-6.239h0.441l-0.441-0.835v-2.505
		c-1.114,0-1.671-0.278-1.671-0.835l0.442-0.835c-0.295,0-0.442-0.13-0.442-0.393c0.295,0,0.442-0.147,0.442-0.442h-0.835
		l0.393-0.835l-0.393-0.835l0.835-1.67c0-0.262-0.147-0.393-0.442-0.393c0.557-2.685,0.835-4.208,0.835-4.569
		c-0.818,0-1.506,0.835-2.062,2.505h-1.277c0-0.327-0.132-0.753-0.394-1.277l0.394-2.063l-0.394-2.947h0.394l-0.394-0.835v-3.34
		c0-1.277,0.966-3.356,2.898-6.239h-0.393c-0.263,0-1.376,0.278-3.341,0.835h-1.228v-1.228c0.621,0,1.588-1.948,2.898-5.846
		c-0.558,0-0.836-0.278-0.836-0.835v-0.442l2.506-2.898c-2.85-4.421-5.207-7.057-7.074-7.909c-0.558-1.604-2.375-4.536-5.453-8.793
		c0-2.227-0.835-4.584-2.505-7.074c-1.114-1.834-2.228-4.339-3.341-7.516h0.442c-0.558-1.703-0.835-2.8-0.835-3.292
		c1.375-2.39,2.063-4.765,2.063-7.123h-0.394l0.394-0.835v-1.229c0-6.124,0.982-10.856,2.947-14.197c0.425,0,1.26-2.489,2.505-7.467
		c3.046-4.453,8.188-10.856,15.426-19.208c3.733-3.603,8.597-6.927,14.59-9.973C80.323,9.035,82.551,8.33,84.515,8.035z
		 M46.149,56.816c0,0.262,0.131,0.393,0.393,0.393l-0.393,0.835v1.277l0.393,0.835l-0.835,0.393h-0.393l0.393-2.898
		c-0.263,0-0.393-0.147-0.393-0.442L46.149,56.816z M46.542,53.918v2.505h-0.835v-1.67C45.805,54.197,46.083,53.918,46.542,53.918z
		 M85.744,160.224c-0.688,6.648-1.376,9.972-2.063,9.972l1.229,2.112c0,0.622-1.671,1.457-5.011,2.505v-0.442l-0.835,0.442h-5.011
		l-2.898,0.393v-0.393c-2.489,0.655-3.734,1.064-3.734,1.229l-0.835-0.393h-1.67l-0.835,2.456c2.128,0.852,6.009,1.277,11.643,1.277
		c1.113-0.295,1.67-0.852,1.67-1.67h0.442c0.196,0,0.605,0.409,1.229,1.229c-2.031,3.013-5.503,5.665-10.415,7.958
		c-0.459,0.818-1.425,1.228-2.898,1.228c0.262,0.557,0.394,0.982,0.394,1.277c6.353,0,12.33-2.375,17.931-7.123v-0.393h1.276
		c0,0.557,0.131,0.835,0.394,0.835c0.818-0.294,1.228-0.573,1.228-0.835l0.836,0.393h4.175c0,0.294,0.147,0.72,0.442,1.277
		l0.835-0.442c0.295,0,0.704,0.147,1.229,0.442c0.72,0,1.981-0.426,3.782-1.277v-0.393c-5.862-5.175-8.793-7.958-8.793-8.351v-0.393
		c0.491-1.016,1.326-4.225,2.505-9.628c-0.262,0-0.393-0.131-0.393-0.393h0.393C91.982,161.714,89.902,160.748,85.744,160.224z
		 M70.712,66.838v0.393l0.835-0.393c1.638,0,3.586,2.21,5.846,6.632l0.442,2.112c0,1.933-1.54,3.324-4.618,4.176l-2.505-0.442
		c1.67,1.409,2.505,2.244,2.505,2.505l-0.835,0.442c-2.555,0-4.765-3.209-6.632-9.629h0.394l-0.394-0.786v-1.277
		c0.688,0,1.097-0.688,1.229-2.063C68.943,67.395,70.187,66.838,70.712,66.838z M67.42,70.178v2.898
		c0,0.426,0.966,1.114,2.898,2.063h0.836c0-1.375,0.556-2.063,1.67-2.063c-0.36-3.046-1.326-4.569-2.898-4.569L67.42,70.178z
		 M86.579,75.582c3.438,0.459,7.188,2.538,11.25,6.239c0.393,0,1.637,1.54,3.733,4.618c-3.21,4.585-6.256,8.466-9.138,11.643
		c-0.524,0.884-2.194,2.407-5.011,4.569c-1.245-2.292-3.193-4.65-5.846-7.074c0-0.818-1.393-2.767-4.176-5.846
		c-0.884-1.113-1.998-1.67-3.34-1.67c0-1.179,0.277-2.276,0.835-3.291h-0.394c0,0.557-0.278,0.835-0.835,0.835
		c-0.558,0-0.835-0.278-0.835-0.835c0-0.95,2.079-2.341,6.239-4.176c0-0.197,1.392-1.588,4.175-4.176h0.442
		c0.262,0,0.394,0.131,0.394,0.393L86.579,75.582z M85.744,78.922c0,0.557-0.278,0.835-0.835,0.835
		c-0.524-0.295-0.934-0.442-1.229-0.442c-3.635,2.424-5.453,4.242-5.453,5.453h0.442c4.748,2.194,8.072,3.291,9.973,3.291h0.441
		c4.717-1.081,7.074-2.178,7.074-3.291v-0.442c-3.177-2.227-5.126-3.897-5.846-5.011H89.92v0.442
		C89.461,79.431,88.069,79.152,85.744,78.922z M86.971,96.853c0-0.72-2.21-3.504-6.632-8.351h-0.835v0.393
		c1.671,2.784,4.159,5.715,7.467,8.793h0.442c6.681-4.552,10.021-7.892,10.021-10.021h-0.442c-3.864,1.867-6.223,4.372-7.073,7.516
		L86.971,96.853z M104.067,69.343c4.192,0.819,6.288,2.751,6.288,5.796v2.113c-1.507,3.045-3.603,4.568-6.288,4.568
		c0,0.295-0.131,0.442-0.393,0.442h-0.442c-1.212-0.425-2.866-2.375-4.962-5.846v-2.112C98.27,70.997,100.203,69.343,104.067,69.343
		z M100.334,71.849c0.557,0.066,0.835,0.328,0.835,0.786l-0.835,1.277l0.394,0.835c-0.524,0.098-0.786,0.376-0.786,0.835v0.393
		l2.898,0.442c0-0.229,0.13-1.064,0.393-2.505c-0.263-1.539-0.393-2.653-0.393-3.34h-1.277
		C101.169,70.571,100.76,70.997,100.334,71.849z M110.355,163.516v11.298c0,2.489-2.375,5.813-7.123,9.973l-0.393,2.112
		c0.688,0.557,1.244,0.835,1.67,0.835c0.523-0.294,0.934-0.442,1.229-0.442v0.442c1.768-0.655,3.307-1.769,4.617-3.34
		c0.557,0,0.835-0.705,0.835-2.112h1.229c1.702,0,7.4,3.471,17.096,10.415l2.062,0.442l0.442-0.835v-0.393
		c-0.622,0-1.458-0.835-2.505-2.505c-0.819-1.409-2.343-2.8-4.569-4.176l-5.011-4.175c0-0.393,0.409-0.819,1.229-1.277
		c5.174,1.67,8.515,2.505,10.021,2.505h3.341v-1.67c-0.853-0.623-2.932-1.31-6.239-2.063v0.393
		c-1.965-0.819-4.896-1.507-8.793-2.063c-1.376-0.852-2.063-1.54-2.063-2.063h-2.063l-1.277,0.835v-0.835
		c0.852-2.751,1.277-4.7,1.277-5.846c0-0.295-0.147-0.442-0.442-0.442l0.442-2.063v-3.783h-4.176
		C110.634,162.779,110.355,163.057,110.355,163.516z M104.902,20.955h1.277c0,0.557-0.278,0.835-0.835,0.835h-0.442V20.955z
		 M107.408,19.727l0.442,0.835l-0.836,0.393h-0.835V20.12C106.474,20.12,106.884,19.99,107.408,19.727z M109.52,108.938h2.898v0.393
		l-2.898,0.442V108.938z M120.769,98.523v0.393c0,0.852-1.67,2.522-5.011,5.011v0.393h-0.393v-1.228
		C118.674,100.046,120.475,98.523,120.769,98.523z M117.429,25.131c0,0.557,1.801,1.114,5.403,1.67h0.442v-0.393
		c-2.652-0.852-4.323-1.277-5.011-1.277H117.429z M119.934,23.903v0.393c1.769,0.558,2.734,0.835,2.898,0.835
		c0-0.393-0.409-0.802-1.228-1.228H119.934z M148.673,97.688h0.442c1.932,0,3.455,0.835,4.568,2.505
		c-1.113,4.323-1.949,6.812-2.505,7.467v0.442l1.276,1.67v0.393c-0.557,1.998-0.835,3.112-0.835,3.34
		c0.262,0.557,0.394,0.982,0.394,1.277c-0.394,0-0.803,0.41-1.229,1.228l0.394,4.176l-1.229,2.063c0.262,0,0.393,0.147,0.393,0.442
		c-5.207,5.863-8.679,9.186-10.414,9.972c-1.113,0.459-1.67,1.016-1.67,1.67h-1.671c0-0.557-0.131-0.835-0.393-0.835
		c-1.802,0.558-3.062,0.835-3.783,0.835h-3.291c-0.426,0-2.243-0.688-5.453-2.063v-1.228h0.442l3.733,1.621h3.733
		c3.963,0,8.695-2.636,14.197-7.909c0-0.491,0.688-1.457,2.063-2.898v-2.112h-0.835c0,0.852-1.376,1.687-4.127,2.505h-1.67
		c-0.426,0-0.853-0.409-1.277-1.228c0-0.491,1.539-1.048,4.618-1.67l2.062-2.112v-0.393c-2.554,1.933-4.225,2.898-5.011,2.898
		v-0.835c5.567-4.716,8.352-7.762,8.352-9.137h-0.442c-3.111,2.784-4.912,4.175-5.403,4.175c-1.179,0.819-2.293,1.229-3.341,1.229
		l-0.393-0.835c2.881-1.113,4.683-2.227,5.403-3.34h-0.393l-3.341,2.112h-0.835v-0.835c1.211-0.229,4.126-3.013,8.744-8.351v-2.063
		l-2.112-0.442v0.442l-0.835-0.442c-1.639,0-4.962,1.392-9.973,4.175h-1.277c-0.263,0-0.393-0.147-0.393-0.442
		c-3.898,2.358-7.238,5.977-10.021,10.856c-2.489,3.472-3.733,6.386-3.733,8.744h-1.671v-1.228c0.557-1.048,1.523-3.685,2.898-7.909
		c2.227-2.718,3.618-5.092,4.176-7.123c2.03-2.849,4.536-4.65,7.517-5.404c2.39-1.277,5.026-2.112,7.908-2.505
		C146.003,99.081,148.083,98.114,148.673,97.688z M125.339,93.906l-1.671,2.112c0.753-0.197,1.457-0.9,2.112-2.112H125.339z
		 M128.286,92.235c0,0.164-0.558,1.556-1.67,4.176h0.393c1.408-1.965,2.112-3.209,2.112-3.734L128.286,92.235z M131.577,83.933
		c0,0.589-0.54,2.391-1.621,5.404h1.229l0.835-3.733v-1.67H131.577z M159.137,133.942h0.393v0.393
		c-0.655,1.67-1.212,2.505-1.67,2.505v-0.393C158.154,134.777,158.579,133.942,159.137,133.942z"/>
</g>
</svg>
