<?xml version="1.0" encoding="utf-8"?>
<!-- Generator: Adobe Illustrator 17.0.0, SVG Export Plug-In . SVG Version: 6.00 Build 0)  -->
<!DOCTYPE svg PUBLIC "-//W3C//DTD SVG 1.1//EN" "http://www.w3.org/Graphics/SVG/1.1/DTD/svg11.dtd">
<svg version="1.1" id="Layer_1" xmlns="http://www.w3.org/2000/svg" xmlns:xlink="http://www.w3.org/1999/xlink" x="0px" y="0px"
	 width="200px" height="200px" viewBox="0 0 200 200" enable-background="new 0 0 200 200" xml:space="preserve">
<g>
	<path d="M178.999,89.463c8.034,13.762,12.053,25.758,12.053,35.995c0,11.779-5.119,19.979-15.355,24.602
		c-5.614,2.534-11.009,3.798-16.181,3.798c-10.898,0-20.09-5.173-27.574-15.521c-2.312-3.191-4.02-6.218-5.119-9.081l3.963-1.486
		c-4.515,0.111-9.138,1.213-13.87,3.302c1.321,3.744,3.852,10.019,7.595,18.823l-12.714,5.449
		c-4.073-9.466-6.826-16.125-8.255-19.979c-2.092,0.223-4.128,0.331-6.109,0.331c-4.953,0-9.192-0.55-12.714-1.651
		c-1.651,7.817-4.68,15.025-9.081,21.63l-11.558-7.761c3.741-5.613,6.164-11.777,7.265-18.492c-4.293-1.21-8.256-1.925-11.888-2.146
		l3.632,0.825c-0.66,3.524-2.312,7.157-4.953,10.897c-5.064,7.266-12.275,11.999-21.63,14.2c-2.312,0.552-4.624,0.825-6.935,0.825
		c-5.725,0-11.145-1.677-16.264-5.036c-5.118-3.356-8.944-7.678-11.475-12.961l12.548-6.109c3.411,6.716,8.475,10.072,15.19,10.072
		c1.541,0,2.807-0.108,3.798-0.331c7.373-1.65,12.438-5.613,15.19-11.888c-7.595,0.771-12.164,1.156-13.705,1.156
		c-2.972,0-6.439-0.55-10.402-1.651c-5.284-1.321-7.926-3.081-7.926-5.284c0-1.65,2.696-4.347,8.091-8.09
		c6.713-4.513,10.897-8.091,12.548-10.732c2.09-3.411,5.284-8.476,9.577-15.19c4.731-7.044,10.346-12.657,16.842-16.842
		c8.475-5.393,18.217-8.091,29.225-8.091c9.024,0,17.667,3.194,25.923,9.576c4.623,3.524,10.841,9.854,18.658,18.988
		c6.824,8.037,12.053,12.936,15.686,14.695c10.675,5.395,16.016,9.742,16.016,13.044c0,1.762-1.212,3.633-3.632,5.614
		c-3.302,2.642-11.173,3.632-23.611,2.972c4.731,7.926,10.622,11.889,17.667,11.889c3.302,0,6.77-0.826,10.402-2.478
		c4.843-2.2,7.265-6.163,7.265-11.888c0-7.814-3.632-17.887-10.897-30.216c-1.321,0.111-1.762,0.165-1.321,0.165
		c-5.506,0-10.211-1.925-14.117-5.779c-3.909-3.852-5.862-8.529-5.862-14.034c0-5.503,1.953-10.181,5.862-14.035
		c3.906-3.852,8.611-5.778,14.117-5.778c5.503,0,10.18,1.927,14.035,5.778c3.852,3.854,5.779,8.532,5.779,14.035
		C184.777,80.988,182.85,85.611,178.999,89.463z M67.712,112.744c3.632,0,6.687-1.238,9.164-3.715s3.715-5.531,3.715-9.164
		c0-3.521-1.267-6.548-3.798-9.081c-2.534-2.531-5.56-3.798-9.081-3.798c-3.633,0-6.688,1.238-9.164,3.715s-3.715,5.531-3.715,9.164
		s1.238,6.688,3.715,9.164S64.079,112.744,67.712,112.744z M68.042,105.645c-3.194,0-4.789-1.595-4.789-4.788
		c0-3.303,1.595-4.954,4.789-4.954c3.191,0,4.788,1.651,4.788,4.954C72.83,104.05,71.233,105.645,68.042,105.645z M114.604,113.239
		c3.632,0,6.687-1.238,9.164-3.715c2.477-2.477,3.715-5.531,3.715-9.164c0-3.521-1.267-6.548-3.798-9.081
		c-2.533-2.531-5.56-3.798-9.081-3.798c-3.524,0-6.55,1.267-9.081,3.798c-2.534,2.533-3.798,5.56-3.798,9.081
		c0,3.633,1.238,6.688,3.715,9.164C107.917,112.001,110.972,113.239,114.604,113.239z M114.439,105.645
		c-3.194,0-4.789-1.595-4.789-4.788c0-3.303,1.595-4.954,4.789-4.954c3.191,0,4.788,1.651,4.788,4.954
		C119.227,104.05,117.63,105.645,114.439,105.645z M127.153,57.431l9.742-10.071l9.577,9.411l-9.742,9.907L127.153,57.431z
		 M150.599,41.91l13.209-4.128l3.467,11.394l-13.375,4.128L150.599,41.91z M164.964,81.538c1.651,0,3.026-0.578,4.127-1.734
		c1.099-1.155,1.651-2.559,1.651-4.21s-0.552-3.055-1.651-4.211c-1.102-1.155-2.477-1.733-4.127-1.733
		c-1.651,0-3.055,0.578-4.21,1.733c-1.156,1.156-1.734,2.56-1.734,4.211s0.578,3.055,1.734,4.21
		C161.909,80.96,163.312,81.538,164.964,81.538z M184.447,40.259l10.567,9.082l-8.42,9.741l-10.567-9.081L184.447,40.259z"/>
</g>
</svg>
