<?xml version="1.0" encoding="utf-8"?>
<!-- Generator: Adobe Illustrator 17.0.0, SVG Export Plug-In . SVG Version: 6.00 Build 0)  -->
<!DOCTYPE svg PUBLIC "-//W3C//DTD SVG 1.1//EN" "http://www.w3.org/Graphics/SVG/1.1/DTD/svg11.dtd">
<svg version="1.1" id="Layer_1" xmlns="http://www.w3.org/2000/svg" xmlns:xlink="http://www.w3.org/1999/xlink" x="0px" y="0px"
	 width="200px" height="200px" viewBox="0 0 200 200" enable-background="new 0 0 200 200" xml:space="preserve">
<g>
	<path d="M25.678,99.376c1.735,0,3.472-0.143,5.207-0.434l-0.65,1.085l69.874-5.425c-8.826-5.931-13.237-14.682-13.237-26.257
		c0-8.823,2.604-16.852,7.812-24.088c5.496-7.812,12.511-12.006,21.049-12.586c6.652-0.576,13.02,0.146,19.096,2.17
		c13.309,4.198,21.7,13.166,25.172,26.908c21.843,1.448,33.635,5.859,35.371,13.237c-1.594,8.104-12.227,12.152-31.898,12.152
		c-2.462,0-5.066-0.071-7.812-0.218c-7.523,7.67-11.358,12.01-11.501,13.021c14.465,9.981,21.7,20.906,21.7,32.767
		c0,14.902-9.26,26.549-27.776,34.938c-14.468,6.655-30.163,9.981-47.089,9.981c-23.147,0-41.376-4.699-54.684-14.104
		c-15.481-10.851-22.931-27.125-22.352-48.825c-3.764-4.34-6.727-12.224-8.896-23.653C11.281,96.267,18.154,99.376,25.678,99.376z
		 M130.164,70.624c1.953-1.953,2.929-4.303,2.929-7.053c0-2.746-0.976-5.134-2.929-7.161c-1.953-2.024-4.307-3.038-7.053-3.038
		c-2.75,0-5.1,1.014-7.053,3.038c-1.953,2.027-2.93,4.415-2.93,7.161c0,2.75,0.977,5.1,2.93,7.053s4.303,2.93,7.053,2.93
		C125.857,73.554,128.211,72.577,130.164,70.624z"/>
</g>
</svg>
