<?xml version="1.0" encoding="utf-8"?>
<!-- Generator: Adobe Illustrator 17.0.0, SVG Export Plug-In . SVG Version: 6.00 Build 0)  -->
<!DOCTYPE svg PUBLIC "-//W3C//DTD SVG 1.1//EN" "http://www.w3.org/Graphics/SVG/1.1/DTD/svg11.dtd">
<svg version="1.1" id="Layer_1" xmlns="http://www.w3.org/2000/svg" xmlns:xlink="http://www.w3.org/1999/xlink" x="0px" y="0px"
	 width="200px" height="200px" viewBox="0 0 200 200" enable-background="new 0 0 200 200" xml:space="preserve">
<g>
	<path d="M166.268,60.101c3.721,3.641,5.583,8.132,5.583,13.472v74.034c0,5.34-1.862,9.872-5.583,13.593
		c-3.725,3.725-8.173,5.583-13.351,5.583h-6.554l5.34,25.487c-0.326,1.457-1.539,2.754-3.641,3.884
		c-0.971,0.485-2.105,0.892-3.398,1.214c-3.076,0.645-5.583-0.08-7.524-2.185l-8.981-28.4H60.922l-8.981,28.366
		c-1.783,1.965-4.29,2.704-7.525,2.219c-4.047-1.312-6.395-3.042-7.039-5.181l5.34-25.404h-2.67c-5.181,0-9.63-1.858-13.351-5.583
		c-3.724-3.721-5.582-8.253-5.582-13.593V73.572c0-5.34,1.858-9.831,5.582-13.472c3.721-3.642,8.17-5.462,13.351-5.462h35.683
		c-20.39-14.724-30.342-27.346-29.856-37.866c0.322-5.826,3.8-10.354,10.438-13.594c2.587-1.293,5.177-1.941,7.768-1.941
		c2.75,0,5.42,0.728,8.01,2.185c9.547,5.34,16.101,20.795,19.662,46.362c3.398-24.918,9.952-40.131,19.661-45.635
		c2.428-1.456,5.015-2.185,7.768-2.185c4.369,0,8.454,1.54,12.259,4.612c3.8,3.076,5.783,6.797,5.946,11.166
		c0.646,10.194-8.901,22.494-28.643,36.896h44.178C158.095,54.639,162.544,56.459,166.268,60.101z M140.296,86.923
		c0-5.178-1.862-9.588-5.583-13.229c-3.725-3.641-8.173-5.461-13.351-5.461H58.494c-5.181,0-9.588,1.82-13.229,5.461
		c-3.641,3.642-5.461,8.052-5.461,13.229v35.439c0,5.181,1.82,9.63,5.461,13.35c3.642,3.725,8.049,5.583,13.229,5.583h62.868
		c5.178,0,9.626-1.858,13.351-5.583c3.721-3.72,5.583-8.169,5.583-13.35V86.923z M55.217,97.117
		c-1.862-1.778-2.791-4.043-2.791-6.796c0-2.587,0.929-4.813,2.791-6.676c1.858-1.858,4.085-2.791,6.676-2.791
		c2.587,0,4.812,0.933,6.675,2.791c1.858,1.862,2.792,4.089,2.792,6.676c0,2.753-0.934,5.018-2.792,6.796
		c-1.862,1.783-4.088,2.67-6.675,2.67C59.302,99.787,57.075,98.9,55.217,97.117z M79.369,43.473
		c-3.239-17.313-7.524-27.509-12.865-30.584c-1.456-0.809-3.238-0.729-5.34,0.242c-2.753,1.297-4.126,2.754-4.126,4.369
		C56.712,23.167,64.156,31.821,79.369,43.473z M80.826,111.925l0.242,0.242v0.243c1.779,4.532,4.771,6.717,8.981,6.554
		c4.691-0.322,8.09-2.587,10.194-6.797l10.195,4.612c-3.884,8.253-10.521,12.622-19.904,13.107
		c-9.709,0.648-16.347-3.884-19.904-13.593L80.826,111.925z M103.886,44.201c15.209-11.488,22.654-20.147,22.331-25.973
		c0-1.616-1.376-3.072-4.126-4.369c-1.942-0.971-3.725-0.971-5.34,0C111.41,16.772,107.121,26.888,103.886,44.201z M110.56,96.268
		c-1.862-1.858-2.791-4.084-2.791-6.675c0-2.587,0.929-4.813,2.791-6.676c1.858-1.858,4.085-2.791,6.676-2.791
		c2.586,0,4.812,0.933,6.675,2.791c1.858,1.862,2.792,4.089,2.792,6.676c0,2.591-0.934,4.816-2.792,6.675
		c-1.862,1.862-4.089,2.792-6.675,2.792C114.645,99.06,112.419,98.13,110.56,96.268z M161.899,144.451
		c0-5.178-2.591-7.768-7.768-7.768c-5.181,0-7.768,2.59-7.768,7.768c0,5.181,2.587,7.768,7.768,7.768
		C159.308,152.219,161.899,149.632,161.899,144.451z"/>
</g>
</svg>
