<?xml version="1.0" encoding="utf-8"?>
<!-- Generator: Adobe Illustrator 17.0.0, SVG Export Plug-In . SVG Version: 6.00 Build 0)  -->
<!DOCTYPE svg PUBLIC "-//W3C//DTD SVG 1.1//EN" "http://www.w3.org/Graphics/SVG/1.1/DTD/svg11.dtd">
<svg version="1.1" id="Layer_1" xmlns="http://www.w3.org/2000/svg" xmlns:xlink="http://www.w3.org/1999/xlink" x="0px" y="0px"
	 width="200px" height="200px" viewBox="0 0 200 200" enable-background="new 0 0 200 200" xml:space="preserve">
<g>
	<path d="M99.144,3.997v0.425l0.902-0.425C100.79,4.6,101.391,4.9,101.851,4.9c2.584,0,5.292-0.159,8.124-0.478
		c5.098,0.319,7.646,0.779,7.646,1.381c0.319,0,0.479-0.16,0.479-0.478c14.406,1.098,21.609,2.16,21.609,3.186
		c4.212,2.302,6.318,4.708,6.318,7.221c0.283,0,0.585,1.187,0.903,3.558c-0.318,1.204-0.479,2.266-0.479,3.186
		c0,0.284,0.16,0.425,0.479,0.425l-0.479,2.283v1.805c0.071,1.487,0.372,2.23,0.903,2.23c-0.603,0.991-0.903,1.894-0.903,2.708
		v1.327c0,1.274,0.16,2.938,0.479,4.991l-0.479,0.903c0,0.284,0.16,0.424,0.479,0.424c0,9.735-2.708,16.194-8.124,19.38
		c-4.319,1.204-9.434,2.407-15.345,3.61c0,0.319-0.142,0.478-0.425,0.478h-5.416c-1.098,0.885-2.142,1.327-3.132,1.327
		c-2.549,0-6.302,0.16-11.257,0.478c0-0.92-4.372-1.823-13.114-2.708c0-0.318-0.143-0.478-0.425-0.478v0.902
		c2.371,6.584,4.919,12,7.646,16.248c3.292-1.699,5.097-2.902,5.416-3.611v-3.61c0-0.672-0.143-1.274-0.425-1.805
		c0.425-1.203,0.866-1.805,1.327-1.805h1.381l3.132,2.708c0.39-3.292,1.734-4.938,4.036-4.938c1.698,0,2.761,2.248,3.186,6.743
		c1.097-0.602,2.301-0.903,3.61-0.903h1.327c0.602,0,1.062,1.044,1.381,3.133c-1.027,2.726-2.531,4.088-4.514,4.088v1.327
		l1.806,2.23v2.708c-0.885,1.522-1.788,2.283-2.708,2.283c-1.204-0.92-3.77-1.982-7.699-3.186l-2.654,3.186v0.425
		c3.575,4.425,5.663,6.832,6.266,7.221c1.38,2.584,3.044,4.991,4.99,7.221c1.31,1.628,2.955,5.08,4.938,10.354h-0.425
		c1.77,3.894,2.654,6.443,2.654,7.646l-0.425,0.903c0.425,0,0.867,0.762,1.328,2.283c1.202,0.885,3.008,1.486,5.415,1.805
		l0.479-0.903v-0.902c0-2.124-0.461-6.177-1.381-12.159c0-0.566,0.301-1.77,0.902-3.61l-0.902-2.283
		c1.026-12.601,2.689-18.902,4.991-18.902c2.053-3.61,4.441-5.416,7.168-5.416c2.902-2.088,6.513-3.433,10.831-4.035
		c2.478,0.284,3.982,0.584,4.514,0.902v-0.478c5.416,1.593,8.124,3.54,8.124,5.841c0.601,0,0.902,0.46,0.902,1.38
		c0,2.23-0.902,5.681-2.708,10.354c0,1.168-1.505,4.177-4.514,9.026c0,1.522-0.602,3.77-1.805,6.743
		c0,0.708-1.045,3.417-3.133,8.124l0.425,2.23c-0.885,0-1.327,1.062-1.327,3.186v2.708c0,0.284-0.159,0.425-0.479,0.425
		c0,0.318,0.16,0.478,0.479,0.478l-1.806,8.07c0.283,0,0.425,3.77,0.425,11.31c-2.195,2.088-4,3.273-5.416,3.557
		c-7.186-1.38-10.778-2.726-10.778-4.035c-0.425,0-1.187-1.044-2.283-3.133c-1.203-0.318-2.248-0.478-3.133-0.478
		c-6.902,1.735-10.354,3.681-10.354,5.84c-0.496,0-2.301,1.664-5.415,4.991c-1.417,1.415-2.921,2.318-4.514,2.708
		c-1.168,1.521-2.814,2.566-4.938,3.132c0,1.239-1.062,4.69-3.187,10.354v0.902h0.479l1.327-0.902c0.318,0,0.478,0.159,0.478,0.478
		c0-0.602,3.451-1.062,10.354-1.38v0.478c0.282,0,0.424-0.159,0.424-0.478c2.619,0.141,6.071,1.646,10.354,4.513
		c0.92,1.274,1.822,3.08,2.708,5.416c0.212,0,0.672,0.743,1.38,2.229v5.416c-0.814,4.213-2.018,6.318-3.61,6.318
		c-0.318,0-0.478-0.141-0.478-0.424l-2.23,0.424h-18.478c-0.673,0-1.274,0.16-1.805,0.479c-3.222-0.461-5.027-0.92-5.416-1.381
		c-3.045,0.602-7.098,1.062-12.159,1.381c0,0.283-0.743,0.584-2.229,0.902l-2.283-0.479H70.312c-1.062,0-2.407,0.16-4.035,0.479
		c-4.531-0.779-6.796-2.441-6.796-4.99h-0.425c0.602-3.611,1.646-7.205,3.133-10.779h3.186c3.61,0,5.416-2.867,5.416-8.602
		c0.283,0,0.425-0.443,0.425-1.328v-3.186c-6.62,1.805-10.071,2.708-10.354,2.708l-2.283-0.425l-1.753,0.902
		c-0.566-0.602-4.336-1.204-11.309-1.805c0-0.673-3.594-2.018-10.779-4.035c-5.415-4.107-8.123-6.673-8.123-7.699
		c-0.461,0-1.062-0.602-1.806-1.805v-5.416c3.292-3.894,7.203-5.841,11.734-5.841l3.133,0.478c3.787,0,6.336-2.265,7.646-6.796
		v-0.902h-0.425c0.672-4.177,1.115-6.266,1.327-6.266c0.319,0,0.619-0.761,0.903-2.283c0-0.565-0.302-1.61-0.903-3.132
		c0.319-3.292,0.479-6.159,0.479-8.602v-7.646c0-0.672,0.141-1.274,0.425-1.805l-0.425-0.903c0.177-2.407,0.478-3.61,0.902-3.61
		l-0.902-2.655c0.283-0.531,0.425-1.132,0.425-1.805c0-0.319-0.142-0.478-0.425-0.478l0.425-0.902v-2.708
		c0-0.283-0.142-0.425-0.425-0.425c0-0.319,0.141-0.478,0.425-0.478l-0.425-1.805l0.425-3.133l-0.425-1.805l0.425-2.283
		c0-0.389-0.302-2.035-0.903-4.938c0-0.318,0.16-0.761,0.479-1.327L47.322,65.27l0.479-1.805c-0.319-4.212-0.779-6.318-1.381-6.318
		c0.318-0.566,0.478-1.009,0.478-1.328c0-7.964-0.301-16.07-0.902-24.318c1.381-9.026,3.026-13.54,4.938-13.54
		c0-2.194,3.752-4.743,11.257-7.646c3.751-0.602,6.159-1.504,7.221-2.708l1.806,0.425c1.521-0.602,6.777-1.646,15.77-3.133
		c0.602,0.284,1.062,0.425,1.38,0.425c0-0.283,0.142-0.425,0.425-0.425c0,0.284,0.159,0.425,0.479,0.425V4.9
		c0.282,0,0.425,0.142,0.425,0.425C94.259,5.042,97.409,4.6,99.144,3.997z M104.135,8.935c-0.885,0-6.902,0.159-18.053,0.478
		c-5.806,1.487-10.761,2.389-14.866,2.708c-3.895,0.602-6.443,1.204-7.646,1.805c0-0.319-0.159-0.478-0.478-0.478
		c-0.071,0.673-1.575,1.434-4.513,2.283c-3.576,1.664-5.363,3.61-5.363,5.84c-1.38,0-2.442,3.895-3.186,11.681
		c-0.283,0-0.425,0.603-0.425,1.806c0.283,2.159,0.425,3.363,0.425,3.61h-0.425c0.283,0.531,0.425,1.133,0.425,1.805h2.283
		c0.672,0,1.274,0.159,1.806,0.478c0.495-0.319,1.097-0.478,1.805-0.478h1.327c3.009,1.204,4.514,2.708,4.514,4.513
		c0.283,0.39,0.425,1.452,0.425,3.186c-0.991,6.584-2.779,9.876-5.363,9.876c-1.168,1.38-3.274,2.744-6.318,4.088
		c0.814,1.452,1.558,4.744,2.23,9.876h0.478c0-3.929,1.946-6.92,5.841-8.973h1.327c5.416,0.814,8.124,1.858,8.124,3.132
		c0.778,3.222,1.381,5.169,1.805,5.841c-0.602,2.266-0.902,4.372-0.902,6.318v2.283c-0.248,0.814-1.894,2-4.938,3.557h-3.61
		c-0.673-0.531-2.178-0.973-4.514-1.327c0-1.062-0.902-3.008-2.708-5.84v-0.478h-0.425v2.283c0.602,0.956,0.903,1.858,0.903,2.708
		v3.133l-0.479,0.903c0.92,0,1.381,0.301,1.381,0.902l0.902-0.478c4.778,0.779,7.168,2.885,7.168,6.318v1.805
		c-1.947,3.894-4.797,5.84-8.548,5.84l0.478,3.186c-0.603,0.106-0.902,0.407-0.902,0.902v0.425h0.425
		c0.176-1.77,2.424-3.857,6.743-6.265c2.265,0.779,3.468,1.522,3.61,2.23c-0.284,0-0.425,0.142-0.425,0.425
		c0.53,0.318,1.132,0.478,1.805,0.478v3.61c0,3.186-2.566,5.593-7.698,7.221c-1.629-0.602-3.115-1.504-4.46-2.708v4.035
		c3.751,0.992,6.743,2.938,8.973,5.841l1.381,4.088v0.902c-0.603,1.133-3.009,2.478-7.222,4.036c-3.292,3.54-4.938,5.487-4.938,5.84
		c0,4.142-2.407,8.655-7.221,13.54l-2.283,0.425v-0.425l-0.903,0.425h-0.849c-0.603,0-2.106-0.284-4.514-0.85
		c-5.734,0.637-8.602,1.681-8.602,3.133v0.902c2.832,3.61,6.602,6.159,11.31,7.646c0.813,1.203,4.707,2.566,11.681,4.088
		c0.92,0,1.982,0.141,3.187,0.425v-0.425l0.902,0.425h4.46c7.362-1.806,12.478-2.708,15.345-2.708l1.327,1.805
		c0,5.274-1.346,11.575-4.035,18.901c-0.673,0.992-3.222,2.053-7.646,3.188l-0.903,3.131v1.381l4.514-0.477h6.266
		c1.521,0.07,2.283,0.371,2.283,0.902l0.902-0.426l0.902,0.426v-0.426l0.902,0.426h3.611c2.123-0.604,3.326-0.902,3.61-0.902
		c2.124,0.318,3.31,0.477,3.558,0.477c0-0.318,0.159-0.477,0.478-0.477v0.477l0.902-0.477h3.61c1.699,0,2.743-0.143,3.133-0.426
		c1.628,0.283,2.991,0.426,4.089,0.426h5.362c0.708,0,1.31,0.158,1.806,0.477c0.53-0.318,1.132-0.477,1.805-0.477v0.477l0.903-0.477
		h2.707c1.098,0,2.46-0.143,4.089-0.426l0.902,0.426c1.203-0.426,1.806-0.869,1.806-1.328v-0.902
		c-1.522-8.425-3.788-12.637-6.797-12.637h-1.805c-8.673,0-14.229,1.203-16.672,3.61l-4.514,2.283l-3.133-0.902v-1.806
		c4.07-2.442,6.778-6.354,8.124-11.734c3.292-7.327,4.938-13.628,4.938-18.902c0-10.832-1.203-16.247-3.61-16.247
		c-0.53,0.318-1.133,0.478-1.805,0.478c-0.284,0-0.425-0.159-0.425-0.478l-7.646,1.327c0-0.283-0.159-0.425-0.478-0.425
		c0,0.284-0.142,0.425-0.425,0.425v-0.425c-2.089,0.885-4.354,1.487-6.796,1.805c-1.204-0.459-1.806-0.92-1.806-1.38v-0.425
		c0-1.486,4.955-3.132,14.867-4.938c0.318,0,0.478,0.142,0.478,0.425c0.283,0,0.425-0.141,0.425-0.425
		c7.752,0.39,11.964,2.479,12.637,6.266c0.213,0,0.654,2.708,1.327,8.124c-0.602,1.983-1.203,5.592-1.805,10.832
		c-0.284,0-0.425,0.141-0.425,0.425h0.902c5.557-4.566,9.469-9.964,11.734-16.194c1.203-3.894,1.806-6.743,1.806-8.548v-1.38
		c0-4.212-2.267-10.371-6.797-18.478c-3.363-4.885-6.814-9.08-10.354-12.583c-3.61-4.813-5.416-7.38-5.416-7.699l-5.416-6.265
		c-3.575-8.141-6.124-15.203-7.646-21.186c-0.603,0-0.902-0.3-0.902-0.902v-0.903c0.106-0.602,0.406-0.902,0.902-0.902h1.806
		c1.026,0.814,4.335,1.416,9.929,1.805v0.425c0.283,0,0.425-0.141,0.425-0.425l4.513,0.425h10.832c6.619,0,9.929-0.442,9.929-1.328
		l1.752,0.425c8.778-1.912,13.734-3.416,14.867-4.513c1.274-2.619,2.035-3.964,2.283-4.035c-0.318-0.566-0.478-1.009-0.478-1.328
		l-7.168,1.328l-0.903-0.425c0,0.284-0.159,0.425-0.478,0.425v-0.425c-6.159,1.487-12.46,2.23-18.902,2.23h-3.61l-2.283,0.425
		l-0.425-0.903c-0.318,0-0.478,0.16-0.478,0.478l-1.752-0.478l-2.283,0.478l-0.903-0.478c-1.239,0.603-2.142,0.903-2.707,0.903
		v-0.425l-0.903,0.425c-7.787-1.239-11.681-2.725-11.681-4.46c-0.709,0-1.47-0.761-2.283-2.283l-4.514,2.283
		c-0.566-0.319-1.009-0.478-1.327-0.478v-1.805c0-1.699,3.009-3.646,9.026-5.84h1.327c0.602,0.071,0.903,0.372,0.903,0.902v1.328
		c-0.603,1.204-1.346,1.805-2.23,1.805c1.663,3.328,4.813,4.991,9.451,4.991c1.558-0.318,2.46-0.478,2.708-0.478
		c1.628,0.318,2.831,0.478,3.61,0.478c2.124-0.318,3.31-0.478,3.558-0.478c0.318,0,0.478,0.159,0.478,0.478l3.133-0.478h9.504
		l0.903,0.478c0-0.318,0.141-0.478,0.425-0.478v0.478l0.902-0.478h3.133c3.964-0.884,9.681-1.787,17.149-2.708
		c0.602-2.867,1.044-6.619,1.328-11.256l-0.903-14.867h0.479c0-2.974-1.646-5.522-4.938-7.646c-2.266-0.602-4.372-0.902-6.318-0.902
		h-3.61V9.413c-7.575-0.319-13.593-0.478-18.053-0.478h-4.46c-0.318,0-0.478-0.141-0.478-0.425
		C104.895,8.794,104.454,8.935,104.135,8.935z M54.544,43.66c0,0.603-0.302,0.903-0.903,0.903h-3.61v0.425
		c0,1.098,0.159,2.46,0.478,4.088c-0.318,0.566-0.478,1.009-0.478,1.328l0.478,1.805l-0.478,1.805
		c0.318,1.664,0.478,2.867,0.478,3.61h0.425c0.92,0,3.168-1.062,6.743-3.186v-1.328c0.921-2.867,1.381-4.672,1.381-5.416v-0.425
		C59.056,45.571,57.552,44.369,54.544,43.66z M57.251,131.48c3.894,0,5.841,1.665,5.841,4.991v2.708
		c-0.814,2.089-2.62,3.132-5.416,3.132h-2.229c-2.089-1.062-3.133-2.566-3.133-4.513C53.728,133.587,55.375,131.48,57.251,131.48z
		 M54.119,117.516v3.186c0,2.548-0.302,4.496-0.903,5.84h0.425c0.247-0.813,2.053-1.858,5.416-3.132v-0.903
		C59.056,120.986,57.411,119.322,54.119,117.516z M54.119,89.588l0.425,2.283l-0.425,4.035l0.902,0.478
		c2.371-1.912,3.558-3.575,3.558-4.991c-0.391-1.203-1.735-1.805-4.035-1.805H54.119z M56.826,134.667l-1.38,2.23v1.805
		c0.106,0.602,0.406,0.902,0.902,0.902h2.23c0.602,0,0.902-0.3,0.902-0.902v-2.708C59.481,135.392,58.596,134.95,56.826,134.667z
		 M56.348,72.491c1.521,4.496,3.327,6.743,5.416,6.743c0,1.522,0.442,2.283,1.327,2.283c1.521-1.982,2.283-3.486,2.283-4.513v-4.991
		c0-1.062-0.46-2.566-1.381-4.513c-5.097,0-7.646,1.204-7.646,3.61V72.491z M57.676,106.738v1.328h1.806
		c2.124-1.946,3.186-3.15,3.186-3.611c-0.425,0-0.885-0.442-1.38-1.327C58.879,103.942,57.676,105.145,57.676,106.738z
		 M73.499,90.968h2.229c0,1.417,0.301,2.461,0.903,3.133v2.283c0,0.284-0.16,0.425-0.479,0.425c0.46,0.673,0.92,2.62,1.381,5.84
		l-0.478,0.903c0,0.743,0.3,2.85,0.902,6.318h-0.425c0.884,1.947,1.327,4.354,1.327,7.221v0.424c-0.496,0-2.886,0.762-7.168,2.283
		c0.07,0.603,0.372,0.903,0.902,0.903c0.531,0,1.717-0.3,3.558-0.903l0.479,0.903v1.327c-0.921,1.417-1.381,2.62-1.381,3.611h1.381
		l3.132-4.036c1.806,0.85,2.708,1.894,2.708,3.133h1.806v-0.902c-0.85-2.088-1.593-3.133-2.23-3.133v-0.903
		c1.876-1.203,3.38-1.805,4.514-1.805l1.327-1.805h-5.416c-0.602,0-0.902-0.3-0.902-0.903v-4.513l0.902-1.327v-5.416
		c0-0.318,0.159-0.478,0.479-0.478c0-0.283-0.16-0.425-0.479-0.425l0.479-3.186v-3.557c1.025-2.124,1.77-3.186,2.229-3.186h0.902
		c0.602,0.106,0.903,0.408,0.903,0.903v6.743c-0.603,1.735-1.045,5.806-1.328,12.212c4.495,0,6.744,1.187,6.744,3.558v0.902
		l-5.841,3.611c0.602,2.23,0.902,3.735,0.902,4.513c-2.229,1.522-3.895,2.283-4.991,2.283l-3.133-1.381
		c0,1.452-0.902,2.655-2.707,3.611h-2.283c-0.461,0-1.045-0.602-1.753-1.805v-3.611l0.425-0.902l-0.902,0.478h-0.902
		c-2.089,0-3.133-0.902-3.133-2.708c0-2.583,2.088-4.548,6.266-5.894l0.478-2.655c-0.709,0-1.452-5.557-2.23-16.672v-4.088
		C73.197,92.296,73.499,91.854,73.499,90.968z M91.498,11.218l0.903,0.425c0.53-0.283,1.132-0.425,1.805-0.425h0.425
		c1.663,0,2.867,0.743,3.61,2.23v0.478c0,0.284-0.142,0.425-0.425,0.425c0.283,0.318,0.584,2.266,0.903,5.84
		c-1.098,2.726-3.062,4.088-5.895,4.088h-3.132l-1.328,0.903h-0.902l-5.416-2.283l-1.38-2.708v-1.327
		C80.667,14.758,84.277,12.209,91.498,11.218z M87.463,15.253v0.478c2.371,0,3.558,1.044,3.558,3.133
		c0,0.885-1.187,1.486-3.558,1.805c-1.204,0-1.806-0.903-1.806-2.708h-0.478v1.805c0,1.204,1.946,1.805,5.841,1.805
		c2.726,0,4.088-0.761,4.088-2.283c-0.354-2.69-0.814-4.036-1.38-4.036c-0.318,0-0.762,0.16-1.327,0.478
		c-1.204-0.318-2.249-0.478-3.133-0.478H87.463z M109.975,11.643c0.602,0,0.902,0.159,0.902,0.478l2.23-0.478h3.186
		c2.088,1.346,3.133,2.85,3.133,4.513v1.805c0,3.009-1.346,4.814-4.035,5.416c-1.699,1.486-3.664,2.23-5.894,2.23
		c-3.505,0-6.496-1.345-8.974-4.036v-4.088C102.789,13.59,105.94,11.643,109.975,11.643z M110.878,69.783l-1.805,6.318
		c-0.531,0-1.735-1.362-3.61-4.088h-0.425c0,0.602-0.159,0.902-0.479,0.902l1.381,5.416c-2.089,2.408-3.753,3.61-4.991,3.61v0.903
		c0.46,0,1.062,0.443,1.806,1.327l5.84-4.46h0.479c2.229,2.089,3.876,3.133,4.938,3.133h0.902v-0.903
		c-0.602-1.203-1.345-1.805-2.229-1.805v-0.902c0-1.097,1.806-2.301,5.416-3.611v-1.327h-0.479
		c-3.434,1.204-5.238,1.805-5.415,1.805c0-0.602-0.302-0.903-0.903-0.903c0.602-1.168,0.903-2.832,0.903-4.991v-0.425H110.878z
		 M109.073,15.253l1.805,1.806v0.424c0,1.629-0.602,2.691-1.805,3.186h-1.806c-1.204-0.495-1.805-1.398-1.805-2.708h-0.425v1.805
		c0.389,1.487,1.434,2.23,3.132,2.23h1.328c0.672-0.531,2.035-0.973,4.088-1.327l1.327-2.283v-2.655
		c0-0.602-0.301-0.903-0.902-0.903C111.958,15.113,110.311,15.253,109.073,15.253z M134.294,92.773v1.806
		c0,1.911,0.159,3.858,0.478,5.84l-0.902,4.035c0.459,0,1.362,6.46,2.708,19.38c0.601,0,0.902,1.062,0.902,3.186v3.133
		c-0.318,0.885-1.222,1.327-2.708,1.327c-1.204,0-2.567-0.884-4.089-2.655l-4.938-1.38c0,0.142-0.159,0.743-0.478,1.805l0.478,0.903
		c-0.709,2.407-1.168,3.61-1.381,3.61l0.479,2.23c0,2.549-0.461,4.354-1.381,5.416c5.345-1.203,8.654-1.806,9.929-1.806h0.479
		c4.494,0.779,6.743,2.283,6.743,4.513c1.415,1.203,2.761,1.806,4.035,1.806h0.902c0-1.487,0.301-2.23,0.902-2.23l-0.425-2.283
		v-10.779c0-0.708,0.142-1.309,0.425-1.805l-0.425-0.902c0.602-5.522,1.806-10.335,3.611-14.442
		c0.212-2.513,1.716-6.265,4.513-11.256c2.088-4.212,3.734-9.026,4.938-14.442V83.27c0-0.884-1.505-1.468-4.513-1.752
		c-4.885,0-10.743,2.089-17.575,6.266C135.196,89.766,134.294,91.429,134.294,92.773z M135.674,17.961v5.416
		c0,0.885-0.46,2.69-1.38,5.416h-2.23c0-0.247-0.301-1.009-0.902-2.283c0.884-1.805,1.628-4.654,2.229-8.548H135.674z
		 M138.806,16.634c1.203,2.089,1.806,3.576,1.806,4.46v3.61c-0.496,1.204-1.54,1.805-3.133,1.805
		c-0.603-1.203-1.062-1.805-1.381-1.805l0.479-3.133v-4.088C136.577,16.918,137.32,16.634,138.806,16.634z"/>
</g>
</svg>
