<?xml version="1.0" encoding="utf-8"?>
<!-- Generator: Adobe Illustrator 17.0.0, SVG Export Plug-In . SVG Version: 6.00 Build 0)  -->
<!DOCTYPE svg PUBLIC "-//W3C//DTD SVG 1.1//EN" "http://www.w3.org/Graphics/SVG/1.1/DTD/svg11.dtd">
<svg version="1.1" id="Layer_1" xmlns="http://www.w3.org/2000/svg" xmlns:xlink="http://www.w3.org/1999/xlink" x="0px" y="0px"
	 width="200px" height="200px" viewBox="0 0 200 200" enable-background="new 0 0 200 200" xml:space="preserve">
<g>
	<path d="M5.827,99.132c0.125-4.722,2.169-8.168,6.127-10.34l7.276-38.68c1.403-5.486,4.084-9.765,8.042-12.829
		c3.063-2.297,6.19-3.638,9.383-4.021h0.383l82.719,0.191c6.128,0.766,10.849,3.192,14.17,7.276
		c2.552,3.063,4.021,6.576,4.404,10.531l7.659,32.36l28.722,2.105c3.318,0.258,6.157,1.502,8.521,3.734
		c2.361,2.234,3.543,5.011,3.543,8.329v31.978c0,3.446-1.179,6.352-3.53,8.712c-2.355,2.363-5.186,3.542-8.494,3.542H160.82
		c-0.892,6.128-3.659,11.235-8.302,15.318c-4.644,4.087-10.083,6.128-16.318,6.128c-6.234,0-11.674-2.041-16.317-6.128
		c-4.644-4.083-7.348-9.19-8.111-15.318H71.312c-0.771,6.128-3.5,11.235-8.186,15.318c-4.686,4.087-10.175,6.128-16.467,6.128
		s-11.782-2.041-16.468-6.128c-4.685-4.083-7.413-9.19-8.183-15.318h-4.622c-3.468,0-6.388-1.211-8.764-3.638
		c-2.375-2.424-3.563-5.296-3.563-8.616L5.827,99.132z M71.312,86.111V50.305H38.57c-1.406,0.634-2.298,1.896-2.681,3.787
		l-6.128,32.02H71.312z M46.612,149.49c2.935,0,5.457-1.041,7.563-3.129c2.106-2.089,3.159-4.587,3.159-7.498
		c0-2.908-1.053-5.406-3.159-7.494c-2.106-2.089-4.629-3.133-7.563-3.133c-2.938,0-5.457,1.044-7.563,3.133
		c-2.106,2.088-3.159,4.586-3.159,7.494c0,2.911,1.053,5.409,3.159,7.498C41.155,148.449,43.674,149.49,46.612,149.49z
		 M88.546,86.111h40.402l-7.659-33.51c-0.129-1.148-1.215-1.914-3.255-2.297H88.546V86.111z M135.842,149.49
		c3.063,0,5.615-1.041,7.659-3.129c2.04-2.089,3.063-4.587,3.063-7.498c0-2.908-1.023-5.406-3.063-7.494
		c-2.044-2.089-4.596-3.133-7.659-3.133c-2.938,0-5.457,1.044-7.563,3.133c-2.106,2.088-3.16,4.586-3.16,7.494
		c0,2.911,1.054,5.409,3.16,7.498C130.385,148.449,132.903,149.49,135.842,149.49z"/>
</g>
</svg>
