<?xml version="1.0" encoding="utf-8"?>
<!-- Generator: Adobe Illustrator 17.0.0, SVG Export Plug-In . SVG Version: 6.00 Build 0)  -->
<!DOCTYPE svg PUBLIC "-//W3C//DTD SVG 1.1//EN" "http://www.w3.org/Graphics/SVG/1.1/DTD/svg11.dtd">
<svg version="1.1" id="Layer_1" xmlns="http://www.w3.org/2000/svg" xmlns:xlink="http://www.w3.org/1999/xlink" x="0px" y="0px"
	 width="200px" height="200px" viewBox="0 0 200 200" enable-background="new 0 0 200 200" xml:space="preserve">
<g>
	<path d="M169.969,96.136c0,19.427-6.76,39.938-20.278,61.535c-15.231,24.398-32.557,36.985-51.979,37.761
		c-13.676,0.466-26.495-5.438-38.459-17.715c-10.257-10.409-18.728-24.085-25.407-41.023c-6.217-15.537-9.323-29.446-9.323-41.724
		c0-5.128,0.619-9.243,1.864-12.354c6.993-17.715,31.154-26.572,72.491-26.572c17.715,0,31.467,1.632,41.257,4.896
		c11.498,3.886,20.355,10.646,26.572,20.278C168.88,84.638,169.969,89.609,169.969,96.136z M124.283,49.052
		c25.64-14.604,38.46-23.852,38.46-27.738c0-0.31-0.156-0.542-0.466-0.699c-0.313-0.152-0.933-0.232-1.865-0.232
		c-6.526,0-17.405,3.962-32.633,11.888c1.552-5.904,2.331-10.723,2.331-14.452c0-4.972-1.245-7.691-3.729-8.158
		c-5.75,0.623-14.917,7.226-27.504,19.812c-7.772-8.857-14.143-14.917-19.113-18.181c-2.021-1.398-3.729-2.174-5.128-2.331
		c-3.577,1.712-5.518,9.247-5.827,22.609c-15.231-7.925-25.797-11.887-31.7-11.887c-0.933,0-1.632,0.156-2.099,0.466
		c-1.555,3.264,10.489,13.053,36.129,29.369c10.565-1.398,18.957-2.098,25.174-2.098C109.984,47.576,119.308,48.119,124.283,49.052z
		 M61.815,88.91c0-4.196-2.487-6.446-7.459-6.76c-4.975,0.313-7.459,2.563-7.459,6.76c0,3.886,2.484,9.247,7.459,16.083
		C59.328,98.157,61.815,92.796,61.815,88.91z M81.861,130.633c0-5.594-2.954-8.078-8.857-7.459
		c-4.043,1.089-6.061,3.264-6.061,6.526c0,4.196,3.416,9.557,10.256,16.083C80.305,139.414,81.861,134.362,81.861,130.633z
		 M105.869,87.978c0-4.195-2.487-6.446-7.459-6.76c-4.975,0.313-7.459,2.564-7.459,6.76c0,3.886,2.484,9.247,7.459,16.083
		C103.382,97.225,105.869,91.863,105.869,87.978z M128.945,130.399c0-3.572-2.178-5.747-6.526-6.526
		c-5.595-0.466-8.392,1.865-8.392,6.993c0,3.886,1.785,9.09,5.361,15.616C125.759,139.804,128.945,134.442,128.945,130.399z
		 M147.825,88.91c0-4.196-2.487-6.446-7.459-6.76c-4.975,0.313-7.458,2.563-7.458,6.76c0,4.042,2.483,9.403,7.458,16.083
		C145.338,98.313,147.825,92.952,147.825,88.91z"/>
</g>
</svg>
