<?xml version="1.0" encoding="utf-8"?>
<!-- Generator: Adobe Illustrator 17.0.0, SVG Export Plug-In . SVG Version: 6.00 Build 0)  -->
<!DOCTYPE svg PUBLIC "-//W3C//DTD SVG 1.1//EN" "http://www.w3.org/Graphics/SVG/1.1/DTD/svg11.dtd">
<svg version="1.1" id="Layer_1" xmlns="http://www.w3.org/2000/svg" xmlns:xlink="http://www.w3.org/1999/xlink" x="0px" y="0px"
	 width="200px" height="200px" viewBox="0 0 200 200" enable-background="new 0 0 200 200" xml:space="preserve">
<g>
	<path d="M199.413,86.744c0,10.354-3.464,19.18-10.389,26.486c-6.928,7.306-15.565,11.341-25.915,12.101
		c7.61,7.46,11.417,16.519,11.417,27.171c0,10.81-3.732,19.942-11.188,27.399c-7.46,7.459-16.593,11.188-27.399,11.188
		c-11.113,0-20.475-4.109-28.084-12.329c-3.197-3.5-5.708-7.382-7.535-11.646c-2.283,4.721-5.251,8.83-8.905,12.33
		c-7.307,6.85-16.061,10.274-26.257,10.274c-10.81,0-19.943-3.728-27.399-11.188c-7.46-7.456-11.188-16.59-11.188-27.399
		c0-10.806,3.957-20.014,11.873-27.627c-9.133-1.827-16.593-6.279-22.376-13.357c-5.787-7.078-8.676-15.259-8.676-24.545
		c0-13.393,5.479-23.896,16.439-31.509c6.696-4.566,14.078-6.85,22.147-6.85c5.937,0,11.719,1.37,17.353,4.109v-0.456
		c-0.153-1.674-0.229-3.271-0.229-4.795c0-9.59,3.347-17.998,10.046-25.23C79.845,13.645,87.99,9.57,97.58,8.657
		c10.653-1.063,20.093,1.712,28.312,8.334c8.22,6.621,12.861,15.262,13.928,25.915c0.457,4.109,0.303,8.069-0.457,11.872
		c6.393-4.413,13.546-6.621,21.462-6.621c10.653,0,19.75,3.768,27.285,11.302C195.646,66.994,199.413,76.092,199.413,86.744z
		 M99.635,136.291c9.283,0,17.238-3.311,23.86-9.933c6.622-6.621,9.932-14.573,9.932-23.859c0-9.283-3.311-17.239-9.932-23.86
		s-14.577-9.932-23.86-9.932c-9.287,0-17.239,3.311-23.86,9.932c-6.622,6.621-9.932,14.577-9.932,23.86
		c0,9.286,3.311,17.238,9.932,23.859C82.396,132.98,90.348,136.291,99.635,136.291z"/>
</g>
</svg>
