<?xml version="1.0" encoding="utf-8"?>
<!-- Generator: Adobe Illustrator 17.0.0, SVG Export Plug-In . SVG Version: 6.00 Build 0)  -->
<!DOCTYPE svg PUBLIC "-//W3C//DTD SVG 1.1//EN" "http://www.w3.org/Graphics/SVG/1.1/DTD/svg11.dtd">
<svg version="1.1" id="Layer_1" xmlns="http://www.w3.org/2000/svg" xmlns:xlink="http://www.w3.org/1999/xlink" x="0px" y="0px"
	 width="200px" height="200px" viewBox="0 0 200 200" enable-background="new 0 0 200 200" xml:space="preserve">
<g>
	<path d="M145.963,85.438c15.568,0.051,32.446,10.102,50.636,30.154c-2.47,5.291-6.575,9.976-12.319,14.057
		c-2.822,2.016-8.415,5.241-16.777,9.674c-0.907-0.151-1.538-0.982-1.89-2.494c-0.403-1.663-0.857-2.645-1.36-2.947
		c-1.058,2.318-1.084,6.65-0.075,12.999c1.007,6.348,1.032,10.63,0.075,12.848c-2.62-1.311-5.593-3.351-8.918-6.122
		c-4.686-3.93-7.457-6.197-8.313-6.802c-4.787,1.712-17.357,3.879-37.712,6.5c-1.209-0.504-2.116-1.738-2.721-3.703
		c-1.108-3.376-1.638-5.014-1.587-4.913c-0.958,1.663-1.336,5.24-1.134,10.732c0.252,5.491-0.075,9.094-0.982,10.807h-5.441
		c-0.958-5.341-1.311-9.649-1.059-12.923c-5.492,0-11.94-0.555-19.347-1.663c-10.43-1.562-16.552-2.444-18.365-2.645
		c-1.009-1.411-1.36-3.2-1.058-5.366c-2.016,1.31-5.543,4.081-10.581,8.313c-4.283,3.577-7.936,6.171-10.958,7.784
		c-0.604-1.36-0.706-4.056-0.303-8.086c0.503-4.636,0.604-8.036,0.303-10.203c-2.016-1.36-4.964-3.073-8.843-5.139
		c-4.283-2.317-7.281-4.005-8.993-5.063c-6.752-4.232-11.236-9.094-13.453-14.586c-0.201-0.049,0.428-0.402,1.89-1.058
		c0.403-0.1,0.151-0.654-0.756-1.663c1.008,0.102,1.36-0.1,1.059-0.604c1.007-0.201,1.36-0.529,1.058-0.982
		c4.434-6.197,10.479-11.865,18.139-17.004c9.018-6.046,17.685-9.346,25.998-9.9c4.181-0.302,10.454,0.555,18.818,2.569
		c9.522,2.318,16.197,3.603,20.027,3.854c5.441,0.404,11.185,0.404,17.231,0c4.13-0.251,10.604-1.436,19.423-3.552
		C135.785,86.345,141.882,85.388,145.963,85.438z M37.21,109.924c1.259,1.865,3.325,2.545,6.196,2.041
		c2.922-0.554,4.081-2.317,3.477-5.291c-0.252-1.259-1.008-2.166-2.267-2.721c-1.21-0.554-2.494-0.68-3.854-0.377
		c-1.411,0.302-2.47,0.958-3.175,1.965C36.781,106.75,36.654,108.212,37.21,109.924z M89.886,55.283
		c-11.487-0.705-21.161,7.533-29.021,24.713h-4.308c0.403-9.572,4.384-17.508,11.941-23.807c7.305-6.046,16.601-9.598,27.887-10.656
		c1.259-2.619,1.637-5.819,1.134-9.598c-0.555-4.131-0.579-7.029-0.075-8.691c3.375-0.201,5.542,0.151,6.499,1.058
		c-2.317,7.206-1.965,12.949,1.059,17.231c6.549,0.555,12.897,2.445,19.045,5.668c6.046,3.125,10.832,6.979,14.359,11.563
		c5.744,7.457,7.531,13.201,5.366,17.231c-2.771,0.504-4.737-0.378-5.896-2.646c-2.116-4.333-3.022-6.322-2.721-5.97
		c-9.624-14.359-23.983-20.808-43.078-19.348c-0.302,1.26,0.403,1.965,2.116,2.116c-10.127,7.608-16.577,17.685-19.348,30.23
		c-1.411-0.201-3.577-0.932-6.499-2.192C73.032,67.577,80.212,58.608,89.886,55.283z M74.845,108.035
		c-1.209-1.259-2.569-1.863-4.081-1.813c-1.36,0.051-2.569,0.604-3.627,1.663c-1.059,1.058-1.613,2.267-1.663,3.627
		c-0.051,1.512,0.554,2.872,1.814,4.081c-0.151-0.049,2.367-0.402,7.557-1.058V108.035z M95.327,115.592
		c1.259,1.865,3.325,2.545,6.197,2.041c2.921-0.554,4.081-2.317,3.477-5.29c-0.253-1.259-1.009-2.166-2.268-2.721
		c-1.209-0.554-2.494-0.68-3.854-0.378c-1.411,0.302-2.469,0.958-3.174,1.965C94.898,112.418,94.772,113.88,95.327,115.592z
		 M125.481,114.534c1.461,1.209,3.351,1.538,5.669,0.983c2.316-0.503,3.652-1.562,4.005-3.174c0.05-1.914-0.555-3.451-1.813-4.61
		c-1.16-1.007-2.47-1.46-3.93-1.36c-1.562,0.151-2.747,0.882-3.553,2.192C124.953,110.076,124.826,112.066,125.481,114.534z
		 M159.944,109.093c2.418,1.26,4.433,1.16,6.046-0.302c1.712-1.511,2.217-3.904,1.512-7.18c-1.26-1.107-2.62-1.612-4.081-1.511
		c-1.311,0.102-2.444,0.63-3.401,1.587c-0.957,0.958-1.462,2.091-1.511,3.401C158.407,106.499,158.886,107.834,159.944,109.093z"/>
</g>
</svg>
