<?xml version="1.0" encoding="utf-8"?>
<!-- Generator: Adobe Illustrator 17.0.0, SVG Export Plug-In . SVG Version: 6.00 Build 0)  -->
<!DOCTYPE svg PUBLIC "-//W3C//DTD SVG 1.1//EN" "http://www.w3.org/Graphics/SVG/1.1/DTD/svg11.dtd">
<svg version="1.1" id="Layer_1" xmlns="http://www.w3.org/2000/svg" xmlns:xlink="http://www.w3.org/1999/xlink" x="0px" y="0px"
	 width="200px" height="200px" viewBox="0 0 200 200" enable-background="new 0 0 200 200" xml:space="preserve">
<g>
	<path d="M144.571,35.778c1.038,0,2.152-0.446,3.344-1.338c2.079-1.337,3.12-2.971,3.12-4.903c0.146-2.525-1.637-5.05-5.35-7.578
		c-3.566-2.376-7.801-3.936-12.705-4.682c-5.053-0.592-9.957-0.223-14.711,1.115c-5.944,1.637-10.625,4.534-14.042,8.692
		c2.079-0.445,4.012-0.296,5.795,0.446c3.862,1.486,6.092,4.681,6.688,9.584c7.429,1.487,13.224,4.162,17.386,8.024
		c5.646,5.054,8.17,11.74,7.578,20.061c0,0.445-0.077,0.892-0.223,1.337c-0.3,1.338-0.596,2.752-0.892,4.235
		c6.091-0.146,11.925,1.19,17.497,4.012c5.572,2.824,10.064,6.541,13.484,11.145c4.013,5.499,6.019,11.295,6.019,17.386
		c0,6.095-2.379,12.409-7.133,18.946c-0.892,1.041-1.783,2.006-2.675,2.897l-23.403,60.404v2.675l-90.94-0.446v-0.668
		l-21.175-61.296c-1.783-1.188-3.271-2.675-4.458-4.458c-2.675-4.309-3.42-9.435-2.229-15.38c0.892-4.604,2.821-9.062,5.796-13.373
		c3.12-4.458,6.687-7.948,10.698-10.477c0.892-4.012,2.821-8.247,5.796-12.705c2.82-4.458,6.24-8.654,10.253-12.593
		c4.012-3.936,7.801-6.945,11.367-9.027c-1.191-3.417-1.191-6.799,0-10.142c1.188-3.344,3.121-6.019,5.795-8.024
		c2.675-2.006,5.758-3.305,9.251-3.9c3.489-0.593,7.021,0.149,10.587,2.229c4.012-8.17,11.145-13.67,21.397-16.494
		c5.35-1.483,11.068-1.856,17.163-1.114c6.092,0.745,11.44,2.675,16.049,5.795c5.941,4.013,8.766,8.547,8.47,13.597
		c-0.15,4.312-2.229,7.878-6.241,10.699c-4.162,2.824-7.878,3.27-11.145,1.337c-3.866-2.229-4.458-6.61-1.783-13.15
		c0.445-0.892,1.114-1.522,2.006-1.895c0.892-0.369,1.783-0.369,2.675,0c0.892,0.372,1.521,1.003,1.895,1.895
		c0.369,0.892,0.407,1.783,0.111,2.675C144.794,33.402,144.422,34.887,144.571,35.778z M75.697,56.729
		c-2.675,1.191-5.834,3.532-9.473,7.021c-3.644,3.493-6.799,7.32-9.474,11.479c-2.974,4.607-4.534,8.546-4.681,11.812
		c-0.149,2.529,0.965,4.458,3.344,5.796c6.387,3.566,14.634,2.082,24.741-4.458c5.35-3.417,13.224-10.253,23.627-20.506
		c1.037-1.038,2.302-1.561,3.789-1.561c1.483,0,2.747,0.522,3.789,1.561c1.038,1.041,1.56,2.305,1.56,3.789
		c0,1.487-0.521,2.751-1.56,3.789C100.361,86.302,91.891,93.657,85.95,97.52c-13.673,8.77-25.633,10.33-35.886,4.681
		c-3.12-1.783-5.426-4.158-6.91-7.133c-3.865,4.013-6.24,8.397-7.132,13.151c-0.596,3.12-0.373,5.572,0.668,7.355
		c0.892,1.337,2.376,2.305,4.458,2.897c1.038,0,3.01,0.038,5.907,0.111c2.897,0.076,5.015,0.111,6.353,0.111
		c1.337,0,3.044-0.073,5.126-0.223c2.079-0.146,3.936-0.446,5.572-0.892c6.388-1.188,13.521-3.566,21.398-7.133
		c7.725-3.566,15.007-7.874,21.843-12.928c15.749-11.887,23.627-23.773,23.627-35.663v-0.223c-0.3-3.417-1.637-6.314-4.012-8.693
		c-2.824-2.375-6.837-4.158-12.036-5.349c-1.934,4.161-5.016,7.616-9.25,10.364c-4.235,2.751-9.4,4.123-15.491,4.123
		C84.686,62.079,79.855,60.296,75.697,56.729z M47.612,116.688l-3.12-2.452c-1.191-1.038-1.303-2.19-0.334-3.455
		c0.964-1.261,2.117-1.448,3.454-0.557l3.121,2.451c1.188,1.042,1.299,2.194,0.334,3.455
		C50.099,117.396,48.95,117.58,47.612,116.688z M46.275,129.17c-0.446,0.3-0.892,0.522-1.338,0.669l16.271,47.254h8.247
		c-0.149-0.146-0.223-0.297-0.223-0.446c-0.446-4.158-1.783-12.183-4.012-24.072c-1.934-10.399-3.197-18.277-3.79-23.627
		C57.716,129.247,52.662,129.32,46.275,129.17z M64.998,80.579c0.296,2.229,0.369,3.939,0.224,5.127
		c-0.3,1.487-0.969,3.197-2.007,5.127c-0.892,1.337-2.044,1.599-3.454,0.779c-1.414-0.814-1.71-1.929-0.892-3.343
		c0.814-1.411,1.299-2.487,1.448-3.232c0.146-0.741,0.073-2.079-0.223-4.012c-0.149-1.634,0.592-2.525,2.229-2.675
		C63.957,78.204,64.848,78.946,64.998,80.579z M67.673,109.778l3.789-0.668c1.634-0.297,2.599,0.372,2.897,2.006
		c0.297,1.637-0.372,2.602-2.006,2.897l-3.789,0.669c-1.637,0.299-2.602-0.369-2.897-2.007
		C65.367,111.043,66.036,110.078,67.673,109.778z M91.745,135.188c-4.312-1.93-8.101-4.381-11.367-7.355
		c-0.892-0.892-1.487-1.93-1.783-3.12c-3.566,1.337-6.986,2.378-10.253,3.12c0.592,5.203,1.93,12.928,4.012,23.181
		c2.079,10.999,3.417,19.246,4.013,24.741c0,0.446-0.077,0.969-0.224,1.561h16.271c0-2.675-0.223-9.139-0.669-19.392
		c-0.445-9.508-0.522-16.79-0.223-21.844C91.522,135.784,91.595,135.488,91.745,135.188z M74.583,62.971l2.006,1.114
		c0.592,0.3,0.965,0.522,1.114,0.669c0.446,0.3,0.815,0.669,1.114,1.114l1.338,1.561c0.892,1.338,0.703,2.49-0.558,3.455
		c-1.264,0.968-2.417,0.856-3.455-0.334l-1.114-1.783l-0.223-0.224l-0.446-0.223l-2.006-0.892c-1.487-0.892-1.821-2.041-1.003-3.455
		C72.166,62.563,73.245,62.229,74.583,62.971z M75.251,80.134l4.682-3.12c1.337-0.892,2.451-0.669,3.343,0.668
		c0.892,1.338,0.669,2.452-0.669,3.344l-4.681,3.12c-1.337,0.892-2.451,0.669-3.343-0.668C73.691,82.14,73.914,81.025,75.251,80.134
		z M88.625,120.7c3.267,2.824,7.651,5.203,13.15,7.133c8.471,1.933,16.049,2.975,22.735,3.12c6.687,0.15,13.447-1.003,20.283-3.454
		c6.833-2.452,12.556-6.426,17.163-11.925c6.387-7.725,6.687-15.453,0.892-23.182c-2.528-3.566-5.983-6.353-10.364-8.358
		c-4.385-2.006-8.805-2.859-13.263-2.563c-0.892,0-1.783-0.146-2.675-0.445c-4.607,8.77-12.186,17.163-22.735,25.187
		C106.084,111.861,97.687,116.688,88.625,120.7z M90.631,68.989l0.446-2.452c0.296-1.633,1.261-2.302,2.897-2.006
		c1.633,0.3,2.302,1.265,2.006,2.897l-0.445,2.452c-0.3,1.637-1.265,2.306-2.898,2.006C91,71.591,90.332,70.626,90.631,68.989z
		 M91.522,99.303l4.235-6.464c0.892-1.338,2.006-1.561,3.343-0.669c1.338,0.892,1.561,2.006,0.669,3.344l-4.234,6.464
		c-0.892,1.337-2.007,1.56-3.344,0.668C90.853,101.755,90.631,100.64,91.522,99.303z M98.655,138.086
		c-0.3,5.054-0.223,11.591,0.223,19.614c0.446,10.254,0.669,16.794,0.669,19.615l23.181,0.223c0.146-2.821,0.296-8.616,0.446-17.386
		c0.296-7.725,0.741-13.966,1.337-18.723c-7.282,0-15.307-0.965-24.072-2.897c-0.596,0-1.114-0.073-1.561-0.224L98.655,138.086z
		 M108.016,83.254c0.742-0.445,1.483-0.814,2.229-1.114c0.741-0.445,1.261-0.669,1.56-0.669c0.446-0.146,1.038-0.223,1.783-0.223
		h0.669h1.561c1.633,0,2.451,0.818,2.451,2.452c0,1.637-0.818,2.452-2.451,2.452h-1.338h-0.892h-0.223
		c-0.149,0-0.446,0.076-0.892,0.223c-0.745,0.445-1.637,0.892-2.675,1.337c-1.487,0.745-2.563,0.335-3.231-1.226
		C105.899,84.926,106.38,83.85,108.016,83.254z M115.818,114.905l1.783,3.12c0.741,1.338,0.407,2.417-1.004,3.232
		c-1.413,0.818-2.562,0.483-3.454-1.003l-1.783-3.121c-0.745-1.337-0.411-2.413,1.003-3.231
		C113.773,113.087,114.927,113.422,115.818,114.905z M118.938,65.2c-1.337-2.376-2.006-3.64-2.006-3.789l-1.338-4.013
		c-0.445-1.483,0.112-2.486,1.672-3.009c1.561-0.519,2.637,0.038,3.232,1.672c0.146,0.596,0.296,1.152,0.445,1.672
		c0.146,0.522,0.223,0.856,0.223,1.003c0,0.149,0.073,0.299,0.224,0.445v0.446l0.445,0.445c0,0.149,0.146,0.446,0.446,0.892
		l1.114,2.006c0.742,1.338,0.407,2.417-1.003,3.232C120.979,67.021,119.83,66.687,118.938,65.2z M124.511,107.995
		c2.525-2.524,4.531-4.381,6.019-5.572c1.188-1.188,2.34-1.149,3.454,0.111c1.115,1.265,1.004,2.417-0.334,3.455l-5.572,5.572
		c-1.191,1.191-2.379,1.191-3.566,0C123.319,110.374,123.319,109.187,124.511,107.995z M129.637,120.478
		c2.375-1.188,4.381-2.229,6.018-3.12c1.338-0.742,2.414-0.408,3.232,1.003c0.814,1.414,0.48,2.562-1.003,3.454
		c-1.637,0.892-3.644,1.934-6.019,3.121c-1.487,0.745-2.602,0.372-3.344-1.114C127.777,122.337,128.15,121.223,129.637,120.478z
		 M131.643,141.43c-0.596,4.607-1.041,10.922-1.338,18.945c-0.149,8.62-0.299,14.342-0.445,17.163h6.019l16.048-41.013
		C145.832,139.2,139.072,140.837,131.643,141.43z M140.782,89.495l1.783,2.006c1.188,1.191,1.149,2.341-0.111,3.455
		c-1.265,1.114-2.417,1.003-3.455-0.334l-1.783-2.006c-1.191-1.188-1.152-2.341,0.111-3.455
		C138.588,88.047,139.741,88.158,140.782,89.495z M147.469,112.23c1.783,1.191,3.344,2.452,4.681,3.789
		c1.338,1.041,1.449,2.194,0.335,3.455c-1.115,1.264-2.268,1.303-3.455,0.111l-4.235-3.344c-1.337-1.037-1.525-2.19-0.557-3.454
		C145.201,111.527,146.277,111.339,147.469,112.23z M157.945,98.188l-1.338,4.012c-0.445,1.637-1.449,2.194-3.009,1.672
		c-1.561-0.52-2.045-1.522-1.449-3.009l1.338-4.013c0.445-1.633,1.448-2.19,3.009-1.672
		C158.056,95.701,158.537,96.704,157.945,98.188z"/>
</g>
</svg>
