<?xml version="1.0" encoding="utf-8"?>
<!-- Generator: Adobe Illustrator 17.0.0, SVG Export Plug-In . SVG Version: 6.00 Build 0)  -->
<!DOCTYPE svg PUBLIC "-//W3C//DTD SVG 1.1//EN" "http://www.w3.org/Graphics/SVG/1.1/DTD/svg11.dtd">
<svg version="1.1" id="Layer_1" xmlns="http://www.w3.org/2000/svg" xmlns:xlink="http://www.w3.org/1999/xlink" x="0px" y="0px"
	 width="200px" height="200px" viewBox="0 0 200 200" enable-background="new 0 0 200 200" xml:space="preserve">
<g>
	<path d="M42.927,138.544c-6.382-3.828-13.003-9.889-19.86-18.185c-6.861-8.293-11.167-15.554-12.921-21.774l24.406,7.896
		c22.649-8.453,41.474-14.435,56.469-17.945c-12.603-8.932-18.903-20.817-18.903-35.652c0-11.485,4.068-21.453,12.203-29.91
		c-7.339-1.274-12.764-3.35-16.271-6.221c-3.989-3.189-6.143-7.257-6.46-12.203l13.639-0.718c0,0.957,0.479,1.757,1.436,2.393
		c4.464,3.672,14.674,4.946,30.628,3.828c3.507-0.796,6.938-1.196,10.288-1.196c0.318,0,0.558,0,0.718,0
		c12.443,0.161,23.009,4.509,31.705,13.041c8.692,8.535,13.04,18.865,13.04,30.986c0,0.161,0,0.957,0,2.393
		c18.664,5.586,27.674,9.332,27.039,11.246c-0.64,1.914-11.407,4.307-32.303,7.179c-7.179,12.764-18.186,20.26-33.021,22.492
		c7.335,4.628,11.007,11.246,11.007,19.859c0,3.351-0.561,6.939-1.675,10.768c-2.871,10.05-8.768,17.707-17.691,22.971
		c-7.972,4.946-17.3,7.418-27.977,7.418c-4.782,0-9.564-0.568-14.346-1.709l15.434,22.048h18.021v13.639H82.408l-23.449-33.499
		l6.7-4.505c-3.305-1.107-5.903-2.292-7.792-3.556c-0.946-0.632-2.284-1.582-4.015-2.846l-18.87,29.371l9.456,9.456l-9.646,9.646
		l-17.228-17.228L42.927,138.544z M128.348,59.583c3.028,0,5.582-1.077,7.657-3.23c2.071-2.153,3.11-4.666,3.11-7.537
		c0-3.028-1.039-5.582-3.11-7.657c-2.075-2.071-4.629-3.11-7.657-3.11c-3.032,0-5.585,1.039-7.656,3.11
		c-2.075,2.075-3.111,4.629-3.111,7.657c0,2.871,1.036,5.384,3.111,7.537C122.763,58.506,125.316,59.583,128.348,59.583z"/>
</g>
</svg>
