<?xml version="1.0" encoding="utf-8"?>
<!-- Generator: Adobe Illustrator 17.0.0, SVG Export Plug-In . SVG Version: 6.00 Build 0)  -->
<!DOCTYPE svg PUBLIC "-//W3C//DTD SVG 1.1//EN" "http://www.w3.org/Graphics/SVG/1.1/DTD/svg11.dtd">
<svg version="1.1" id="Layer_1" xmlns="http://www.w3.org/2000/svg" xmlns:xlink="http://www.w3.org/1999/xlink" x="0px" y="0px"
	 width="200px" height="200px" viewBox="0 0 200 200" enable-background="new 0 0 200 200" xml:space="preserve">
<g>
	<path d="M97.372,8.366c18.823,0,35.31,4.524,49.464,13.57c1.166,0,8.461-2.408,21.887-7.223h0.438
		c7.004,0,11.234,20.502,12.694,61.502v6.128c0,1.169-0.219,6.566-0.656,16.196c4.23,11.381,6.347,23.2,6.347,35.457
		c0,15.906-3.577,30.423-10.725,43.555c-5.691-4.668-9.559-10.359-11.6-17.072h-0.438c-5.69,8.902-14.227,17.072-25.607,24.513
		c-0.875,0-2.264,0.804-4.159,2.408l0.438,3.064c-0.438,5.691-1.751,8.536-3.939,8.536c-1.751-1.604-2.626-4.012-2.626-7.223v-1.751
		h-0.438c-0.438,0-0.951,2.408-1.532,7.223l-2.189,1.751c-2.045-0.729-3.064-2.845-3.064-6.347h-0.438
		c-0.438,0-1.022,1.532-1.751,4.596l-1.313,1.313h-1.094c-1.46-0.729-2.189-2.114-2.189-4.159
		c-5.69,1.022-10.725,1.532-15.102,1.532h-5.034c-4.962,0-10.068-0.51-15.321-1.532c0,1.313-0.731,2.702-2.188,4.159h-1.313
		c-1.022,0-1.898-1.97-2.626-5.91H72.42c0,2.773-0.804,4.743-2.408,5.91h-1.313c-1.751-1.313-2.626-4.159-2.626-8.536h-0.875v1.313
		c0,3.649-0.803,6.057-2.407,7.223h-1.313c-1.607-0.582-2.483-3.283-2.626-8.099v-1.313l0.438-2.189
		c-11.528-5.396-22.253-14.955-32.174-28.672c-4.087,10.944-8.174,17.366-12.257,19.261C7.707,164.42,4.133,149.756,4.133,133.559
		c0-12.694,2.698-25.898,8.098-39.615c-0.294-6.272-0.438-10.431-0.438-12.476c0.582-36.333,4.012-58.291,10.287-65.88l2.626-1.313
		c12.257,5.4,19.917,8.099,22.981,8.099C60.088,13.037,76.65,8.366,97.372,8.366z M22.956,86.94v2.189
		c0,9.339,3.574,17.728,10.725,25.17c7.585,7.441,16.121,11.162,25.608,11.162h2.188c15.321,0,26.846-8.389,34.582-25.17
		c0.438-3.502,1.019-5.253,1.751-5.253c2.189,9.63,6.419,16.928,12.694,21.887c7.442,5.69,15.174,8.536,23.2,8.536h1.313
		c17.51,0,29.619-9.555,36.333-28.672c0.581-3.355,0.875-6.053,0.875-8.098v-1.313c0-15.465-8.174-26.993-24.514-34.582
		c-4.377-1.457-8.317-2.189-11.819-2.189h-2.189c-15.615,0-27.14,8.464-34.581,25.389c-0.585,3.358-1.17,5.034-1.751,5.034
		c-2.774-10.505-7.517-18.091-14.227-22.762c-6.713-5.106-13.936-7.661-21.668-7.661h-2.188c-15.177,0-26.559,8.173-34.144,24.514
		C23.684,79.499,22.956,83.438,22.956,86.94z M35.431,164.42v0.438c17.072,19.407,36.989,29.109,59.751,29.109h4.377
		c22.468,0,42.242-9.849,59.314-29.547c-16.781-19.698-37.574-29.547-62.378-29.547C72.564,134.873,52.209,144.722,35.431,164.42z
		 M65.197,76.215c8.608,0,14.883,5.034,18.823,15.102c0.291,1.607,0.438,2.845,0.438,3.721v2.189c0,9.63-5.985,15.906-17.947,18.823
		h-2.189c-8.754,0-15.03-5.106-18.823-15.321c-0.294-2.042-0.438-3.793-0.438-5.253c0-8.461,4.887-14.589,14.664-18.385
		C62.643,76.509,64.466,76.215,65.197,76.215z M95.621,109.265c-4.815,8.173-7.37,12.694-7.661,13.57h0.438l8.099,5.691
		c5.981-3.94,8.974-6.128,8.974-6.566c-2.483-2.917-5.034-7.147-7.661-12.694H95.621z M130.64,76.215
		c9.774,0,16.34,5.328,19.698,15.978l0.438,4.159c0,9.486-5.253,15.906-15.759,19.26l-3.94,0.438
		c-10.068,0-16.634-5.691-19.698-17.072v-4.377c0-8.317,5.034-14.151,15.102-17.51C126.919,76.8,128.304,76.509,130.64,76.215z"/>
</g>
</svg>
