<?xml version="1.0" encoding="utf-8"?>
<!-- Generator: Adobe Illustrator 17.0.0, SVG Export Plug-In . SVG Version: 6.00 Build 0)  -->
<!DOCTYPE svg PUBLIC "-//W3C//DTD SVG 1.1//EN" "http://www.w3.org/Graphics/SVG/1.1/DTD/svg11.dtd">
<svg version="1.1" id="Layer_1" xmlns="http://www.w3.org/2000/svg" xmlns:xlink="http://www.w3.org/1999/xlink" x="0px" y="0px"
	 width="200px" height="200px" viewBox="0 0 200 200" enable-background="new 0 0 200 200" xml:space="preserve">
<g>
	<path d="M89.897,12.672c7.869,0,15.481,3.733,22.837,11.199c2.488,3.221,3.732,7.265,3.732,12.132v1.866
		c0,2.27-0.458,4.905-1.372,7.905v0.439h1.372c4.355-10.869,12.113-16.304,23.276-16.304c9.516,0,15.262,2.964,17.238,8.894
		c0.549,1.756,1.023,4.392,1.427,7.905c0,9.918-3.732,17.988-11.199,24.209c0.439,1.062,1.062,1.996,1.867,2.8
		c4.245-2.488,7.978-3.733,11.199-3.733c7.209,0,13.724,2.8,19.543,8.399l0.933,1.373v2.36c0,12.443-5.435,21.611-16.304,27.503
		c-0.696,0-1.317,0.146-1.866,0.439c2.891,4.026,5.068,6.039,6.532,6.039c2.781-0.914,4.647-1.372,5.6-1.372
		c6.697,0,10.888,2.8,12.571,8.399c0,1.611,1.702,4.392,5.105,8.345c1.866,3.257,3.11,6.991,3.733,11.199
		c0,6.917-4.026,12.974-12.078,18.171c-4.575,2.488-10.943,3.733-19.104,3.733h-1.867c-0.402,0-2.122-0.312-5.16-0.933h-0.933
		l-3.679,5.6l-3.294,0.933h-5.105c0,3.11-3.422,5.6-10.266,7.466c-0.513,0.292-1.281,0.439-2.306,0.439h-2.8
		c-8.71,0-14.767-3.111-18.171-9.333c0-2.306-0.622-4.172-1.866-5.6l-0.933,0.494h-1.428c-1.537,0-3.861,0.146-6.972,0.439
		c-0.477,2.671-1.867,5.325-4.173,7.96c-0.476,0-1.098,0.311-1.866,0.934h-4.666l-3.239-0.494
		c-2.562,5.892-7.686,8.838-15.371,8.838h-2.36c-12.114-0.769-18.171-2.617-18.171-5.544c-1.245-2.855-2.178-7.064-2.8-12.626
		h-6.039c-5.856,0-15.335-4.501-28.437-13.505c-2.855-3.55-5.49-8.984-7.905-16.304c-0.623-2.781-0.933-4.794-0.933-6.039v-0.933
		c0.622-2.781,1.39-4.172,2.306-4.172h0.494c1.902,0,4.538,1.245,7.905,3.733l1.867,0.439c6.953,0,12.242-5.271,15.865-15.811
		v-1.427c-7.466,0-11.199-6.679-11.199-20.038c2.855-5.892,7.667-8.838,14.438-8.838h2.306c0.622,0,0.933-0.311,0.933-0.933
		c-5.563-3.22-8.344-9.423-8.344-18.61c1.537-10.833,4.483-16.89,8.838-18.171c2.342-1.244,6.222-2.177,11.638-2.8v0.439
		c0.33,0,0.494-0.146,0.494-0.439c10.833,0,17.348,3.715,19.543,11.144c0.292,0.623,0.439,1.098,0.439,1.427h0.934
		c0.622,0,0.933-0.311,0.933-0.933c-3.404-4.941-5.105-10.375-5.105-16.305c0-3.952,3.568-9.862,10.705-17.731
		C83.035,14.228,86.603,12.672,89.897,12.672z M17.707,131.469c-1.427,0-3.917-0.769-7.466-2.306v0.439
		c3.439,10.577,6.404,15.865,8.893,15.865c10.979,7.466,19.195,11.656,24.649,12.571h4.227c1.537-8.381,3.404-12.571,5.6-12.571
		l0.933,1.373c-1.867,9.039-2.8,14.328-2.8,15.865c0.915,7.466,3.385,11.199,7.411,11.199l13.999,0.933
		c6.514-1.391,9.772-4.191,9.772-8.399v-9.772l0.933-3.293h0.494c0.659,0.036,1.592,1.592,2.8,4.666l2.745,0.494h10.76
		c0.694,0,1.317,0.146,1.866,0.439c6.808,0,10.211-1.245,10.211-3.733c0.475-1.245,0.951-1.866,1.427-1.866h0.934l0.439,2.36
		c-0.623,5.27-0.934,8.216-0.934,8.838c2.013,4.977,6.825,7.466,14.438,7.466l1.867,0.439c7.466-1.025,11.199-3.825,11.199-8.399
		v-6.972c0-0.696,0.146-1.317,0.438-1.867c-4.94-6.368-7.411-10.559-7.411-12.571c0.402-1.281,1.171-2.214,2.306-2.8
		c6.295,9.955,11.107,14.932,14.438,14.932c0,1.757,4.812,3.147,14.438,4.172c14.054,0,22.745-5.581,26.076-16.743v-0.494
		c-1.501-5.087-2.892-8.033-4.172-8.838h-0.439c-3.514,5.893-6.789,8.838-9.826,8.838c-1.208,0.329-2.288,0.494-3.239,0.494
		c-4.282-1.647-7.54-4.447-9.771-8.399l-0.934-3.294h-0.494c-2.452,6.844-6.167,10.266-11.144,10.266
		c-4.209,0-7.796-3.733-10.76-11.199c-0.294,0-0.604-1.537-0.934-4.611c0-5.196,3.586-9.094,10.76-11.693h3.239
		c3.988,0,6.935,2.799,8.838,8.399v1.427h0.934c0-0.731,0.475-1.665,1.427-2.8v-1.427c-5.197,0-10.632-9.771-16.304-29.315
		c-3.368-11.162-6.643-17.841-9.827-20.037c-8.857-11.821-21.117-17.732-36.78-17.732h-3.733c-11.382,0-21.465,3.111-30.248,9.333
		c-10.065,7.32-16.287,13.523-18.665,18.61c-2.709,2.928-8.29,16.762-16.744,41.502C30.022,128.065,24.734,131.469,17.707,131.469z
		 M25.174,92.822c0,4.099,1.555,7.356,4.666,9.771c0,0.805,1.244,1.427,3.733,1.867h1.373c3.733-9.917,5.6-15.042,5.6-15.372
		c-1.318-2.488-3.496-3.733-6.533-3.733c-5.893,0.549-8.838,2.416-8.838,5.6V92.822z M35.878,62.079
		c0,7.064,3.568,12.042,10.705,14.932c4.355-7.648,10.723-14.181,19.104-19.598l0.494-0.933
		c-1.721-8.088-5.764-12.132-12.132-12.132c-3.111-0.292-5.435-0.439-6.972-0.439c-6.368,0-9.937,4.502-10.705,13.505L35.878,62.079
		z M49.383,119.831h0.494c4.464,0,7.868,3.258,10.21,9.771c-1.756,4.978-4.392,7.466-7.905,7.466h-0.934
		c-5.599-1.061-8.399-3.696-8.399-7.905v-1.866C44.278,122.32,46.454,119.831,49.383,119.831z M47.516,125.924
		c0,0.623-0.146,0.933-0.439,0.933c0,2.16,2.012,3.697,6.039,4.612h0.933c0.439,0,0.896-0.458,1.373-1.373v-0.494
		c-2.013-2.452-4.337-3.678-6.972-3.678H47.516z M80.619,79.317c3.513,0,7.392,1.867,11.638,5.6c1.866,2.379,2.8,4.556,2.8,6.533
		v0.933c0,4.648-3.258,7.741-9.772,9.278h-1.866c-4.502,0-8.235-3.092-11.199-9.278v-3.294
		C73.683,82.575,76.483,79.317,80.619,79.317z M74.087,37.376c0,2.599,1.702,6.643,5.105,12.132
		c5.343-2.196,15.133-3.294,29.37-3.294c0.914-1.756,1.683-4.392,2.306-7.905c0-10.394-5.582-17.53-16.744-21.41h-4.666
		c-4.795,0-9.461,4.502-13.999,13.505C74.544,34.43,74.087,36.754,74.087,37.376z M76.392,87.716c0,3.44,2.8,6.222,8.399,8.344
		h0.934c3.403-1.208,5.105-2.122,5.105-2.745v-0.494c0-3.11-3.568-5.435-10.705-6.972H77.82
		C77.344,85.85,76.867,86.472,76.392,87.716z M83.419,65.813h2.799c3.074,1.903,4.611,4.081,4.611,6.533
		c-0.623,4.94-2.635,7.411-6.039,7.411c-4.026-2.635-6.039-5.271-6.039-7.905v-1.867C79.996,67.204,81.553,65.813,83.419,65.813z
		 M87.591,164.078v1.427c0.183,0.915,1.427,1.373,3.733,1.373c2.781-0.623,4.172-1.391,4.172-2.306l-0.933-0.494H87.591z
		 M110.868,61.585c5.672,0,10.795,3.897,15.371,11.693l0.933,5.544c0,5.966-2.635,10.321-7.905,13.065
		c-1.866,0.952-4.666,1.427-8.398,1.427c-5.563,0-10.211-3.421-13.944-10.266c-1.866-1.463-2.8-3.641-2.8-6.533
		c0-4.647,2.488-9.003,7.466-13.065C105.688,62.208,108.781,61.585,110.868,61.585z M98.79,73.717
		c2.086,6.515,4.41,9.772,6.973,9.772c1.134,1.866,3.934,2.8,8.398,2.8c5.562,0,8.655-1.867,9.278-5.6
		c-1.354-6.185-2.892-9.278-4.611-9.278c-3.66-2.817-6.625-4.227-8.894-4.227c-7.43,1.025-11.145,2.892-11.145,5.6V73.717z
		 M120.694,49.014c7.356,2.965,13.87,7.466,19.543,13.505c1.208,1.866,2.287,2.8,3.239,2.8c7.173-3.514,10.76-9.259,10.76-17.238
		v-3.239c-0.988-6.222-4.722-9.333-11.199-9.333h-6.038c-7.211,1.976-12.646,5.856-16.305,11.638V49.014z M144.903,124.058
		c0,4.868,2.489,8.583,7.467,11.144h0.933c4.647-0.732,6.973-2.598,6.973-5.6v-1.373c0-5.086-2.325-8.509-6.973-10.266h-2.36
		C146.916,118.989,144.903,121.021,144.903,124.058z M145.837,158.533v4.611c2.342,0.33,3.897,0.64,4.666,0.933
		c0.366,0,1.135-0.458,2.306-1.372C150.649,159.924,148.325,158.533,145.837,158.533z M150.942,124.058
		c2.525,0,4.08,1.848,4.666,5.544c0,1.867-1.244,2.964-3.732,3.294h-0.439c-1.501-0.952-2.745-2.196-3.733-3.733
		c0-1.317,0.934-2.708,2.8-4.172c-0.329,0-0.494-0.165-0.494-0.494L150.942,124.058z M181.684,144.095
		c3.11,0.549,4.666,1.153,4.666,1.812c0,2.964-4.355,6.24-13.065,9.827c-1.171,0.292-2.397,0.439-3.678,0.439h-2.36
		c-6.368,0-12.426-2.635-18.171-7.905v-0.934c1.28-1.866,3.146-2.799,5.6-2.799h2.8v3.733c3.366,2.781,7.721,4.172,13.065,4.172
		h0.933c5.271-1.025,7.905-2.105,7.905-3.239l-0.494-1.867C178.885,145.943,179.818,144.864,181.684,144.095z M150.942,77.89v0.494
		c3.11,7.905,5.6,15.975,7.466,24.209c0.731,0.952,1.189,1.427,1.373,1.427c5.123,0,10.101-3.733,14.932-11.199
		c1.866-3.879,2.8-7.301,2.8-10.266v-0.933c-3.038-4.318-9.406-6.478-19.104-6.478C153.43,76.28,150.942,77.195,150.942,77.89z
		 M167.741,125.43v1.867c0,5.27,3.568,8.528,10.705,9.771c4.025-0.988,6.038-3.623,6.038-7.905v-1.372
		c-0.915-5.929-3.861-8.894-8.838-8.894C170.376,119.447,167.741,121.625,167.741,125.43z M173.285,124.058
		c4.062,1.062,6.094,2.909,6.094,5.544c0,2.599-1.721,4.154-5.16,4.666c-0.988,0-2.215-1.244-3.678-3.733
		c0-0.769,0.621-2.159,1.866-4.172C172.407,125.595,172.699,124.827,173.285,124.058z"/>
</g>
</svg>
