<?xml version="1.0" encoding="utf-8"?>
<!-- Generator: Adobe Illustrator 17.0.0, SVG Export Plug-In . SVG Version: 6.00 Build 0)  -->
<!DOCTYPE svg PUBLIC "-//W3C//DTD SVG 1.1//EN" "http://www.w3.org/Graphics/SVG/1.1/DTD/svg11.dtd">
<svg version="1.1" id="Layer_1" xmlns="http://www.w3.org/2000/svg" xmlns:xlink="http://www.w3.org/1999/xlink" x="0px" y="0px"
	 width="200px" height="200px" viewBox="0 0 200 200" enable-background="new 0 0 200 200" xml:space="preserve">
<g>
	<path d="M153.82,140.847c2.483,4.662,3.649,9.557,3.496,14.685c0,16.939-9.637,29.526-28.903,37.761H55.456
		c-18.337-7.459-27.584-19.033-27.738-34.73c0-6.526,1.242-12.43,3.729-17.715L6.741,122.666l8.392-11.188l24.94,18.414
		c2.018-1.708,3.806-2.873,5.361-3.496c-6.374-4.972-10.955-11.422-13.752-19.347c-1.089-3.263-1.789-6.76-2.098-10.489
		c-0.313-13.519,4.972-24.9,15.85-34.147c10.875-9.243,24.395-14.335,40.558-15.268L113.496,6.82l39.392,13.053l-11.421,47.784
		c7.146,8.238,10.722,17.715,10.722,28.437c-0.623,11.968-5.128,21.444-13.519,28.437c3.263,2.331,5.438,4.043,6.526,5.128
		l26.339-18.414l7.925,11.422L153.82,140.847z M66.178,89.801c2.018-2.019,3.03-4.429,3.03-7.227c0-2.797-1.013-5.204-3.03-7.226
		c-2.021-2.018-4.509-3.03-7.459-3.03c-2.797,0-5.208,1.013-7.226,3.03c-2.021,2.021-3.03,4.429-3.03,7.226
		c0,2.798,1.009,5.208,3.03,7.227c2.018,2.021,4.429,3.029,7.226,3.029C61.67,92.83,64.157,91.821,66.178,89.801z M107.202,104.718
		H73.87v13.985h33.332V104.718z M124.917,90.966c2.018-2.018,3.03-4.429,3.03-7.226s-1.013-5.205-3.03-7.226
		c-2.021-2.019-4.509-3.03-7.459-3.03c-2.797,0-5.208,1.012-7.226,3.03c-2.021,2.021-3.03,4.429-3.03,7.226s1.009,5.208,3.03,7.226
		c2.018,2.021,4.429,3.03,7.226,3.03C120.408,93.996,122.895,92.987,124.917,90.966z"/>
</g>
</svg>
