<?xml version="1.0" encoding="utf-8"?>
<!-- Generator: Adobe Illustrator 17.0.0, SVG Export Plug-In . SVG Version: 6.00 Build 0)  -->
<!DOCTYPE svg PUBLIC "-//W3C//DTD SVG 1.1//EN" "http://www.w3.org/Graphics/SVG/1.1/DTD/svg11.dtd">
<svg version="1.1" id="Layer_1" xmlns="http://www.w3.org/2000/svg" xmlns:xlink="http://www.w3.org/1999/xlink" x="0px" y="0px"
	 width="200px" height="200px" viewBox="0 0 200 200" enable-background="new 0 0 200 200" xml:space="preserve">
<g>
	<path d="M176.543,30.864c0,8.104-9.406,14.251-28.21,18.445c-10.562,2.462-23.002,4.052-37.324,4.774
		c1.59,3.764,2.387,7.669,2.387,11.718c0,7.09-2.462,13.816-7.378,20.181c-3.906,5.065-5.859,10.128-5.859,15.19
		c0,3.184,0.723,6.222,2.17,9.113h50.995l-5.208,31.899h-10.198l-4.341,46.872h-22.784c-1.736-3.906-5.066-5.859-9.982-5.859
		c-4.92,0-8.246,1.953-9.982,5.859H67.175l-4.558-46.872H50.899l-4.34-31.899h43.834c-0.868-3.037-1.302-6.075-1.302-9.113
		c0-7.666,2.675-14.974,8.028-21.917c3.327-4.34,4.991-8.822,4.991-13.454c0-2.458-0.868-5.713-2.604-9.766l1.085-0.65
		c-40.074-3.181-60.109-10.199-60.109-21.049c0-1.444,0.435-2.964,1.302-4.558c4.341-7.954,9.982-11.935,16.927-11.935
		c12.874,0,28.063,11.646,45.569,34.937l0.435-0.217c8.68-11.86,18.733-21.408,30.163-28.644c8.968-5.643,17.285-8.463,24.955-8.463
		c4.482,0,8.388,1.484,11.718,4.448C174.878,22.873,176.543,26.524,176.543,30.864z"/>
</g>
</svg>
