<?xml version="1.0" encoding="utf-8"?>
<!-- Generator: Adobe Illustrator 17.0.0, SVG Export Plug-In . SVG Version: 6.00 Build 0)  -->
<!DOCTYPE svg PUBLIC "-//W3C//DTD SVG 1.1//EN" "http://www.w3.org/Graphics/SVG/1.1/DTD/svg11.dtd">
<svg version="1.1" id="Layer_1" xmlns="http://www.w3.org/2000/svg" xmlns:xlink="http://www.w3.org/1999/xlink" x="0px" y="0px"
	 width="200px" height="200px" viewBox="0 0 200 200" enable-background="new 0 0 200 200" xml:space="preserve">
<g>
	<path d="M32.489,129.636c0.64-0.96,2.176-2.561,4.61-4.803c2.049-1.921,3.425-3.713,4.13-5.378
		c9.605,6.147,15.207,10.054,16.809,11.718c-1.537,0.706-3.714,4.099-6.531,10.181C45.679,139.882,39.34,135.976,32.489,129.636z
		 M150.918,115.805c-0.192,1.409-2.37,3.618-6.531,6.627c-4.355,3.138-7.525,4.579-9.509,4.322c-2.497-0.32-4.451-2.369-5.859-6.147
		c-1.602-4.034-3.33-6.371-5.187-7.012c-0.641,0.961-0.897,2.754-0.769,5.379c0.128,3.587,0.159,5.7,0.097,6.339
		c-11.976,4.932-20.523,9.062-25.646,12.39c-9.926-5.441-18.698-9.572-26.317-12.39c-0.257-0.576-0.257-2.305,0-5.187
		c0.255-2.817,0.031-4.738-0.673-5.763c-1.793,0.833-3.554,2.85-5.282,6.051c-1.858,3.33-3.522,5.443-4.995,6.339
		c-5.443-1.984-11.045-5.634-16.809-10.95c0.32-1.088,4.707-8.165,13.159-21.227c0.896-1.345,2.145-3.489,3.746-6.435
		c1.729-3.201,2.978-5.475,3.745-6.82c3.201-5.187,6.307-8.323,9.317-9.413c0.896-0.32,2.656-0.384,5.282-0.192
		c2.177,0.192,3.843-0.224,4.995-1.249c-0.897-1.856-4.067-5.538-9.509-11.046c-4.548-4.545-7.237-9.379-8.068-14.503
		c-1.729-10.693,0.416-19.402,6.436-26.125c5.379-5.955,12.518-9.284,21.419-9.989c8.836-0.704,16.521,1.377,23.052,6.243
		c7.171,5.316,10.916,12.808,11.237,22.476c0.256,7.364-1.601,13.672-5.57,18.922c-1.025,1.409-5.508,5.827-13.447,13.254
		c1.216,1.537,3.65,2.37,7.3,2.498c3.905,0.129,6.595,0.768,8.068,1.921c0.512,0.384,5.153,7.204,13.927,20.458
		C146.979,107.386,151.11,114.46,150.918,115.805z M56.597,84.301c-5.379-1.152-8.068-7.523-8.068-19.114
		c0-9.541,1.216-17.544,3.65-24.012c5.249-0.769,8.419-0.769,9.509,0c0.576,5.315,4.961,14.344,13.158,27.086
		c-4.034,0.256-7.491,2.497-10.373,6.723C60.887,80.3,58.262,83.405,56.597,84.301z M94.633,141.354
		c0.512,5.892,0.385,15.272-0.384,28.143c-0.705,11.334-0.576,19.273,0.384,23.82c-2.305,1.153-6.084,1.729-11.334,1.729
		c-5.251,0-9.028-0.576-11.333-1.729c-0.192-1.409,0.127-2.818,0.96-4.226c0.896-1.409,1.312-2.689,1.249-3.842
		c-2.435-5.06-3.522-13.927-3.266-26.606c0.384-17.352,0.479-26.765,0.288-28.238C77.983,131.622,85.797,135.271,94.633,141.354z
		 M79.265,52.22c4.097,3.138,9.859,4.74,17.288,4.803c7.492,0.064,13.19-1.537,17.097-4.803c2.177-2.881,3.362-6.947,3.555-12.198
		c0.255-5.442-0.706-9.668-2.882-12.678c-3.906-0.577-9.35-0.832-16.328-0.769c-10.374,0.064-16.137,0.064-17.289,0
		c-3.203,1.537-4.739,5.508-4.61,11.91C76.222,44.185,77.279,48.763,79.265,52.22z M111.441,101.878
		c1.537-4.418,1.537-9.541,0-15.368c-5.443-1.984-14.952-2.209-28.526-0.672c-1.09,1.217-1.633,3.746-1.633,7.588
		c0,3.266,0.319,6.084,0.961,8.452c3.393,1.217,8.26,1.793,14.599,1.729C103.053,103.607,107.919,103.03,111.441,101.878z
		 M120.95,130.405c1.665,1.921,2.529,5.187,2.594,9.797c0,1.345-0.064,3.426-0.192,6.243c-0.129,3.011-0.191,5.22-0.191,6.627
		c0,1.282,0.062,4.418,0.191,9.413c0.063,3.842,0.063,6.851,0,9.029c-0.321,6.467-1.601,11.046-3.842,13.735
		c-0.064,1.088,0.384,2.464,1.345,4.13c0.831,1.473,1.119,3.009,0.864,4.61c-11.525,1.6-19.082,1.376-22.667-0.673
		c-0.065-0.576,0.896-3.266,2.881-8.067c-2.242-3.842-3.299-10.47-3.17-19.882c0.256-14.6,0.352-22.347,0.289-23.244
		C102.253,139.241,109.552,135.336,120.95,130.405z M139.2,83.628c-2.178,0.192-4.034-0.576-5.571-2.305
		c-0.769-0.832-1.985-2.721-3.649-5.667c-3.011-5.506-6.757-7.972-11.238-7.396c7.62-9.797,12.486-19.049,14.6-27.758
		c3.201-0.32,6.371,0.161,9.509,1.44c1.729,2.305,2.497,6.757,2.306,13.351c-0.064,1.537-0.226,4.291-0.48,8.26
		c-0.257,3.458-0.384,6.02-0.384,7.684c0.062,4.61,0.031,7.237-0.097,7.876C143.618,81.933,141.952,83.437,139.2,83.628z
		 M154.567,120.127c0.385,1.793,1.408,3.458,3.074,4.995c0.255,0.256,0.992,0.897,2.209,1.921c0.896,0.705,1.568,1.345,2.017,1.921
		c-1.729,3.203-7.588,7.333-17.576,12.39c-1.345-0.384-2.498-2.017-3.458-4.898c-0.897-2.752-2.178-4.289-3.842-4.61
		C140.127,126.723,145.986,122.816,154.567,120.127z"/>
</g>
</svg>
