<?xml version="1.0" encoding="utf-8"?>
<!-- Generator: Adobe Illustrator 17.0.0, SVG Export Plug-In . SVG Version: 6.00 Build 0)  -->
<!DOCTYPE svg PUBLIC "-//W3C//DTD SVG 1.1//EN" "http://www.w3.org/Graphics/SVG/1.1/DTD/svg11.dtd">
<svg version="1.1" id="Layer_1" xmlns="http://www.w3.org/2000/svg" xmlns:xlink="http://www.w3.org/1999/xlink" x="0px" y="0px"
	 width="200px" height="200px" viewBox="0 0 200 200" enable-background="new 0 0 200 200" xml:space="preserve">
<g>
	<path d="M57.799,7.601h2.159c7.13,0.736,13.088,2.293,17.875,4.669c3.716,1.708,6.561,5.122,8.535,10.243
		c0.335,1.707,1.037,2.561,2.109,2.561c8.436-1.438,13.689-2.159,15.766-2.159h4.268l11.498,1.306
		c4.921-10.242,11.029-15.364,18.327-15.364h12.352c4.619,0,10.31,2.143,17.071,6.427c2.31,1.942,4.284,7.331,5.925,16.168v7.23
		c0,4.418-1.976,9.389-5.925,14.912c-2.946,2.009-4.804,3.013-5.573,3.013v1.255c1.707,3.08,2.561,5.507,2.561,7.28v2.109
		c0,7.967-1.272,15.632-3.815,22.996c-8.805,12.352-15.063,18.745-18.779,19.18v0.452c2.242,1.908,5.941,3.331,11.097,4.268
		c1.707,1.507,5.54,3.482,11.498,5.925c4.854,4.017,8.552,7.298,11.097,9.842c0,0.702,0.986,1.824,2.962,3.363
		c2.577,4.82,3.866,8.805,3.866,11.95v3.414c-2.846,7.665-5.69,11.498-8.535,11.498c0,0.837-1.557,1.69-4.67,2.561
		c-1.373,0-4.653,0.134-9.841,0.402c-0.536,0-1.523-0.285-2.963-0.854c0,0.233,0.134,1.087,0.402,2.561
		c0,9.171-1.272,16-3.816,20.485c-5.222,7.665-9.908,11.498-14.059,11.498h-8.536c-7.866-2.075-13.122-5.055-15.766-8.938
		c-1.339-2.845-2.192-4.268-2.561-4.268c-2.779,2.276-5.473,3.414-8.084,3.414h-7.23c-4.819,0-9.941-1.991-15.364-5.975
		c-7.197,5.69-14.578,8.535-22.143,8.535H42.033c-2.946,0-5.925-1.991-8.938-5.975c-4.05-8.033-6.896-16.135-8.535-24.302
		c0.301-3.815,0.451-7.079,0.451-9.791v-0.451c1.507-4.587,4.903-8.553,10.193-11.9c2.477-2.008,4.469-3.013,5.975-3.013
		l3.013,0.452c0.469-0.301,1.037-0.452,1.707-0.452c5.389,2.21,8.084,5.055,8.084,8.536c1.673,1.707,2.661,2.561,2.962,2.561h0.452
		c0.836,0,3.531-0.854,8.084-2.561h0.401v-2.108l0.452-5.122h-0.854c-10.042,0-21.122-3.548-33.239-10.645
		c-4.117-2.711-7.95-6.828-11.498-12.352c-2.276-3.079-3.414-5.64-3.414-7.682c0-6.896,4.837-11.866,14.511-14.913
		c2.376-0.568,5.489-0.854,9.339-0.854h0.854c1.071,0,3.766,0.703,8.084,2.109c-1.139-2.845-1.842-6.242-2.109-10.192
		c-0.837-1.908-1.255-4.335-1.255-7.281v-0.401c0-1.438,0.134-3.564,0.401-6.377c-6.394-3.882-10.377-8.15-11.949-12.803
		c0-0.804-0.988-3.214-2.963-7.23c-0.269-1.104-0.401-2.242-0.401-3.414v-7.683l0.401-0.854h-0.401
		c0-6.192,5.255-14.009,15.766-23.448C52.727,8.873,56.125,7.601,57.799,7.601z M23.304,104.757
		c4.117,8.77,11.364,15.163,21.741,19.18c6.46,2.277,12.134,3.699,17.021,4.268l0.854-0.451h5.522c0-1.74,2.276-4.72,6.829-8.938
		v-2.561c-0.101-0.67-2.946-1.941-8.536-3.816c-5.791-3.782-9.473-7.347-11.046-10.694c-0.67,0-1.808-1.557-3.414-4.67
		c-5.725-1.707-10.126-2.561-13.205-2.561C28.559,95.819,23.304,99.233,23.304,104.757z M31.841,154.163v1.707
		c0,6.661,3.113,15.33,9.339,26.009c3.615,2.276,8.017,3.414,13.205,3.414c8.603-2.276,15.28-4.988,20.034-8.134l0.451-0.804v-0.451
		c-5.992-8.905-8.987-17.858-8.987-26.862c-2.645,1.707-4.77,2.561-6.377,2.561h-3.414c-4.251,0-7.229-3.833-8.938-11.498
		l-2.108-1.256c-5.925,0-10.042,2.41-12.352,7.23C32.125,148.355,31.841,151.05,31.841,154.163z M37.364,39.985V43.4
		c1.64,6.192,4.77,11.447,9.389,15.766c2.611,1.406,4.586,2.108,5.925,2.108h0.854c-0.269,5.256-0.401,9.089-0.401,11.498v1.708
		c1.205,5.958,2.191,10.075,2.962,12.352c3.046,7.397,5.038,11.096,5.976,11.096c2.175,3.515,5.438,6.21,9.791,8.084
		c7.899,3.716,12.585,5.573,14.059,5.573c3.682,1.139,8.938,1.707,15.766,1.707h9.791c2.61,0,11.85-3.564,27.716-10.694
		c0-0.268,1.557-1.824,4.669-4.67c6.829-7.665,10.243-12.77,10.243-15.313c1.707-7.097,2.561-11.933,2.561-14.511V67.25
		c0-2.276-1.272-6.829-3.815-13.657v-0.401c0.167-0.569,2.292-1.557,6.376-2.963c4.251-2.443,6.377-5.439,6.377-8.987
		c0.302,0,0.585-0.703,0.854-2.109l-0.401-0.854v-2.561c0-0.268,0.133-0.401,0.401-0.401l-0.401-0.854v-1.306
		c0-6.729-1.857-11.414-5.573-14.059c-3.95-1.975-7.499-3.397-10.645-4.268h-6.829c-5.456,1.071-9.138,2.645-11.046,4.72
		c-3.414,5.088-5.121,7.782-5.121,8.083c-0.302,0-0.452,0.135-0.452,0.402l-0.854-0.402h-0.804c-2.778,0-5.773,1.139-8.987,3.415
		h-1.255c-0.402,0-2.679-0.284-6.829-0.854h-3.414c-2.243,0-5.222,0.134-8.938,0.401c-1.339-0.836-3.181-1.406-5.522-1.707
		l-4.269,0.854c-1.473,0-4.167-2.544-8.083-7.632c-5.39-5.122-11.934-7.683-19.633-7.683h-1.255c-4.386,0-9.791,4.117-16.218,12.352
		C38.35,29.459,37.364,33.86,37.364,39.985z M66.335,31.049c3.213,0,5.339,1.841,6.377,5.522c0,3.414-2.126,6.829-6.377,10.243
		c-2.544,0.837-4.251,1.255-5.121,1.255h-1.256c-5.423-1.707-8.134-3.982-8.134-6.828c-0.269,0-0.401-0.703-0.401-2.109
		c1.104-5.389,4.519-8.083,10.242-8.083H66.335z M79.941,69.811c8.268,0.837,12.402,2.829,12.402,5.975v0.402
		c0,0.569-0.285,0.854-0.854,0.854c-4.452-1.138-7.298-1.707-8.536-1.707c-4.084,0-7.632,1.857-10.645,5.573h-1.306
		c-1.138-1.607-1.707-2.611-1.707-3.013C71.305,72.505,74.853,69.811,79.941,69.811z M107.657,120.07v-0.401
		c-1.172,0.569-3.582,0.854-7.229,0.854c-5.122,0-7.683-0.284-7.683-0.854c-0.269,0-0.401,0.134-0.401,0.401
		c-4.687-1.138-7.248-1.84-7.683-2.108c-1.875,0-4.436,2.561-7.682,7.682c-3.683,10.344-5.523,17.725-5.523,22.143v1.707
		c1.306,7.13,2.862,12.385,4.67,15.767c0.87,2.979,4.284,7.096,10.242,12.352c4.652,1.975,9.623,2.962,14.913,2.962
		c6.527-0.2,9.791-1.055,9.791-2.561c0.77,0,1.472-2.544,2.108-7.632c0-4.586,3.698-12.402,11.097-23.448v-0.452
		c-5.39-6.326-8.084-11.849-8.084-16.568v-3.866c0-2.276,1.707-5.406,5.121-9.39h-0.452
		C113.23,118.933,108.829,120.07,107.657,120.07z M122.57,28.487h2.962c3.515,0,6.227,3.549,8.134,10.645v8.084
		c0,3.314-2.711,5.306-8.134,5.976h-1.657c-1.808,0-6.226-2.562-13.255-7.683h-0.401c-1.675,1.707-3.382,2.712-5.122,3.013
		c-2.544-0.636-3.815-1.925-3.815-3.866c-1.675,0.67-3.247,2.527-4.72,5.573c-3.515,2.812-6.913,4.218-10.193,4.218
		c-2.879,0-4.736-2.26-5.573-6.778c-0.268-0.066-0.401-1.489-0.401-4.268v-4.72c0-5.39,3.264-8.368,9.791-8.938
		c3.916,0,7.046,1.857,9.39,5.573h0.854c0-1.507,1.271-2.511,3.815-3.013c4.251,0.736,6.377,2.159,6.377,4.268h0.452
		C115.891,31.35,119.724,28.655,122.57,28.487z M117.448,88.99c2.577,0.703,5.272,2.829,8.084,6.377v0.854
		c0,1.34-1.272,2.193-3.815,2.561c-0.135-0.568-0.838-1.138-2.109-1.707c-7.163,4.553-10.996,6.829-11.498,6.829l-2.159,1.255
		h-3.815c-3.783,0-8.185-2.26-13.205-6.778h-1.306l-1.707,1.255H84.21c-0.436,0-1.005-0.568-1.707-1.707v-0.401
		c3.279-3.782,6.409-6.059,9.389-6.828l0.854,1.255v0.452c0,0.771-0.284,1.624-0.854,2.561c1.372,3.113,6.493,4.669,15.364,4.669
		c5.656-1.572,8.485-3.698,8.485-6.376C116.176,90.414,116.745,88.99,117.448,88.99z M105.096,83.016c4.82,0,7.23,1.139,7.23,3.414
		c-1.474,2.846-3.732,4.269-6.778,4.269c-5.423,0-8.134-1.289-8.134-3.866v-0.854C97.415,84.572,99.975,83.585,105.096,83.016z
		 M128.093,68.957c5.423,1.908,8.134,4.469,8.134,7.682v1.707c-0.469,1.139-1.473,1.708-3.012,1.708h-1.256
		c-1.272-2.845-4.117-4.269-8.535-4.269c-1.641,0-4.486,0.285-8.536,0.854l-0.401-2.158
		C115.423,71.636,119.959,69.794,128.093,68.957z M119.607,169.075l0.401,0.854c-0.268,0.402-0.687,3.381-1.255,8.938
		c1.606,4.854,3.447,7.28,5.523,7.28c3.615,2.276,6.024,3.414,7.229,3.414h6.428c2.376,0,5.489-2.996,9.339-8.987
		c1.07-2.41,1.924-6.946,2.561-13.606c-1.139-10.812-2.561-16.218-4.268-16.218c-2.679-3.95-6.36-5.925-11.047-5.925h-0.451
		c-3.984,3.246-6.545,6.226-7.683,8.938C121.867,160.958,119.607,166.062,119.607,169.075z M123.875,125.192v4.72
		c0.469,7.665,2.31,11.498,5.523,11.498c0.636,0,1.205,0.134,1.707,0.401c1.908-0.77,3.33-1.473,4.268-2.109h2.562
		c4.049,0,8.016,2.127,11.899,6.377c3.146,4.05,4.72,7.029,4.72,8.938c0.268,0,0.401-0.134,0.401-0.401
		c3.481,0.836,5.606,1.255,6.377,1.255c7.598,0,11.866-2.126,12.804-6.377c0.836-0.168,1.255-1.305,1.255-3.414
		c0-3.916-1.841-7.749-5.523-11.498c-9.941-10.042-16.619-15.297-20.033-15.766c-5.49-3.113-9.607-4.67-12.352-4.67
		c-4.787,0-8.051,1.406-9.791,4.218C125.448,120.606,124.177,122.882,123.875,125.192z M143.457,28.036
		c6.829,1.405,10.243,4.251,10.243,8.535c-0.804,5.691-2.661,8.536-5.573,8.536c0,0.269-0.569,0.401-1.707,0.401h-0.402
		c-5.422,0-9.256-3.113-11.498-9.339v-1.306C134.519,31.384,137.499,29.107,143.457,28.036z"/>
</g>
</svg>
