<?xml version="1.0" encoding="utf-8"?>
<!-- Generator: Adobe Illustrator 17.0.0, SVG Export Plug-In . SVG Version: 6.00 Build 0)  -->
<!DOCTYPE svg PUBLIC "-//W3C//DTD SVG 1.1//EN" "http://www.w3.org/Graphics/SVG/1.1/DTD/svg11.dtd">
<svg version="1.1" id="Layer_1" xmlns="http://www.w3.org/2000/svg" xmlns:xlink="http://www.w3.org/1999/xlink" x="0px" y="0px"
	 width="200px" height="200px" viewBox="0 0 200 200" enable-background="new 0 0 200 200" xml:space="preserve">
<g>
	<path d="M193.495,100.134c0,25.754-9.115,47.746-27.34,65.971c-18.229,18.225-40.218,27.34-65.972,27.34
		c-25.753,0-47.746-9.115-65.971-27.34c-18.228-18.225-27.34-40.217-27.34-65.971c0-25.753,9.112-47.743,27.34-65.971
		c18.225-18.225,40.218-27.34,65.971-27.34c25.754,0,47.743,9.115,65.972,27.34C184.38,52.392,193.495,74.381,193.495,100.134z
		 M184.164,124.208c0-1.866-0.653-3.452-1.96-4.759c-1.306-1.306-2.831-1.959-4.572-1.959h-2.985l4.292-1.68l3.732-3.545v-5.226
		c-1.12-2.735-3.173-4.106-6.158-4.106c-0.872,0-1.68,0.187-2.427,0.56l-5.038,2.053c-1.245-6.841-3.173-12.626-5.785-17.355
		c0-1.493,0-3.668,0-6.532c0-31.726-5.29-48.644-15.863-50.761c-0.872-0.123-1.68-0.187-2.426-0.187
		c-10.078,0-21.275,10.515-33.593,31.539c-4.729-0.746-8.275-1.12-10.637-1.12c-2.239,0-5.725,0.374-10.451,1.12
		C77.975,41.226,66.778,30.711,56.701,30.711c-0.872,0-1.68,0.064-2.426,0.187c-10.702,2.117-15.988,19.035-15.863,50.761
		c0,2.864,0,5.039,0,6.532c-2.738,4.852-4.665,10.701-5.785,17.542l-5.599-2.24c-0.872-0.373-1.744-0.56-2.613-0.56
		c-2.985,0-5.038,1.432-6.158,4.292l0.187,5.039l3.546,3.545l4.479,1.68h-2.986c-1.866,0-3.452,0.653-4.759,1.959
		c-1.307,1.307-1.96,2.893-1.96,4.759c0,1.744,0.653,3.266,1.96,4.572c1.307,1.307,2.893,1.96,4.759,1.96h3.546l-3.359,1.679
		c-2.365,1.245-3.546,3.237-3.546,5.972c0,0.997,0.187,1.992,0.56,2.986l3.92,3.359l5.038-0.374l8.212-4.105
		c5.348,9.083,13.466,16.236,24.354,21.461c10.886,5.226,23.357,7.838,37.418,7.838c14.306,0,27.09-2.613,38.351-7.838
		c11.259-5.226,19.689-12.378,25.288-21.461l8.024,4.105l5.039,0.374l3.919-3.359c0.495-0.994,0.746-1.989,0.746-2.986
		c0-2.735-1.245-4.727-3.732-5.972l-3.359-1.679h3.732c1.741,0,3.267-0.653,4.572-1.96
		C183.511,127.475,184.164,125.953,184.164,124.208z M179.125,124.022c0,1.245-0.56,1.866-1.68,1.866h-13.437
		c-0.373,1.619-0.811,3.173-1.307,4.666l12.317,6.159c0.994,0.499,1.242,1.306,0.746,2.426c-0.498,1.12-1.306,1.432-2.426,0.933
		l-12.131-6.159c-4.479,9.457-12.224,16.954-23.234,22.488c-11.011,5.535-23.858,8.305-38.537,8.305
		c-14.434,0-26.967-2.77-37.604-8.305c-10.638-5.534-18.009-13.031-22.114-22.488l-12.317,6.159
		c-1.12,0.499-1.991,0.187-2.612-0.933c-0.499-1.12-0.187-1.928,0.933-2.426l12.69-6.345c-0.499-1.368-0.933-2.86-1.307-4.479
		h-13.81c-1.245,0-1.866-0.621-1.866-1.866c0-1.12,0.621-1.68,1.866-1.68h13.25c-0.251-1.866-0.373-3.732-0.373-5.599
		c0-0.248,0-0.434,0-0.56l-12.504-4.852c-1.12-0.496-1.493-1.307-1.12-2.426c0.496-1.12,1.307-1.493,2.427-1.12l11.384,4.666
		c0.746-9.579,2.986-17.356,6.719-23.328c-0.126-1.989-0.188-4.602-0.188-7.838c0-28.862,4.042-44.104,12.131-45.722
		c4.853-0.869,10.573,2.365,17.169,9.704c4.853,5.476,9.393,12.069,13.624,19.782l1.119,2.239c4.602-0.869,9.145-1.306,13.624-1.306
		c4.354,0,8.832,0.437,13.437,1.306c0.248-0.373,0.683-1.12,1.307-2.239c4.105-7.587,8.646-14.184,13.623-19.782
		c6.719-7.339,12.504-10.573,17.355-9.704c7.961,1.618,11.944,16.86,11.944,45.722c0,3.237,0,5.85,0,7.838
		c3.606,5.849,5.847,13.5,6.718,22.954l10.638-4.292c1.12-0.374,1.928,0,2.427,1.12c0.495,1.12,0.187,1.93-0.934,2.426
		l-11.943,4.666c0,0.746,0,0.997,0,0.746c0,1.866-0.126,3.732-0.374,5.599h12.69C178.565,122.342,179.125,122.902,179.125,124.022z
		 M161.396,116.744c0-6.345-1.059-12.69-3.173-19.035c-5.599,0.747-10.889,1.12-15.863,1.12c-17.915,0-31.603-4.914-41.057-14.743
		l-3.919,4.106c-0.499,0.373-0.934,0.373-1.307,0c-0.125-0.248-0.187-0.496-0.187-0.747c0-0.248,0.062-0.435,0.187-0.56l4.293-4.105
		c-0.747-0.747-1.493-1.554-2.24-2.426l-6.904,6.905c-0.374,0.373-0.747,0.373-1.12,0c-0.373-0.374-0.373-0.747,0-1.12l7.092-7.091
		c-0.624-0.995-1.307-1.989-2.053-2.986L83.387,88.004c-0.498,0.374-0.933,0.374-1.306,0c-0.374-0.496-0.374-0.933,0-1.306
		l12.13-11.944c0-0.123,0.062-0.187,0.187-0.187c-0.498-0.747-1.119-1.802-1.866-3.173l-14.93,14.93
		c-0.498,0.499-0.933,0.499-1.306,0c-0.374-0.374-0.374-0.747,0-1.12l15.116-15.116c-2.24,0.373-3.919,0.685-5.039,0.933
		l-0.934,0.187L73.683,82.965c-0.373,0.373-0.746,0.373-1.119,0c-0.499-0.374-0.499-0.747,0-1.12l11.943-11.944l-1.68-2.986
		c0-0.123-0.064-0.248-0.187-0.374L70.885,78.486c-0.374,0.373-0.747,0.373-1.12,0c-0.499-0.373-0.499-0.747,0-1.12L81.895,65.05
		c-0.747-1.242-1.371-2.24-1.866-2.986l-15.49,15.49c-0.498,0.373-0.933,0.373-1.307,0c-0.373-0.373-0.373-0.747,0-1.12
		l15.863-15.863c-0.624-0.869-1.307-1.866-2.053-2.986l-13.811,13.81c-0.373,0.374-0.746,0.374-1.119,0
		c-0.373-0.373-0.373-0.746,0-1.12l13.996-13.997c-0.624-0.994-1.306-1.989-2.053-2.986l-15.489,15.49
		c-0.373,0.373-0.746,0.373-1.12,0c-0.373-0.374-0.373-0.747,0-1.12l15.677-15.676c-0.872-0.994-1.68-1.927-2.426-2.799
		l-18.85,19.036c-0.373,0.373-0.746,0.373-1.119,0c-0.499-0.373-0.499-0.747,0-1.12L69.764,47.88
		c-0.746-0.747-1.557-1.554-2.426-2.426L47.183,65.609c-0.747,7.838-0.934,15.802-0.561,23.888l0.188,0.747l-0.374,0.373
		c-4.479,6.844-6.718,15.554-6.718,26.127c0,13.064,5.566,23.701,16.702,31.913c11.134,8.211,25.475,12.317,43.017,12.317
		c27.868,0,47.649-10.139,59.346-30.419C160.524,126.2,161.396,121.596,161.396,116.744z M66.032,44.334
		c-0.872-0.869-1.744-1.615-2.612-2.239L48.863,56.651c-0.251,0.251-0.499,0.312-0.747,0.187c-0.25,1.991-0.498,4.044-0.746,6.158
		L66.032,44.334z M62.113,41.162c-0.872-0.621-1.744-1.12-2.613-1.493L49.982,49c0,0.125-0.125,0.187-0.373,0.187
		c-0.373,1.744-0.746,3.61-1.119,5.599L62.113,41.162z M57.821,39.296c-0.872-0.248-1.619-0.309-2.24-0.187
		c-1.991,0.374-3.732,2.864-5.225,7.465L57.821,39.296z M76.483,111.705c0,2.738-0.966,5.039-2.893,6.905
		c-1.931,1.866-4.264,2.799-6.999,2.799c-2.612,0-4.884-0.933-6.812-2.799c-1.931-1.866-2.893-4.167-2.893-6.905
		c0-2.735,0.962-5.039,2.893-6.905c1.928-1.867,4.199-2.8,6.812-2.8c2.735,0,5.068,0.933,6.999,2.8
		C75.517,106.667,76.483,108.97,76.483,111.705z M67.525,109.466c0-1.989-0.997-2.986-2.986-2.986c-2.117,0-3.173,0.998-3.173,2.986
		c0,2.117,1.056,3.172,3.173,3.172C66.528,112.638,67.525,111.583,67.525,109.466z M127.244,135.966
		c-2.365,5.85-7.217,8.771-14.557,8.771c-1.37,0-2.677-0.123-3.919-0.374c-0.251,0.125-0.499,0.187-0.746,0.187
		c-2.49-0.122-4.978-1.367-7.465-3.732c-3.111,2.864-6.098,4.106-8.958,3.732c-2.986-0.496-5.29-2.735-6.905-6.718
		c-0.499-1.12-0.187-1.927,0.934-2.426c1.119-0.374,1.927-0.062,2.426,0.933c1.119,2.738,2.487,4.231,4.105,4.479
		c2.239,0.374,4.54-0.869,6.905-3.732c0.373-0.496,0.869-0.746,1.493-0.746c0.495,0,0.933,0.25,1.306,0.746
		c1.741,1.992,3.855,3.298,6.346,3.919c0.994-0.995,1.74-2.861,2.239-5.599c0.746-3.732,1.242-5.847,1.493-6.345
		c1.119-3.108,3.233-4.914,6.345-5.412c3.359-0.621,6.033,0.373,8.025,2.986c1.242,1.371,1.866,3.05,1.866,5.039
		C128.178,133.044,127.865,134.473,127.244,135.966z M123.885,134.66c0.994-2.362,0.901-4.292-0.279-5.785
		c-1.185-1.493-2.771-2.053-4.759-1.68c-1.744,0.25-2.925,1.245-3.546,2.986c-0.374,2.117-1.059,5.164-2.053,9.145
		c1.866-1.493,3.233-3.546,4.105-6.159c0.373-1.242,1.119-1.68,2.239-1.306c1.12,0.373,1.554,1.12,1.307,2.239
		c-0.747,2.365-1.992,4.543-3.732,6.532C120.4,139.763,122.639,137.771,123.885,134.66z M143.853,111.705
		c0,2.738-0.965,5.039-2.893,6.905c-1.931,1.866-4.199,2.799-6.812,2.799c-2.738,0-5.071-0.933-6.998-2.799
		c-1.931-1.866-2.894-4.167-2.894-6.905c0-2.735,0.963-5.039,2.894-6.905c1.927-1.867,4.26-2.8,6.998-2.8
		c2.612,0,4.881,0.933,6.812,2.8C142.888,106.667,143.853,108.97,143.853,111.705z M134.895,109.466
		c0-1.989-0.997-2.986-2.985-2.986c-1.992,0-2.986,0.998-2.986,2.986c0,2.117,0.994,3.172,2.986,3.172
		C133.898,112.638,134.895,111.583,134.895,109.466z"/>
</g>
</svg>
